<?xml version="1.0" encoding="utf-8"?>
<!-- Generator: Adobe Illustrator 18.0.0, SVG Export Plug-In . SVG Version: 6.00 Build 0)  -->
<!DOCTYPE svg PUBLIC "-//W3C//DTD SVG 1.1//EN" "http://www.w3.org/Graphics/SVG/1.1/DTD/svg11.dtd">
<svg version="1.1" id="圖層_1" xmlns="http://www.w3.org/2000/svg" xmlns:xlink="http://www.w3.org/1999/xlink" x="0px" y="0px"
	 viewBox="0 0 235 55" enable-background="new 0 0 235 55" xml:space="preserve">
<g display="none">
	<g display="inline">
		<path fill="#EFAA42" stroke="#FAD277" stroke-width="5" stroke-miterlimit="10" d="M51.7,52.5H27c-13.5,0-24.5-11-24.5-24.5v-1
			c0-13.5,11-24.5,24.5-24.5h24.7c13.5,0,24.5,11,24.5,24.5v1C76.2,41.5,65.2,52.5,51.7,52.5z"/>
		<g>
			<path fill="#221E1F" d="M37.7,28.5h-9.8c-0.7,0-1.2,0.6-1.2,1.2c0,0.7,0.6,1.2,1.2,1.2h7.9c-1.2,3.4-4.8,6-8.4,6
				c-2.4,0-4.7-1-6.4-2.8c-1.7-1.8-2.6-4.2-2.6-6.7c0-2.5,0.9-4.9,2.6-6.7c1.7-1.8,4-2.8,6.4-2.8c2.7,0,5.3,1.2,6.9,3.3
				c0.4,0.5,0.7,1,1,1.5l0,0.1c0.3,0.6,0.5,1.1,1.3,1.2c0.1,0,0.1,0,0.2,0c0.4,0,0.8-0.2,1.1-0.5c0.2-0.2,0.2-0.5,0.1-0.8
				c-1.5-4.4-5.8-7.3-10.6-7.3c-3.1,0-6,1.3-8.2,3.5c-2.2,2.3-3.3,5.3-3.3,8.4c0,3.2,1.2,6.2,3.3,8.4c2.2,2.3,5.1,3.6,8.2,3.6
				c4.4,0,9.2-3.3,10.7-7.4c0.3-0.8,0.5-1.6,0.6-2.4c0-0.3-0.1-0.6-0.3-0.8C38.2,28.6,38,28.5,37.7,28.5z"/>
			<path fill="#221E1F" d="M60.7,19c-2.3-2.3-5.3-3.5-8.5-3.5c-3.2,0-6.3,1.3-8.4,3.5c-2.3,2.3-3.5,5.3-3.5,8.5
				c0,3.2,1.2,6.2,3.5,8.5c2.2,2.3,5.3,3.6,8.4,3.6c3.2,0,6.2-1.3,8.5-3.5c2.3-2.3,3.5-5.3,3.5-8.5C64.2,24.3,62.9,21.3,60.7,19z
				 M52.2,37.1c-2.5,0-4.9-1-6.7-2.8c-1.8-1.8-2.8-4.2-2.8-6.7c0-2.5,1-4.9,2.8-6.7c1.8-1.8,4.2-2.8,6.7-2.8c2.5,0,4.9,1,6.7,2.8
				c1.8,1.8,2.8,4.2,2.8,6.7c0,2.5-1,4.9-2.8,6.7C57.1,36.1,54.7,37.1,52.2,37.1z"/>
		</g>
	</g>
	<g display="inline">
		<g>
			<path d="M230.4,8.7c-0.7,0-1.3,0.6-1.3,1.3v21.1c0,0.7,0.6,1.3,1.3,1.3c0.7,0,1.3-0.6,1.3-1.3V10C231.7,9.3,231.1,8.7,230.4,8.7z
				"/>
			<path d="M188,9.5c-0.2-0.5-0.7-0.8-1.2-0.8c0,0,0,0,0,0c-0.5,0-1,0.3-1.2,0.8l-6,13.7c0,0,0,0,0,0l-3.2,7.4
				c-0.3,0.7,0,1.4,0.7,1.7c0.6,0.3,1.4,0,1.7-0.7l2.9-6.6h10.2l2.8,6.6c0.2,0.5,0.7,0.8,1.2,0.8c0.2,0,0.3,0,0.5-0.1
				c0.7-0.3,1-1,0.7-1.7L188,9.5z M182.8,22.4l4-9.2l3.9,9.2H182.8z"/>
			<g>
				<path d="M96.7,10.9c0.7,0,1.3-0.6,1.3-1.3c0-0.7-0.6-1.3-1.3-1.3H84.8c-0.7,0-1.3,0.6-1.3,1.3v21.5c0,0.7,0.6,1.3,1.3,1.3h11.9
					c0.7,0,1.3-0.6,1.3-1.3c0-0.7-0.6-1.3-1.3-1.3H86.1v-8.1h7.2c0.7,0,1.3-0.6,1.3-1.3c0-0.7-0.6-1.3-1.3-1.3h-7.2v-8.1H96.7z"/>
				<path d="M112,9c-0.2-0.5-0.7-0.8-1.2-0.8c0,0,0,0,0,0c-0.5,0-1,0.3-1.2,0.8l-6.1,14h0l-3.3,7.5c-0.3,0.7,0,1.4,0.7,1.7
					c0.7,0.3,1.4,0,1.7-0.7l3-6.8h10.4l2.9,6.7c0.2,0.5,0.7,0.8,1.2,0.8c0.2,0,0.4,0,0.5-0.1c0.7-0.3,1-1.1,0.7-1.7L112,9z
					 M106.6,22.2l4.1-9.4l4,9.4H106.6z"/>
				<path d="M158.2,8.5c-0.6-0.4-1.4-0.3-1.8,0.3l-6.4,9.2l-6.2-9.2c-0.4-0.6-1.2-0.8-1.8-0.4c-0.6,0.4-0.8,1.2-0.4,1.8l7.1,10.5
					v10.3c0,0.7,0.6,1.3,1.3,1.3c0.7,0,1.3-0.6,1.3-1.3V20.8l7.3-10.5C158.9,9.7,158.8,8.9,158.2,8.5z"/>
				<path d="M131.5,17.6c-3.3-1-4.8-1.7-4.8-3.4c0,0,0,0,0,0c0-0.5,0.1-1.3,0.8-2c0.8-0.8,2.2-1.3,4-1.3c3.7,0,4.7,2,4.8,2.1
					c0.3,0.6,1.1,0.9,1.7,0.6c0.7-0.3,1-1.1,0.7-1.7c-0.1-0.1-1.7-3.6-7.2-3.6c-3.2,0-5,1.1-5.9,2c-1,1-1.6,2.4-1.5,3.9
					c0,3.9,3.7,5,6.6,5.9c3.6,1.1,5.8,2,5.8,4.9c0,1.4-0.4,2.5-1.2,3.3c-1.5,1.5-4.1,1.4-4.1,1.4c0,0,0,0-0.1,0c0,0-3.6,0-5.3-2.7
					c-0.4-0.6-1.2-0.8-1.8-0.4c-0.6,0.4-0.8,1.2-0.4,1.8c2.3,3.8,7,3.9,7.5,3.9c0,0,0.1,0,0.2,0c0.8,0,3.8-0.1,5.8-2.1
					c1.3-1.3,2-3,2-5.2C139.2,20,134.9,18.7,131.5,17.6z"/>
			</g>
			<path d="M176.5,8.7h-6.3c-0.1,0-0.1,0-0.2,0c-0.1,0-0.1,0-0.2,0h-6.4c-0.7,0-1.3,0.6-1.3,1.3c0,0.7,0.6,1.3,1.3,1.3h5.2v19.8
				c0,0.7,0.6,1.3,1.3,1.3c0.7,0,1.3-0.6,1.3-1.3V11.3h5.1c0.7,0,1.3-0.6,1.3-1.3C177.8,9.3,177.2,8.7,176.5,8.7z"/>
			<path d="M224.3,8.6c-0.5-0.5-1.3-0.5-1.8,0l-10.2,10.1L202.1,8.6c-0.5-0.5-1.3-0.5-1.8,0c-0.5,0.5-0.5,1.3,0,1.8l10.2,10
				l-9.9,9.7c-0.5,0.5-0.5,1.3,0,1.8c0.2,0.3,0.6,0.4,0.9,0.4c0.3,0,0.6-0.1,0.9-0.4l9.9-9.7l9.9,9.7c0.3,0.2,0.6,0.4,0.9,0.4
				c0.3,0,0.7-0.1,0.9-0.4c0.5-0.5,0.5-1.3,0-1.8l-9.9-9.7l10.2-10C224.8,10,224.8,9.1,224.3,8.6z"/>
		</g>
	</g>
	<g display="inline">
		<path fill="#58595B" d="M90.3,42.1H88v6.3c0,0.3-0.1,0.5-0.4,0.5c-0.3,0-0.4-0.2-0.4-0.5v-6.3h-2.3c-0.3,0-0.5-0.1-0.5-0.4
			c0-0.3,0.2-0.4,0.5-0.4h5.4c0.3,0,0.5,0.1,0.5,0.4C90.8,41.9,90.6,42.1,90.3,42.1z"/>
		<path fill="#58595B" d="M94.7,44.4c-0.4,0.1-0.8,0.2-1.1,0.4c-0.2,0.1-0.3,0.3-0.5,0.6c-0.2,0.3-0.3,0.6-0.3,0.8v2.1
			c0,0.3-0.1,0.5-0.4,0.5c-0.3,0-0.5-0.2-0.5-0.5v-4.4c0-0.3,0.1-0.5,0.4-0.5c0.3,0,0.4,0.2,0.4,0.5v0.7c0.4-0.7,1-1,1.8-1
			c0.3,0,0.5,0.2,0.5,0.5C95,44.3,94.9,44.4,94.7,44.4z"/>
		<path fill="#58595B" d="M100.1,48.9c-0.3,0-0.4-0.2-0.4-0.5V48c-0.3,0.3-0.6,0.5-1,0.6c-0.4,0.2-0.8,0.3-1.1,0.3
			c-0.5,0-0.9-0.1-1.2-0.3c-0.4-0.3-0.5-0.7-0.5-1.2c0-0.6,0.3-1.1,0.9-1.5c0.5-0.3,1.1-0.4,1.8-0.4h1.1c0-0.8-0.5-1.2-1.4-1.2
			c-0.3,0-0.6,0.1-0.9,0.2c-0.3,0.1-0.5,0.3-0.7,0.5c-0.1,0.2-0.2,0.2-0.3,0.2c-0.3,0-0.5-0.2-0.5-0.5c0-0.1,0.1-0.3,0.2-0.4
			c0.5-0.5,1.2-0.8,2.1-0.8c0.8,0,1.3,0.2,1.7,0.6c0.3,0.4,0.5,0.9,0.5,1.4v3C100.5,48.7,100.4,48.9,100.1,48.9z M99.7,46.3H99
			c-1.5,0-2.2,0.4-2.2,1c0,0.2,0.1,0.4,0.3,0.5c0.2,0.1,0.4,0.2,0.6,0.2c0.4,0,0.8-0.1,1.2-0.3c0.4-0.2,0.7-0.5,0.9-0.8V46.3z"/>
		<path fill="#58595B" d="M106.6,44.2l-2.2,4.4c-0.1,0.2-0.2,0.2-0.3,0.2c-0.1,0-0.2-0.1-0.3-0.2l-2.1-4.3c-0.2-0.3-0.2-0.5-0.2-0.5
			c0-0.3,0.1-0.4,0.4-0.4c0.2,0,0.3,0.1,0.4,0.3l1.9,3.9l1.8-3.9c0.1-0.2,0.2-0.3,0.4-0.3c0.2,0,0.4,0.1,0.4,0.4
			C106.7,44,106.6,44.1,106.6,44.2z"/>
		<path fill="#58595B" d="M111.8,46.3h-3.4c0,0.5,0.2,0.9,0.5,1.2c0.3,0.3,0.7,0.5,1.1,0.5c0.4,0,0.7-0.1,0.9-0.3
			c0.1-0.1,0.3-0.4,0.5-0.7c0.1-0.1,0.2-0.2,0.4-0.2c0.1,0,0.2,0,0.3,0.1c0.1,0.1,0.1,0.2,0.1,0.3c0,0.2-0.2,0.5-0.4,0.8
			c-0.4,0.5-1,0.8-1.8,0.8c-0.8,0-1.4-0.3-1.8-0.8c-0.4-0.5-0.6-1.2-0.6-1.9c0-0.7,0.2-1.3,0.7-1.9c0.5-0.5,1-0.8,1.8-0.8
			c0.7,0,1.3,0.3,1.8,0.8c0.4,0.5,0.6,1,0.6,1.7C112.3,46.2,112.1,46.3,111.8,46.3z M111,44.7c-0.2-0.2-0.6-0.4-1.1-0.4
			c-0.4,0-0.7,0.1-1,0.4c-0.3,0.2-0.5,0.5-0.5,0.9h2.9c0,0,0.1,0,0.1,0C111.4,45.3,111.2,45,111,44.7z"/>
		<path fill="#58595B" d="M114.8,48.9c-0.3,0-0.4-0.2-0.4-0.5v-6.9c0-0.3,0.1-0.5,0.4-0.5c0.3,0,0.4,0.2,0.4,0.5v6.9
			C115.3,48.7,115.1,48.9,114.8,48.9z"/>
		<path fill="#58595B" d="M118.9,48.9c-0.3,0-0.4-0.2-0.4-0.5v-6.9c0-0.3,0.1-0.5,0.4-0.5c0.3,0,0.4,0.2,0.4,0.5v6.9
			C119.4,48.7,119.2,48.9,118.9,48.9z"/>
		<path fill="#58595B" d="M123.5,42.1c-0.1,0.1-0.3,0.2-0.4,0.2c-0.2,0-0.3,0-0.4-0.2c-0.1-0.1-0.2-0.3-0.2-0.4
			c0-0.2,0.1-0.3,0.2-0.4c0.1-0.1,0.3-0.2,0.4-0.2c0.2,0,0.3,0.1,0.4,0.2c0.1,0.1,0.2,0.3,0.2,0.4C123.6,41.8,123.6,41.9,123.5,42.1
			z M123,48.9c-0.3,0-0.4-0.2-0.4-0.5v-4.4c0-0.3,0.1-0.5,0.4-0.5c0.3,0,0.4,0.2,0.4,0.5v4.4C123.5,48.7,123.3,48.9,123,48.9z"/>
		<path fill="#58595B" d="M130.1,48.9c-0.3,0-0.4-0.2-0.4-0.5v-2.8c0-0.4-0.1-0.7-0.4-0.9c-0.3-0.2-0.6-0.3-1-0.3
			c-0.5,0-0.9,0.2-1.3,0.5c-0.3,0.3-0.5,0.6-0.5,0.9v2.7c0,0.3-0.1,0.5-0.4,0.5c-0.3,0-0.5-0.2-0.5-0.5v-4.4c0-0.3,0.1-0.5,0.4-0.5
			c0.3,0,0.4,0.2,0.4,0.5v0.4c0.5-0.6,1.1-0.9,1.8-0.9c0.6,0,1.1,0.2,1.5,0.6c0.4,0.4,0.6,0.9,0.6,1.5v2.8
			C130.5,48.7,130.4,48.9,130.1,48.9z"/>
		<path fill="#58595B" d="M136.4,44.2c-0.1,0-0.3,0.1-0.5,0.2c0.1,0.3,0.2,0.5,0.2,0.8c0,0.5-0.2,0.9-0.7,1.3
			c-0.4,0.3-0.9,0.4-1.4,0.4c-0.2,0-0.4,0-0.7-0.1c-0.1,0.1-0.2,0.2-0.2,0.2c0,0.1,0.1,0.1,0.3,0.2c0.4,0.1,1.1,0.3,1.9,0.5
			c0.7,0.2,1,0.6,1,1.2c0,0.5-0.3,0.8-0.8,1.1c-0.4,0.2-0.9,0.3-1.4,0.3c-0.7,0-1.2-0.1-1.7-0.3c-0.6-0.2-0.8-0.6-0.8-1.1
			c0-0.5,0.4-0.9,1.2-1.1c-0.3-0.1-0.5-0.4-0.5-0.7c0-0.2,0.1-0.4,0.3-0.6c-0.5-0.3-0.7-0.8-0.7-1.2c0-0.6,0.2-1,0.7-1.3
			c0.4-0.3,0.9-0.4,1.4-0.4c0.5,0,0.9,0.1,1.3,0.4c0.3-0.2,0.7-0.4,1-0.4c0.3,0,0.4,0.1,0.4,0.4C136.8,44.1,136.6,44.2,136.4,44.2z
			 M134.3,48.1c-1.2,0.2-1.7,0.4-1.7,0.8c0,0.4,0.5,0.5,1.6,0.5c0.3,0,0.6,0,0.8-0.1c0.4-0.1,0.5-0.3,0.5-0.4
			C135.5,48.6,135.1,48.3,134.3,48.1z M134.9,44.6c-0.3-0.2-0.5-0.3-0.8-0.3c-0.3,0-0.6,0.1-0.8,0.2c-0.3,0.2-0.4,0.4-0.4,0.7
			c0,0.3,0.1,0.5,0.4,0.6c0.2,0.1,0.5,0.2,0.8,0.2c0.2,0,0.5-0.1,0.7-0.2c0.3-0.2,0.4-0.4,0.4-0.6C135.3,45,135.1,44.7,134.9,44.6z"
			/>
		<path fill="#58595B" d="M146.7,48c-0.5,0.6-1.1,0.8-1.8,0.8c-0.8,0-1.4-0.3-1.7-0.9v0.4c0,0.3-0.1,0.5-0.4,0.5
			c-0.3,0-0.4-0.2-0.4-0.5v-6.8c0-0.3,0.1-0.5,0.4-0.5c0.3,0,0.4,0.2,0.4,0.5v2.8c0.4-0.6,1-0.9,1.7-0.9c0.7,0,1.3,0.3,1.8,0.8
			c0.5,0.5,0.7,1.2,0.7,1.9C147.4,46.9,147.2,47.5,146.7,48z M146,44.8c-0.3-0.4-0.7-0.5-1.2-0.5c-0.5,0-1,0.2-1.3,0.5
			c-0.3,0.3-0.5,0.8-0.5,1.3c0,0.5,0.2,1,0.5,1.3c0.3,0.4,0.7,0.6,1.3,0.6c0.5,0,0.9-0.2,1.2-0.6c0.3-0.4,0.4-0.8,0.4-1.3
			C146.5,45.6,146.3,45.2,146,44.8z"/>
		<path fill="#58595B" d="M153,44.1l-2.8,5.9c-0.1,0.1-0.2,0.2-0.3,0.2c-0.3,0-0.5-0.1-0.5-0.4c0-0.1,0.1-0.4,0.2-0.6l0.6-1
			l-2.1-4.1c0,0,0-0.1,0-0.3c0-0.3,0.1-0.4,0.3-0.4c0.2,0,0.3,0.1,0.4,0.3l1.8,3.5l1.7-3.5c0.1-0.2,0.2-0.3,0.4-0.3
			c0.2,0,0.3,0.1,0.3,0.4C153.1,43.9,153.1,44,153,44.1z"/>
		<path fill="#58595B" d="M160.9,48.7c-0.1,0-0.3,0-0.5,0c-0.2,0-0.4,0-0.5,0c-0.6,0-0.9-0.4-0.9-1.3v-3h-0.6
			c-0.3,0-0.5-0.1-0.5-0.4c0-0.3,0.2-0.4,0.5-0.4h0.6v-0.9c0-0.3,0.1-0.5,0.4-0.5c0.3,0,0.4,0.2,0.4,0.5v0.9h0.9
			c0.3,0,0.5,0.1,0.5,0.4c0,0.3-0.2,0.4-0.5,0.4h-0.9v2.9c0,0.3,0,0.5,0.2,0.5h0.8c0.3,0,0.5,0.1,0.5,0.4
			C161.3,48.6,161.2,48.7,160.9,48.7z"/>
		<path fill="#58595B" d="M166.5,48.9c-0.3,0-0.4-0.2-0.4-0.5V48c-0.3,0.3-0.6,0.5-1,0.6c-0.4,0.2-0.8,0.3-1.1,0.3
			c-0.5,0-0.9-0.1-1.2-0.3c-0.4-0.3-0.5-0.7-0.5-1.2c0-0.6,0.3-1.1,0.9-1.5c0.5-0.3,1.1-0.4,1.8-0.4h1.1c0-0.8-0.5-1.2-1.4-1.2
			c-0.3,0-0.6,0.1-0.9,0.2c-0.3,0.1-0.5,0.3-0.7,0.5c-0.1,0.2-0.2,0.2-0.3,0.2c-0.3,0-0.5-0.2-0.5-0.5c0-0.1,0.1-0.3,0.2-0.4
			c0.5-0.5,1.2-0.8,2-0.8c0.8,0,1.3,0.2,1.7,0.6c0.3,0.4,0.5,0.9,0.5,1.4v3C166.9,48.7,166.8,48.9,166.5,48.9z M166.1,46.3h-0.7
			c-1.5,0-2.2,0.4-2.2,1c0,0.2,0.1,0.4,0.2,0.5c0.2,0.1,0.4,0.2,0.6,0.2c0.4,0,0.8-0.1,1.2-0.3c0.4-0.2,0.7-0.5,0.9-0.8V46.3z"/>
		<path fill="#58595B" d="M173.3,48.7c-0.1,0.1-0.2,0.1-0.3,0.1c-0.1,0-0.3,0-0.3-0.1l-2.1-2.1l-2.1,2.1c-0.1,0.1-0.2,0.1-0.3,0.1
			c-0.3,0-0.4-0.1-0.4-0.4c0-0.1,0-0.3,0.1-0.3L170,46l-1.8-1.8c-0.1-0.1-0.1-0.2-0.1-0.3c0-0.3,0.1-0.4,0.4-0.4
			c0.1,0,0.2,0.1,0.3,0.2l1.7,1.8l1.7-1.8c0.1-0.1,0.2-0.2,0.3-0.2c0.1,0,0.2,0,0.3,0.1c0.1,0.1,0.1,0.2,0.1,0.3
			c0,0.1,0,0.3-0.1,0.3l-1.8,1.8l2.1,2.2c0.1,0.1,0.1,0.2,0.1,0.3C173.4,48.6,173.4,48.7,173.3,48.7z"/>
		<path fill="#58595B" d="M176.1,42.1c-0.1,0.1-0.3,0.2-0.4,0.2c-0.2,0-0.3,0-0.4-0.2c-0.1-0.1-0.2-0.3-0.2-0.4
			c0-0.2,0.1-0.3,0.2-0.4c0.1-0.1,0.3-0.2,0.4-0.2c0.2,0,0.3,0.1,0.4,0.2c0.1,0.1,0.2,0.3,0.2,0.4C176.3,41.8,176.3,41.9,176.1,42.1
			z M175.7,48.9c-0.3,0-0.4-0.2-0.4-0.5v-4.4c0-0.3,0.1-0.5,0.4-0.5c0.3,0,0.4,0.2,0.4,0.5v4.4C176.1,48.7,176,48.9,175.7,48.9z"/>
		<path fill="#58595B" d="M179.5,49.6c-0.3,0.3-0.5,0.5-0.6,0.5c-0.2,0-0.2-0.1-0.2-0.2c0,0,0.1-0.2,0.3-0.4
			c0.2-0.3,0.2-0.4,0.2-0.5c0-0.1-0.1-0.2-0.3-0.4c-0.2-0.2-0.3-0.3-0.3-0.5c0-0.2,0.1-0.4,0.2-0.6c0.1-0.1,0.3-0.2,0.6-0.2
			c0.2,0,0.4,0.1,0.5,0.3c0.1,0.2,0.2,0.4,0.2,0.6C180.1,48.5,179.9,49.1,179.5,49.6z"/>
		<path fill="#58595B" d="M189.4,48.5c-0.4,0.2-0.9,0.3-1.5,0.3c-0.6,0-1.2-0.2-1.6-0.5c-0.5-0.3-0.7-0.6-0.7-0.9
			c0-0.3,0.2-0.5,0.5-0.5c0.1,0,0.2,0.1,0.3,0.2c0.3,0.5,0.8,0.8,1.5,0.8c0.9,0,1.4-0.2,1.4-0.6c0-0.2-0.2-0.4-0.6-0.6
			c-0.2-0.1-0.5-0.2-1-0.3c-0.6-0.2-1-0.3-1.3-0.5c-0.5-0.3-0.7-0.6-0.7-1c0-0.5,0.2-0.9,0.6-1.1c0.4-0.2,0.9-0.4,1.5-0.4
			c0.4,0,0.9,0.1,1.3,0.3c0.5,0.3,0.8,0.6,0.8,1c0,0.3-0.2,0.5-0.5,0.5c-0.1,0-0.2-0.1-0.4-0.4c-0.2-0.4-0.6-0.6-1.2-0.6
			c-0.9,0-1.3,0.2-1.3,0.7c0,0.2,0.1,0.3,0.4,0.4c0.1,0,0.4,0.1,0.9,0.3c0.7,0.2,1.2,0.4,1.4,0.6c0.5,0.3,0.8,0.7,0.8,1.2
			C190.1,47.9,189.9,48.3,189.4,48.5z"/>
		<path fill="#58595B" d="M195.7,48.1c-0.5,0.5-1.2,0.8-2,0.8c-0.8,0-1.5-0.2-2-0.8c-0.5-0.5-0.8-1.2-0.8-2c0-0.8,0.3-1.5,0.8-2
			c0.5-0.5,1.2-0.7,2-0.7c0.8,0,1.5,0.2,2,0.8c0.5,0.5,0.8,1.2,0.8,2C196.5,46.9,196.3,47.6,195.7,48.1z M195.1,44.8
			c-0.3-0.3-0.8-0.5-1.3-0.5c-0.6,0-1,0.2-1.4,0.5c-0.3,0.3-0.5,0.8-0.5,1.4c0,0.5,0.2,1,0.5,1.3c0.4,0.4,0.8,0.5,1.3,0.5
			c0.5,0,1-0.2,1.3-0.5c0.3-0.4,0.5-0.8,0.5-1.3C195.6,45.6,195.5,45.1,195.1,44.8z"/>
		<path fill="#58595B" d="M206.7,48.7h-4c-0.4,0-0.6-0.2-0.6-0.5v-6.5c0-0.3,0.2-0.5,0.6-0.5h4c0.3,0,0.5,0.1,0.5,0.4
			c0,0.3-0.2,0.4-0.5,0.4h-3.5c-0.1,0-0.2,0.1-0.2,0.2v2.2h3.2c0.3,0,0.5,0.1,0.5,0.4c0,0.3-0.2,0.4-0.5,0.4H203v2.4
			c0,0.1,0.1,0.2,0.2,0.2h3.5c0.3,0,0.5,0.1,0.5,0.4C207.2,48.6,207.1,48.7,206.7,48.7z"/>
		<path fill="#58595B" d="M215.4,48.8c-0.1,0.1-0.2,0.1-0.3,0.1c-0.2,0-0.4-0.1-0.5-0.3l-0.9-2h-3.8l-0.9,2
			c-0.1,0.2-0.2,0.3-0.5,0.3c-0.2,0-0.4-0.1-0.4-0.4c0-0.2,0-0.3,0.1-0.4l3.2-6.7c0.1-0.2,0.2-0.3,0.4-0.3s0.3,0.1,0.4,0.3l3.2,6.7
			c0.1,0.1,0.1,0.3,0.1,0.4C215.5,48.6,215.5,48.7,215.4,48.8z M211.8,42.4l-1.5,3.3h3L211.8,42.4z"/>
		<path fill="#58595B" d="M221.5,48.3c-0.5,0.4-1.2,0.6-2.1,0.6c-1.1,0-2-0.4-2.6-1.3c-0.2-0.3-0.3-0.6-0.3-1c0-0.1,0-0.2,0.1-0.3
			c0.1-0.1,0.2-0.1,0.3-0.1c0.2,0,0.3,0.2,0.4,0.5c0.1,0.5,0.4,0.8,0.8,1.1c0.4,0.2,0.8,0.3,1.2,0.3c0.6,0,1-0.1,1.4-0.3
			c0.4-0.2,0.6-0.6,0.6-1c0-0.4-0.2-0.7-0.7-0.9c-0.5-0.2-1-0.4-1.6-0.6c-0.8-0.3-1.3-0.6-1.6-0.8c-0.5-0.4-0.8-0.9-0.8-1.4
			c0-1.2,0.9-1.9,2.8-1.9c1.2,0,2,0.3,2.5,1c0.2,0.3,0.3,0.6,0.3,0.8c0,0.3-0.2,0.5-0.5,0.5c-0.2,0-0.3-0.1-0.3-0.3
			c-0.4-0.8-1-1.2-1.9-1.2c-0.5,0-0.8,0.1-1.2,0.2c-0.5,0.2-0.7,0.4-0.7,0.8c0,0.3,0.2,0.6,0.6,0.8c0.2,0.1,0.6,0.3,1.4,0.6
			c0.9,0.4,1.5,0.6,1.8,0.8c0.6,0.4,0.9,1,0.9,1.6C222.3,47.4,222.1,47.9,221.5,48.3z"/>
		<path fill="#58595B" d="M230.2,41.7l-3,3.9v2.8c0,0.3-0.1,0.5-0.4,0.5c-0.3,0-0.4-0.2-0.4-0.5v-2.8l-3-3.9
			c-0.1-0.1-0.1-0.2-0.1-0.3c0-0.2,0.2-0.4,0.5-0.4c0.1,0,0.2,0.1,0.3,0.2l2.7,3.5l2.7-3.5c0.1-0.1,0.2-0.2,0.3-0.2
			c0.3,0,0.5,0.1,0.5,0.4C230.3,41.5,230.3,41.6,230.2,41.7z"/>
		<path fill="#58595B" d="M232.8,48.6c-0.2,0.2-0.3,0.2-0.6,0.2c-0.2,0-0.4-0.1-0.6-0.2c-0.2-0.2-0.2-0.3-0.2-0.6
			c0-0.2,0.1-0.4,0.2-0.6c0.2-0.2,0.3-0.2,0.6-0.2c0.2,0,0.4,0.1,0.6,0.2c0.2,0.2,0.2,0.4,0.2,0.6C233,48.3,232.9,48.5,232.8,48.6z"
			/>
	</g>
</g>
<g display="none">
	<g display="inline">
		<path fill="#EFAA42" stroke="#FAD277" stroke-width="5" stroke-miterlimit="10" d="M50.8,52.1H27.3c-13.6,0-24.8-11.2-24.8-24.8v0
			c0-13.6,11.2-24.8,24.8-24.8h23.5c13.6,0,24.8,11.2,24.8,24.8v0C75.6,40.9,64.5,52.1,50.8,52.1z"/>
		<g>
			<path fill="#221E1F" d="M37.4,28.3h-9.8c-0.7,0-1.2,0.6-1.2,1.2c0,0.7,0.6,1.2,1.2,1.2h7.9c-1.2,3.4-4.8,5.9-8.3,5.9
				c-2.4,0-4.6-1-6.3-2.8c-1.7-1.8-2.6-4.1-2.6-6.6c0-2.5,0.9-4.8,2.6-6.6c1.7-1.8,4-2.8,6.4-2.8c2.7,0,5.3,1.2,6.9,3.3
				c0.4,0.5,0.7,1,1,1.5l0,0.1c0.3,0.5,0.5,1.1,1.3,1.2c0.1,0,0.1,0,0.2,0c0.4,0,0.8-0.2,1.1-0.5c0.2-0.2,0.2-0.5,0.1-0.8
				c-1.5-4.3-5.7-7.2-10.5-7.2c-3.1,0-6,1.2-8.1,3.5c-2.1,2.3-3.3,5.2-3.3,8.3c0,3.1,1.2,6.1,3.3,8.4c2.2,2.3,5.1,3.5,8.1,3.5
				c4.4,0,9.1-3.3,10.6-7.4c0.3-0.8,0.5-1.6,0.6-2.4c0-0.3-0.1-0.5-0.3-0.8C38,28.4,37.7,28.3,37.4,28.3z"/>
			<path fill="#221E1F" d="M60.2,18.9c-2.2-2.3-5.2-3.5-8.4-3.5c-3.2,0-6.2,1.3-8.4,3.5c-2.2,2.3-3.5,5.3-3.5,8.4
				c0,3.2,1.2,6.1,3.5,8.4c2.2,2.2,5.2,3.5,8.4,3.5c3.2,0,6.2-1.3,8.4-3.5c2.2-2.3,3.5-5.3,3.5-8.4C63.7,24.1,62.5,21.2,60.2,18.9z
				 M51.8,36.8c-2.5,0-4.8-1-6.6-2.8c-1.8-1.8-2.8-4.2-2.8-6.7c0-2.5,1-4.9,2.8-6.7c1.8-1.8,4.1-2.8,6.6-2.8c2.5,0,4.9,1,6.7,2.8
				c1.8,1.8,2.7,4.2,2.7,6.7c0,2.5-1,4.9-2.7,6.7C56.7,35.8,54.3,36.8,51.8,36.8z"/>
		</g>
	</g>
	<g display="inline">
		<g>
			<path d="M116.8,31.9h-15.8c-1,0-1.5-0.4-1.5-1.3c0-0.4,0.2-0.8,0.7-1.4l14.3-18.8h-11.9c-1,0-1.5-0.7-1.5-1.3
				c0-0.6,0.5-1.3,1.5-1.3h14.2c1,0,1.5,0.4,1.5,1.3c0,0.4-0.2,0.8-0.7,1.4l-14.3,18.8h13.4c1,0,1.5,0.8,1.5,1.3
				C118.4,31.2,117.9,31.9,116.8,31.9z"/>
		</g>
		<path d="M96,10.4c0.7,0,1.3-0.6,1.3-1.3c0-0.7-0.6-1.3-1.3-1.3H84.2c-0.7,0-1.3,0.6-1.3,1.3v21.5c0,0.7,0.6,1.3,1.3,1.3H96
			c0.7,0,1.3-0.6,1.3-1.3c0-0.7-0.6-1.3-1.3-1.3H85.5v-8.1h7.2c0.7,0,1.3-0.6,1.3-1.3c0-0.7-0.6-1.3-1.3-1.3h-7.2v-8.1H96z"/>
		<g>
			<path d="M140.9,10.1l-8.6,0.1c0.4-0.9,0.7-1.5,0.7-2c0-0.1,0-0.2,0-0.3c0-0.6-0.4-1.1-1.2-1.2c-0.1,0-0.1,0-0.2,0
				c-0.7-0.1-1.2,0.2-1.5,0.9c-0.9,2.2-1.9,4-3.2,5.6c-1.2,1.5-2.7,2.9-4.3,4c-0.4,0.3-0.6,0.7-0.6,1.2c0,0.3,0.1,0.6,0.3,0.8
				c0.3,0.4,0.7,0.6,1.1,0.6c0.3,0,0.6-0.1,0.9-0.3c2.4-1.6,4.8-4.1,6.5-6.8l9.3-0.2c0.7,0,0.7,0.2,0.7,0.5c0,0.1,0,0.3-0.1,0.5
				c-0.6,3-1.6,5.5-3.2,7.7c-2.3-2.2-5-3.9-6.3-4.8c-0.3-0.2-0.6-0.3-0.9-0.3c-0.4,0-0.8,0.2-1.1,0.5c-0.2,0.3-0.4,0.6-0.4,0.9
				c0,0.4,0.2,0.8,0.6,1c2,1.2,4.2,2.9,6.1,4.7c-2.7,2.6-5.9,4.5-9.8,5.6c-0.6,0.2-1.1,0.7-1.1,1.3c0,0.2,0,0.4,0.1,0.6
				c0.2,0.6,0.6,0.8,1.3,0.8c0.2,0,0.3,0,0.5,0l0.1,0c5-1.4,9.2-3.9,12.3-7.7c2.4-2.9,4-6.3,4.8-10.1c0.1-0.4,0.1-0.7,0.1-1.1
				C143.9,11.2,142.8,10.1,140.9,10.1z"/>
			<path d="M167,10.8l-8.3,0.2c0.5-0.8,0.7-1.4,0.9-1.9c0-0.2,0.1-0.3,0.1-0.4c0-0.6-0.4-1.1-1.1-1.3c-0.2-0.1-0.4-0.1-0.6-0.1
				c-0.6,0-1.1,0.3-1.3,1c-2.1,5.2-5.1,8-7.3,9.4c-0.4,0.3-0.7,0.7-0.7,1.3c0,0.3,0.1,0.6,0.3,0.9c0.3,0.4,0.7,0.6,1.2,0.6
				c0.3,0,0.5-0.1,0.9-0.3c2.4-1.6,4.6-3.8,6.3-6.4l8.8-0.1h0.1c0.8,0,0.8,0.3,0.8,0.5c0,0.1,0,0.2,0,0.3l0,0.1
				c-1.7,7.5-6.6,12.3-14.6,14.4c-0.7,0.2-1.1,0.7-1.1,1.3c0,0.2,0,0.3,0.1,0.5c0.2,0.6,0.7,1,1.4,1c0.1,0,0.3,0,0.4,0
				c9.1-2.2,15.1-8.1,16.9-16.7c0.1-0.4,0.1-0.7,0.1-1.1C170.1,11.9,168.9,10.8,167,10.8z"/>
			<path d="M180,10.8c1.8,0.7,4.1,1.9,6,3.2c0.2,0.2,0.5,0.2,0.8,0.2c0.6,0,1.1-0.3,1.3-0.8c0.1-0.2,0.2-0.5,0.2-0.8
				c0-0.5-0.2-0.9-0.7-1.2c-1.9-1.2-4.3-2.4-6.3-3.2c-0.2-0.1-0.5-0.1-0.7-0.1c-0.5,0-1,0.3-1.3,0.8c-0.2,0.3-0.2,0.5-0.2,0.8
				C179.2,10.2,179.5,10.6,180,10.8z"/>
			<path d="M177.8,17.5c2,0.9,4.5,2.2,6.2,3.4c0.3,0.2,0.6,0.3,0.9,0.3c0.5,0,1-0.3,1.3-0.7c0.2-0.3,0.3-0.6,0.3-0.9
				c0-0.5-0.3-0.9-0.7-1.2c-1.7-1.1-4.4-2.5-6.6-3.4c-0.2-0.1-0.4-0.1-0.7-0.1c-0.4,0-0.9,0.1-1.2,0.8c-0.2,0.2-0.2,0.5-0.2,0.8
				C177,16.9,177.3,17.3,177.8,17.5z"/>
			<path d="M198.5,13.2L198.5,13.2c-0.2,0-0.4-0.1-0.5-0.1c-0.7,0-1.1,0.4-1.3,1.1c-1.1,4.1-3.3,7.4-6.5,9.8
				c-2.7,2.1-7.1,3.5-11.4,3.8c-0.9,0.1-1.4,0.6-1.4,1.4l0,0.2c0.1,0.8,0.7,1.4,1.5,1.4h0.1l0,0c4.7-0.3,9.6-2,12.7-4.3
				c3.7-2.7,6.4-6.8,7.7-11.5l0-0.1c0-0.1,0-0.3,0-0.4C199.6,13.9,199.2,13.4,198.5,13.2z"/>
			<path d="M227.9,18.2h-21.1c-0.8,0-1.4,0.6-1.4,1.5c0,0.9,0.5,1.5,1.4,1.5H228c0.8,0,1.4-0.6,1.4-1.5
				C229.3,18.8,228.8,18.2,227.9,18.2z"/>
		</g>
	</g>
	<g display="inline">
		<path fill="#58595B" d="M83.6,40.8c-0.2,0-0.3-0.2-0.3-0.4c0-0.2,0.1-0.4,0.3-0.4h1.8v-1.5c0-0.2,0.2-0.4,0.4-0.4
			c0.3,0,0.4,0.1,0.4,0.4V40h1.3c0.2,0,0.3,0.2,0.3,0.4c0,0.2-0.1,0.4-0.3,0.4h-2.2c0,0.1,0,0.2,0,0.3c0,0.4,0,0.8,0,1.2h1.3
			c0.7,0,1,0.3,1,0.9c0,2.2-0.1,3.7-0.3,4.6c-0.2,0.6-0.5,0.9-1.2,0.9c-0.4,0-0.6,0-0.9-0.1c-0.2,0-0.3-0.2-0.3-0.4c0,0,0-0.1,0-0.1
			c0-0.2,0.2-0.3,0.4-0.3c0,0,0,0,0.1,0c0.2,0,0.3,0.1,0.5,0.1c0.3,0,0.4-0.1,0.5-0.4c0.2-0.8,0.2-2.2,0.2-4.1
			c0-0.2-0.1-0.3-0.3-0.3h-1c-0.1,2.6-0.5,4.1-1.3,5.5c-0.1,0.1-0.2,0.2-0.4,0.2c-0.1,0-0.2,0-0.3-0.1c-0.2-0.1-0.2-0.2-0.2-0.4
			c0-0.1,0-0.2,0.1-0.3c1-1.6,1.3-3.4,1.2-7.4H83.6z M89.5,40.3c-0.4,0.6-0.8,1.2-1.2,1.7c-0.1,0.1-0.2,0.1-0.3,0.1
			c-0.1,0-0.3,0-0.4-0.1c-0.1-0.1-0.1-0.2-0.1-0.3c0-0.1,0-0.2,0.1-0.3c0.7-0.8,1.5-2.1,1.8-3.2c0.1-0.2,0.2-0.2,0.4-0.2
			c0.1,0,0.1,0,0.2,0c0.2,0,0.4,0.2,0.4,0.4c0,0,0,0.1,0,0.1c-0.1,0.3-0.2,0.6-0.4,0.9h4c0.2,0,0.3,0.2,0.3,0.4
			c0,0.2-0.1,0.4-0.3,0.4H89.5z M89.2,44.4c0-0.3,0-0.6,0-0.9c-0.2,0.1-0.5,0.2-0.7,0.3c0,0-0.1,0-0.2,0c-0.2,0-0.3-0.1-0.4-0.3
			c0-0.1,0-0.1,0-0.2c0-0.2,0.1-0.3,0.2-0.3c1.5-0.5,2.9-1.4,3.9-2.3c0.1-0.1,0.2-0.1,0.3-0.1c0.1,0,0.2,0,0.3,0.1
			c0.1,0.1,0.2,0.2,0.2,0.3c0,0.1-0.1,0.2-0.2,0.3c-0.4,0.3-0.8,0.6-1.2,0.9c0.1,0.6,0.2,1.2,0.4,1.8c0.5-0.3,1-0.8,1.4-1.3
			c0.1-0.1,0.2-0.1,0.3-0.1c0.1,0,0.2,0,0.3,0.1c0.1,0.1,0.2,0.2,0.2,0.3c0,0.1,0,0.2-0.1,0.3c-0.5,0.5-1.2,1.1-1.8,1.5
			c0.5,1.2,1.1,2.2,2.1,3.1c0.1,0.1,0.1,0.2,0.1,0.3c0,0.1,0,0.3-0.2,0.4c-0.1,0.1-0.2,0.1-0.3,0.1c-0.1,0-0.2,0-0.3-0.1
			c-1.6-1.5-2.4-3.5-2.7-5.9c-0.2,0.1-0.5,0.3-0.7,0.4v5.7c0,0.2-0.2,0.3-0.4,0.3c-0.3,0-0.5-0.1-0.5-0.3V44.4z"/>
		<path fill="#58595B" d="M98.9,45.1c0-0.5,0-1,0.1-1.6c-0.3,0.4-0.7,0.8-1.1,1c-0.1,0.1-0.2,0.1-0.2,0.1c-0.1,0-0.3-0.1-0.4-0.2
			c-0.1-0.1-0.1-0.2-0.1-0.3c0-0.1,0.1-0.2,0.2-0.3c1.1-0.8,2-1.8,2.6-3c0.1-0.1,0.2-0.2,0.3-0.2c0.1,0,0.2,0,0.3,0.1
			c0.1,0.1,0.2,0.2,0.2,0.3c0,0.1,0,0.2-0.1,0.2c-0.2,0.5-0.6,1-1,1.4v6c0,0.2-0.2,0.3-0.5,0.3c-0.3,0-0.5-0.1-0.5-0.3V45.1z
			 M100.1,38.1c0.1,0,0.2,0,0.3,0.1c0.1,0.1,0.2,0.2,0.2,0.4c0,0.1,0,0.2-0.1,0.2c-0.5,0.8-1.5,1.9-2.4,2.5
			c-0.1,0.1-0.2,0.1-0.3,0.1c-0.1,0-0.2-0.1-0.3-0.2c-0.1-0.1-0.1-0.2-0.1-0.3c0-0.1,0.1-0.2,0.2-0.3c0.9-0.6,1.7-1.4,2.2-2.3
			C99.8,38.2,99.9,38.1,100.1,38.1z M101.4,42.7c-0.2,0-0.3-0.2-0.3-0.4c0-0.2,0.1-0.4,0.3-0.4h6.3c0.2,0,0.3,0.2,0.3,0.4
			c0,0.2-0.1,0.4-0.3,0.4H106v5.1c0,0.8-0.5,1.2-1.4,1.2c-0.5,0-1-0.1-1.4-0.1c-0.2,0-0.3-0.2-0.3-0.4c0,0,0-0.1,0-0.1
			c0-0.2,0.2-0.4,0.4-0.4c0,0,0.1,0,0.1,0c0.3,0.1,0.8,0.1,1.1,0.1c0.4,0,0.6-0.1,0.6-0.5v-4.8H101.4z M101.9,39.6
			c-0.2,0-0.3-0.2-0.3-0.4s0.1-0.4,0.3-0.4h5.3c0.2,0,0.3,0.2,0.3,0.4c0,0.2-0.1,0.4-0.3,0.4H101.9z"/>
		<path fill="#58595B" d="M124.2,44c0-0.2-0.1-0.3-0.3-0.3h-1c-0.2,0-0.4-0.1-0.4-0.4c0-0.3,0.1-0.4,0.4-0.4h1.3
			c0.6,0,0.9,0.3,0.9,0.9v2.7c0.4,0.8,1.1,1.2,1.9,1.3c0.5,0.1,1.2,0.1,2.1,0.1c1.5,0,3-0.1,4.3-0.2c0,0,0,0,0,0
			c0.3,0,0.4,0.2,0.4,0.5c0,0,0,0,0,0.1c0,0.2-0.2,0.4-0.4,0.4c-1.2,0.1-2.9,0.1-4.4,0.1c-0.9,0-1.8,0-2.3-0.2
			c-0.9-0.2-1.7-0.7-2.1-1.4c-0.4,0.5-0.9,1.1-1.4,1.4c-0.1,0-0.1,0.1-0.2,0.1c-0.1,0-0.3-0.1-0.4-0.2c-0.1-0.1-0.1-0.2-0.1-0.3
			c0-0.1,0.1-0.2,0.2-0.3c0.4-0.3,1-0.8,1.5-1.4V44z M123.4,38.4c0.1,0,0.2,0,0.3,0.1c0.5,0.5,1.1,1.2,1.5,1.8
			c0.1,0.1,0.1,0.2,0.1,0.3c0,0.1-0.1,0.2-0.2,0.4c-0.1,0.1-0.2,0.1-0.3,0.1c-0.1,0-0.3-0.1-0.3-0.2c-0.4-0.6-0.9-1.3-1.4-1.7
			c-0.1-0.1-0.1-0.2-0.1-0.3c0-0.1,0.1-0.2,0.2-0.3C123.2,38.4,123.3,38.4,123.4,38.4z M125.7,40.4c-0.2,0-0.3-0.2-0.3-0.4
			c0-0.2,0.1-0.4,0.3-0.4h1.3v-1.2c0-0.2,0.2-0.4,0.4-0.4c0.3,0,0.4,0.1,0.4,0.4v1.2h1c0.2,0,0.3,0.2,0.3,0.4c0,0.2-0.1,0.4-0.3,0.4
			h-1.6c0,0.4,0,0.8,0,1.2h0.9c0.7,0,1,0.2,1,0.9c0,1.5-0.1,2.9-0.4,3.7c-0.2,0.6-0.4,0.9-1.1,0.9c-0.3,0-0.5,0-0.7-0.1
			c-0.1,0-0.2-0.2-0.2-0.3c0,0,0-0.1,0-0.1c0-0.2,0.2-0.3,0.3-0.3c0,0,0,0,0.1,0c0.1,0,0.3,0,0.4,0c0.2,0,0.3-0.1,0.4-0.4
			c0.2-0.7,0.3-1.9,0.3-3.2c0-0.2-0.1-0.3-0.3-0.3h-0.7c-0.1,1.8-0.4,3-1.1,4.1c-0.1,0.1-0.2,0.2-0.3,0.2c-0.1,0-0.2,0-0.3-0.1
			c-0.1-0.1-0.2-0.2-0.2-0.4c0-0.1,0-0.2,0.1-0.3c0.9-1.4,1-3,1.1-5.7H125.7z M130.3,40.3c-0.2,0.4-0.4,0.7-0.6,1
			c-0.1,0.1-0.2,0.2-0.3,0.2c-0.1,0-0.2,0-0.3-0.1c-0.1-0.1-0.2-0.2-0.2-0.3c0-0.1,0-0.2,0.1-0.3c0.5-0.7,1-1.8,1.2-2.5
			c0-0.2,0.2-0.3,0.3-0.3c0,0,0.1,0,0.1,0c0.2,0,0.3,0.2,0.3,0.3c0,0,0,0.1,0,0.1c-0.1,0.3-0.2,0.6-0.3,1h2.7c0.2,0,0.3,0.2,0.3,0.4
			c0,0.2-0.1,0.4-0.3,0.4H130.3z M131,42.9c0-0.2,0.2-0.3,0.4-0.3c0,0,0.1,0,0.1,0c0.3-0.2,0.5-0.3,0.7-0.5c0.1,0,0.1-0.1,0.1-0.1
			s0,0-0.1,0h-1.9c-0.2,0-0.4-0.1-0.4-0.4c0-0.2,0.1-0.4,0.3-0.4h2.5c0.4,0,0.6,0.2,0.6,0.5c0,0.2-0.1,0.4-0.2,0.5
			c-0.4,0.4-0.8,0.8-1.3,1v0.4h1.5c0.2,0,0.3,0.2,0.3,0.4c0,0.2-0.1,0.4-0.3,0.4h-1.5v1.8c0,0.7-0.3,1-1.1,1c-0.3,0-0.6,0-0.9-0.1
			c-0.1,0-0.2-0.2-0.2-0.4c0,0,0-0.1,0-0.1c0-0.2,0.2-0.3,0.3-0.3c0,0,0,0,0,0c0.2,0,0.4,0.1,0.5,0.1c0.3,0,0.4-0.1,0.4-0.4v-1.6
			h-1.3c-0.2,0-0.3-0.2-0.3-0.4c0-0.2,0.1-0.4,0.3-0.4h1.3V42.9z"/>
		<path fill="#58595B" d="M138.6,43.6c0,0,0,0.1,0,0.1c-0.3,1.3-0.7,2.8-1.2,3.8c-0.1,0.2-0.3,0.3-0.5,0.3c-0.1,0-0.2,0-0.2,0
			c-0.2-0.1-0.3-0.2-0.3-0.4c0-0.1,0-0.2,0.1-0.3c0.5-1,1-2.4,1.2-3.6c0-0.2,0.2-0.4,0.4-0.4c0,0,0.1,0,0.1,0
			C138.5,43.2,138.6,43.3,138.6,43.6z M142.7,40.3c-1.3,0-2.9-0.3-3.9-0.7c-0.2-0.1-0.3-0.2-0.3-0.4c0-0.1,0-0.1,0-0.2
			c0.1-0.2,0.2-0.3,0.4-0.3c0.1,0,0.1,0,0.2,0c1.1,0.4,3,0.7,4.8,0.9c0.3,0,0.5,0.2,0.5,0.5c0,0,0,0,0,0.1c0,0.3-0.2,0.4-0.4,0.5
			c-1.4,0.4-2.7,1.1-2.7,1.8c0,0.5,0.2,0.7,1.2,1.6c0.9,0.8,1.3,1.5,1.3,2.4c0,1.3-1,2.1-2.5,2.1c-0.9,0-1.8-0.3-2.5-1
			c-0.1-0.1-0.2-0.3-0.2-0.4c0-0.1,0-0.2,0.1-0.3c0.1-0.1,0.2-0.2,0.4-0.2c0.1,0,0.2,0,0.3,0.1c0.5,0.5,1.2,0.8,1.8,0.8
			c0.9,0,1.5-0.5,1.5-1.2c0-0.6-0.3-1.1-1.1-1.9c-1-0.8-1.3-1.3-1.3-2C140.3,41.5,141.3,40.7,142.7,40.3L142.7,40.3z M147,47.2
			c0,0.2-0.1,0.4-0.4,0.5c-0.1,0-0.1,0-0.2,0c-0.2,0-0.4-0.1-0.5-0.4c-0.3-1.1-0.9-2.6-1.5-3.6c0-0.1-0.1-0.1-0.1-0.2
			c0-0.2,0.1-0.3,0.3-0.4c0.1,0,0.1,0,0.2,0c0.2,0,0.3,0.1,0.4,0.2c0.6,1,1.3,2.6,1.6,3.8C147,47.1,147,47.1,147,47.2z M146.2,42.1
			c0,0.1-0.1,0.3-0.2,0.3c-0.1,0-0.1,0.1-0.2,0.1c-0.1,0-0.3-0.1-0.4-0.2c-0.2-0.3-0.5-0.8-0.7-1.1c0-0.1-0.1-0.1-0.1-0.2
			c0-0.1,0.1-0.2,0.2-0.3c0.1,0,0.2-0.1,0.2-0.1c0.1,0,0.2,0.1,0.3,0.2c0.2,0.3,0.5,0.8,0.7,1.2C146.2,41.9,146.2,42,146.2,42.1z
			 M147.4,41.4c0,0.1-0.1,0.3-0.2,0.3c-0.1,0-0.1,0-0.2,0c-0.1,0-0.3-0.1-0.4-0.2c-0.2-0.3-0.4-0.7-0.6-1c0-0.1-0.1-0.1-0.1-0.2
			c0-0.1,0.1-0.3,0.2-0.3c0.1,0,0.1-0.1,0.2-0.1c0.1,0,0.2,0,0.3,0.2c0.2,0.3,0.5,0.7,0.7,1C147.4,41.2,147.4,41.3,147.4,41.4z"/>
		<path fill="#58595B" d="M162.2,43.3c-0.2,0-0.4-0.2-0.4-0.5c0-0.3,0.1-0.5,0.4-0.5h4.5v-4c0-0.2,0.2-0.4,0.5-0.4
			c0.3,0,0.5,0.1,0.5,0.4v4h4.7c0.2,0,0.4,0.2,0.4,0.5c0,0.2-0.1,0.5-0.4,0.5h-4.7v5.4c0,0.2-0.2,0.4-0.5,0.4
			c-0.3,0-0.5-0.1-0.5-0.4v-5.4H162.2z"/>
		<path fill="#58595B" d="M180,38.6c0,0.1,0,0.1,0,0.2c-0.8,1.7-2.2,3.4-3.7,4.5c-0.1,0.1-0.2,0.1-0.3,0.1c-0.1,0-0.3,0-0.4-0.2
			c-0.1-0.1-0.1-0.2-0.1-0.3c0-0.2,0.1-0.3,0.2-0.4c1.5-1,2.7-2.5,3.4-4.2c0.1-0.2,0.2-0.3,0.4-0.3c0.1,0,0.2,0,0.2,0.1
			C179.9,38.3,180,38.5,180,38.6z M178.1,43.2c-0.2,0-0.4-0.2-0.4-0.4c0-0.3,0.1-0.4,0.4-0.4h5c0.9,0,1.2,0.3,1.2,1.1
			c0,1.7-0.2,3.3-0.5,4.2c-0.2,0.8-0.7,1.1-1.5,1.1c-0.6,0-1,0-1.4-0.2c-0.2-0.1-0.4-0.2-0.4-0.4c0,0,0-0.1,0-0.1
			c0.1-0.2,0.2-0.4,0.4-0.4c0.1,0,0.1,0,0.2,0c0.3,0.1,0.7,0.2,1,0.2c0.5,0,0.7-0.1,0.8-0.6c0.2-0.7,0.4-2.3,0.4-3.8
			c0-0.3-0.1-0.3-0.4-0.3h-2.4c-0.2,2.7-1.5,4.6-3.7,5.7c-0.1,0.1-0.2,0.1-0.3,0.1c-0.2,0-0.3-0.1-0.4-0.2c-0.1-0.1-0.1-0.2-0.1-0.3
			c0-0.2,0.1-0.3,0.2-0.4c0.7-0.4,1.4-0.9,2-1.5c0.8-1,1.2-2.1,1.2-3.4H178.1z M182.5,38.2c0.2,0,0.3,0.1,0.4,0.3
			c0.8,1.6,2,3.2,3.5,4.1c0.2,0.1,0.2,0.3,0.2,0.4c0,0.1,0,0.2-0.1,0.3c-0.1,0.2-0.3,0.2-0.4,0.2c-0.1,0-0.2,0-0.3-0.1
			c-1.6-1.1-3-2.8-3.8-4.6c0-0.1,0-0.1,0-0.2c0-0.2,0.1-0.3,0.3-0.4C182.4,38.2,182.4,38.2,182.5,38.2z"/>
		<path fill="#58595B" d="M191.8,39c0,0,0,0.1,0,0.2c-0.4,1.6-0.7,3.5-0.7,5.2c0,1.2,0.1,2.4,0.3,3.5c0,0.1,0,0.1,0,0.2
			c0,0.3-0.2,0.4-0.4,0.5c0,0-0.1,0-0.1,0c-0.2,0-0.4-0.1-0.5-0.5c-0.2-1.1-0.3-2.4-0.3-3.7c0-1.9,0.2-3.8,0.7-5.5
			c0.1-0.2,0.3-0.4,0.5-0.4c0,0,0.1,0,0.1,0C191.6,38.6,191.8,38.8,191.8,39z M194.5,44c0,0.1-0.1,0.2-0.2,0.3
			c-0.5,0.5-0.7,0.9-0.7,1.4c0,0.7,0.6,1.1,2.3,1.1c1,0,2.1-0.1,2.9-0.3c0,0,0.1,0,0.1,0c0.2,0,0.4,0.2,0.5,0.4c0,0,0,0.1,0,0.1
			c0,0.2-0.1,0.5-0.4,0.5c-0.9,0.2-1.9,0.3-3,0.3c-2.2,0-3.4-0.6-3.4-2.1c0-0.7,0.3-1.4,0.9-2c0.1-0.1,0.3-0.2,0.4-0.2
			c0.1,0,0.2,0,0.3,0.1C194.5,43.8,194.5,43.9,194.5,44z M198.6,39.9c0.3,0,0.5,0.2,0.5,0.4c0,0,0,0,0,0c0,0.3-0.1,0.5-0.5,0.5
			c-1,0.1-2.4,0.2-3.7,0.2c-0.4,0-0.9,0-1.3,0c-0.4,0-0.5-0.2-0.5-0.5c0-0.3,0.2-0.5,0.5-0.5c0,0,0,0,0,0c0.4,0,0.8,0,1.2,0
			C196.1,40,197.5,40,198.6,39.9C198.5,39.9,198.5,39.9,198.6,39.9z"/>
		<path fill="#58595B" d="M205.8,39.6c0.1,0.2,0.2,0.3,0.3,0.5c0,0.1,0.1,0.1,0.1,0.2c0,0.1-0.1,0.3-0.3,0.3c0,0-0.1,0-0.2,0
			c-0.2,0-0.3-0.1-0.4-0.2c-0.1-0.2-0.2-0.5-0.4-0.8h-0.7c-0.3,0.4-0.7,0.9-1.1,1.2c-0.1,0.1-0.2,0.2-0.3,0.2c-0.1,0-0.2,0-0.3-0.1
			c-0.1-0.1-0.1-0.2-0.1-0.3c0-0.1,0.1-0.2,0.2-0.3c0.7-0.6,1.2-1.4,1.5-2c0.1-0.2,0.2-0.2,0.4-0.2c0.1,0,0.1,0,0.2,0
			c0.2,0,0.3,0.2,0.3,0.3c0,0.1,0,0.1-0.1,0.2c0,0.1-0.1,0.2-0.2,0.3h2.7c0.2,0,0.3,0.1,0.3,0.4c0,0.2-0.1,0.4-0.3,0.4H205.8z
			 M203.9,48.8c0,0.2-0.2,0.4-0.4,0.4c-0.3,0-0.4-0.1-0.4-0.4v-7.2c0-0.5,0.4-0.8,1-0.8h2.5c0.6,0,0.9,0.2,0.9,0.8v1.6
			c0,0.6-0.3,0.8-0.9,0.8h-2.5V48.8z M206.6,41.6c0-0.2-0.1-0.3-0.3-0.3h-2c-0.2,0-0.3,0.1-0.3,0.3V42h2.6V41.6z M206.2,43.4
			c0.2,0,0.3-0.1,0.3-0.3v-0.4h-2.6v0.7H206.2z M209.4,44.5c0.6,0,0.9,0.2,0.9,0.8v2c0,0.6-0.3,0.8-0.9,0.8h-2.9
			c-0.6,0-0.9-0.2-0.9-0.8v-2c0-0.6,0.3-0.8,0.9-0.8H209.4z M209.4,46v-0.6c0-0.2-0.1-0.3-0.3-0.3h-2.4c-0.2,0-0.3,0.1-0.3,0.3V46
			H209.4z M206.4,46.6v0.6c0,0.2,0.1,0.3,0.3,0.3h2.4c0.2,0,0.3-0.1,0.3-0.3v-0.6H206.4z M208.9,39.6c-0.2,0.3-0.4,0.6-0.6,0.9
			c-0.1,0.1-0.2,0.2-0.4,0.2c-0.1,0-0.2,0-0.3-0.1c-0.1-0.1-0.2-0.2-0.2-0.3c0-0.1,0-0.2,0.1-0.3c0.5-0.5,0.9-1.3,1.1-1.8
			c0.1-0.2,0.2-0.2,0.3-0.2c0.1,0,0.1,0,0.2,0c0.2,0,0.3,0.2,0.3,0.3c0,0.1,0,0.1,0,0.2c0,0.1-0.1,0.2-0.1,0.3h3.7
			c0.2,0,0.3,0.1,0.3,0.4c0,0.2-0.1,0.4-0.3,0.4h-2.1c0.2,0.2,0.3,0.4,0.4,0.5c0,0.1,0,0.1,0,0.2c0,0.1-0.1,0.2-0.2,0.3
			c-0.1,0-0.1,0-0.2,0c-0.2,0-0.3-0.1-0.4-0.2c-0.1-0.2-0.3-0.5-0.5-0.8H208.9z M209.3,44c-0.6,0-0.9-0.2-0.9-0.8v-1.6
			c0-0.6,0.3-0.8,0.9-0.8h2.6c0.6,0,0.9,0.2,0.9,0.8v6.3c0,0.8-0.4,1.1-1.3,1.1c-0.4,0-0.7,0-1-0.1c-0.2,0-0.3-0.2-0.3-0.4
			c0,0,0-0.1,0-0.1c0-0.2,0.2-0.3,0.3-0.3c0,0,0.1,0,0.1,0c0.2,0,0.5,0.1,0.8,0.1c0.4,0,0.5-0.1,0.5-0.5V44H209.3z M211.9,41.6
			c0-0.2-0.1-0.3-0.3-0.3h-2c-0.2,0-0.3,0.1-0.3,0.3V42h2.7V41.6z M211.9,42.6h-2.7v0.4c0,0.2,0.1,0.3,0.3,0.3h2.4V42.6z"/>
		<path fill="#58595B" d="M218.4,45.1c-0.7,0-1-0.3-1-0.9v-2.9c0-0.6,0.3-0.9,1-0.9h5.2c0.5-0.6,0.9-1.4,1.1-2
			c0.1-0.2,0.2-0.2,0.4-0.2c0.1,0,0.2,0,0.2,0.1c0.2,0.1,0.3,0.2,0.3,0.3c0,0.1,0,0.1,0,0.2c-0.3,0.6-0.7,1.2-1,1.6h0.5
			c0.7,0,1,0.3,1,0.9v2.9c0,0.7-0.3,0.9-1,0.9h-3v1.1h4.7c0.2,0,0.4,0.2,0.4,0.4S227,47,226.8,47h-4.7v1.8c0,0.2-0.2,0.3-0.4,0.3
			c-0.3,0-0.4-0.1-0.4-0.3V47h-4.6c-0.2,0-0.4-0.2-0.4-0.4s0.1-0.4,0.4-0.4h4.6v-1.1H218.4z M218.3,38.2c0.1,0,0.2,0,0.3,0.2
			c0.3,0.3,0.7,0.9,0.8,1.2c0,0.1,0,0.1,0,0.2c0,0.1-0.1,0.2-0.2,0.3c-0.1,0-0.2,0.1-0.3,0.1c-0.2,0-0.3-0.1-0.4-0.2
			c-0.1-0.2-0.5-0.8-0.7-1.1c-0.1-0.1-0.1-0.2-0.1-0.2c0-0.1,0.1-0.2,0.2-0.3C218.1,38.2,218.2,38.2,218.3,38.2z M218.7,41.2
			c-0.2,0-0.3,0.1-0.3,0.3v0.9h3v-1.2H218.7z M218.3,43.1V44c0,0.2,0.1,0.3,0.3,0.3h2.6v-1.2H218.3z M221.3,38
			c0.1,0,0.2,0.1,0.3,0.2c0.3,0.4,0.5,0.9,0.7,1.3c0,0.1,0,0.1,0,0.2c0,0.2-0.1,0.3-0.2,0.3c-0.1,0-0.2,0.1-0.3,0.1
			c-0.2,0-0.3-0.1-0.3-0.2c-0.2-0.4-0.5-0.9-0.7-1.2c-0.1-0.1-0.1-0.2-0.1-0.2c0-0.1,0.1-0.2,0.3-0.3C221.1,38,221.2,38,221.3,38z
			 M225.2,42.4v-0.9c0-0.2-0.1-0.3-0.4-0.3h-2.8v1.2H225.2z M224.9,44.3c0.2,0,0.4-0.1,0.4-0.3v-0.9h-3.1v1.2H224.9z"/>
	</g>
</g>
<g display="none">
	<g display="inline">
		<path fill="#EFAA42" stroke="#FAD277" stroke-width="5.0017" stroke-miterlimit="10" d="M51.1,52.5l-23.7,0
			c-13.7,0-25-11.3-24.9-25l0,0c0-13.7,11.3-25,25-24.9l23.7,0c13.7,0,25,11.3,24.9,25v0C76.1,41.3,64.8,52.5,51.1,52.5z"/>
		<g>
			<path fill="#221E1F" d="M37.7,28.5l-9.8,0c-0.7,0-1.2,0.6-1.2,1.2c0,0.7,0.6,1.2,1.2,1.2l7.9,0c-1.2,3.4-4.8,5.9-8.4,5.9
				c-2.4,0-4.7-1-6.4-2.8c-1.7-1.8-2.6-4.2-2.6-6.7c0-2.5,0.9-4.8,2.6-6.7c1.7-1.8,4-2.8,6.4-2.8c2.7,0,5.3,1.2,6.9,3.3
				c0.4,0.5,0.7,1,1,1.5l0,0.1c0.3,0.6,0.5,1.1,1.3,1.2c0.1,0,0.1,0,0.2,0c0.4,0,0.8-0.2,1.1-0.5c0.2-0.2,0.2-0.5,0.1-0.8
				c-1.5-4.4-5.7-7.3-10.6-7.3c-3.1,0-6,1.2-8.2,3.5c-2.2,2.3-3.3,5.3-3.4,8.4c0,3.2,1.2,6.2,3.3,8.4c2.2,2.3,5.1,3.6,8.2,3.6
				c4.4,0,9.2-3.3,10.7-7.4c0.3-0.8,0.5-1.6,0.6-2.4c0-0.3-0.1-0.6-0.3-0.8C38.2,28.6,37.9,28.5,37.7,28.5z"/>
			<path fill="#221E1F" d="M60.6,19.1c-2.2-2.3-5.3-3.6-8.5-3.6c-3.2,0-6.3,1.3-8.4,3.5c-2.3,2.3-3.5,5.3-3.5,8.5
				c0,3.2,1.2,6.2,3.5,8.5c2.2,2.3,5.3,3.6,8.4,3.6c3.2,0,6.2-1.2,8.5-3.5c2.3-2.3,3.5-5.3,3.5-8.5C64.1,24.4,62.9,21.4,60.6,19.1z
				 M52.1,37.1c-2.5,0-4.9-1-6.7-2.8c-1.8-1.8-2.8-4.2-2.8-6.7c0-2.5,1-4.9,2.8-6.7c1.8-1.8,4.2-2.8,6.7-2.8c2.5,0,4.9,1,6.7,2.8
				c1.8,1.8,2.7,4.2,2.7,6.7c0,2.5-1,4.9-2.8,6.7C57.1,36.1,54.7,37.1,52.1,37.1z"/>
		</g>
	</g>
	<g display="inline">
		<g>
			<path d="M164,27.1c-2.1-5.3-4.3-9.7-6.8-13.7l-0.1-0.1c-0.4-0.4-0.8-0.5-1.3-0.5c-1.3,0.1-1.5,0.8-1.4,1.3c0,0.2,0.1,0.5,0.4,0.8
				c2,3.3,4,7.8,6.1,13.8c0.4,0.9,1.1,1,1.5,0.9c1.6-0.2,1.9-1,1.8-1.6c0-0.3-0.1-0.6-0.2-1L164,27.1z"/>
			<path d="M148.8,6.1c-0.9,0-1.4,0.5-1.4,1.4l0,24.3c0,1-0.4,1.4-1.2,1.4c-0.8,0-2.8-0.5-4.4-1c-0.5-0.1-0.8-0.2-1-0.2c0,0,0,0,0,0
				c-0.6,0.1-1.2,0.4-1.3,1.6c0,0.5,0.2,1.1,1.1,1.5c2.5,0.8,4.4,1.2,5.9,1.2c3.3,0,4-1.9,4-3.5l0-25.2
				C150.4,6.6,149.8,6.1,148.8,6.1z"/>
			<path d="M142.3,14.7c0.1-0.2,0.1-0.3,0.1-0.5c0-0.4-0.1-0.7-0.5-1.1c-0.3-0.2-0.6-0.4-1-0.4c-0.3,0-0.9,0-1.2,0.9
				c-0.9,2.9-1.9,5.6-3.1,7.9c-1.1,2.1-2.3,4-3.5,5.7c-0.2,0.2-0.4,0.5-0.4,0.9c-0.1,0.7,0.1,1.5,1.5,1.6c0.4,0,0.8-0.2,1.2-0.4
				l0.1-0.1c1.4-2,2.5-3.9,3.6-6.1c1.2-2.4,2.2-5.2,3.1-8.3L142.3,14.7z"/>
			<path d="M169.5,10.9l4.7,0l0,1.1c0,1.5,0.9,2.4,2.5,2.4l11.2,0c1.6,0,2.5-0.8,2.5-2.4l0-1.1l4.8,0c0.8,0,1.3-0.5,1.3-1.3
				c0-0.8-0.5-1.3-1.3-1.3l-4.8,0l0-1c0-0.9-0.5-1.4-1.4-1.4c-0.9,0-1.4,0.5-1.4,1.4l0,1l-10.4,0l0-1c0-0.9-0.5-1.4-1.5-1.4
				c-0.9,0-1.4,0.5-1.4,1.4l0,1l-4.7,0c-0.8,0-1.3,0.5-1.3,1.3C168.1,10.4,168.6,10.9,169.5,10.9z M177.1,11.6l0-0.7l10.4,0l0,0.7
				c0,0.5-0.2,0.5-0.2,0.5l-10,0C177.2,12,177.1,12,177.1,11.6z"/>
			<path d="M168.7,18.2l27.4,0.1c0.9,0,1.3-0.5,1.3-1.4c0-0.8-0.5-1.3-1.3-1.3l-27.4-0.1c-0.9,0-1.3,0.5-1.3,1.3
				C167.3,17.9,168.1,18.2,168.7,18.2z"/>
			<path d="M177.2,31c-0.2,0-0.5,0.1-0.7,0.3c-2.4,0.9-5.3,1.7-8.9,2.4l-0.1,0c-0.7,0.3-0.8,0.8-0.8,1.2c0,1,0.6,1.6,1.6,1.6
				c0.1,0,0.3,0,0.5-0.1c0.1,0,0.3,0,0.4-0.1c3.8-0.8,6.7-1.7,8.8-2.7l0.1,0c0.4-0.3,0.6-0.7,0.6-1.1C178.7,31.6,178.1,31,177.2,31z
				"/>
			<path d="M196.5,33.8c-3.2-0.7-6.1-1.6-8.7-2.7c0,0-0.1-0.1-0.1-0.1l4.2,0c1.6,0,2.5-0.9,2.5-2.5l0-6.7c0-1.5-0.8-2.3-2.5-2.3
				l-19.2,0c-1.6,0-2.5,0.8-2.5,2.3l0,6.7c0,1.6,0.9,2.5,2.5,2.5l13.5,0c-0.3,0.2-0.5,0.6-0.5,1.1c0,0.3,0.2,0.7,0.6,1.1l0.1,0.1
				c1.5,0.7,3,1.3,4.5,1.9c3.9,1.3,4.8,1.4,5.1,1.4c1,0,1.6-0.6,1.6-1.6C197.5,34.6,197.3,34.1,196.5,33.8z M191.4,26.4l0,1.4
				c0,0.4-0.2,0.5-0.4,0.5l-7.2,0l0-1.8L191.4,26.4z M191.4,22.6l0,1.1l-7.6,0l0-1.4l7.2,0C191.4,22.3,191.4,22.4,191.4,22.6z
				 M180.9,22.3l0,1.4l-7.8,0l0-1.1c0-0.2,0.1-0.3,0.3-0.3L180.9,22.3z M173.1,27.7l0-1.4l7.8,0l0,1.8l-7.5,0
				C173.2,28.2,173.1,28.2,173.1,27.7z"/>
		</g>
		<g>
			<path d="M125.8,36.6l-19.5,0c-1.2,0-1.8-0.5-1.8-1.6c0-0.5,0.3-1,0.8-1.8L123,10l-14.7,0c-1.3,0-1.9-0.9-1.9-1.6
				c0-0.7,0.6-1.6,1.9-1.6l17.6,0c1.3,0,1.9,0.5,1.9,1.6c0,0.5-0.3,1-0.8,1.7l-17.7,23.2l16.6,0c1.3,0,1.9,0.9,1.9,1.6
				C127.7,35.8,127.1,36.6,125.8,36.6z"/>
		</g>
		<path d="M100.1,10c0.9,0,1.6-0.7,1.6-1.6c0-0.9-0.7-1.6-1.6-1.6l-14.7,0c-0.9,0-1.6,0.7-1.6,1.6l-0.1,26.6c0,0.9,0.7,1.6,1.6,1.6
			l14.7,0c0.9,0,1.6-0.7,1.6-1.6c0-0.9-0.7-1.6-1.6-1.6l-13.1,0l0-10l8.9,0c0.9,0,1.6-0.7,1.6-1.6c0-0.9-0.7-1.6-1.6-1.6L87,20l0-10
			L100.1,10z"/>
	</g>
	<g display="inline">
		<path fill="#58595B" d="M85.7,44.6c0.5,0,0.7,0.2,0.7,0.7l0,3.4c0,0.1,0,0.1,0.1,0.1c0,0,0.1,0,0.3-0.1c0.2-0.1,0.4-0.1,0.6-0.3
			c0.1,0,0.1-0.1,0.2-0.1c0.2,0,0.3,0.1,0.4,0.4c0,0.1-0.1,0.2-0.1,0.3c-0.3,0.1-0.6,0.3-1,0.4c-0.2,0.1-0.4,0.1-0.5,0.1
			c-0.4,0-0.6-0.2-0.6-0.5l0-3.3c0-0.3-0.1-0.4-0.4-0.4l-0.8,0c-0.2,0-0.3-0.1-0.3-0.3c0-0.2,0.1-0.3,0.3-0.3L85.7,44.6z M85.4,42.4
			c0.3,0.3,0.5,0.6,0.7,0.9c0,0.1,0.1,0.2,0.1,0.2c0,0.2-0.1,0.3-0.4,0.3c-0.1,0-0.1,0-0.2-0.1c-0.2-0.3-0.5-0.6-0.8-0.9
			c0-0.1-0.1-0.1-0.1-0.2c0-0.2,0.1-0.4,0.4-0.4C85.3,42.3,85.3,42.4,85.4,42.4z M89.9,42.4l0,2.5l2.1,0c0.2,0,0.3,0.1,0.3,0.3
			c0,0.2-0.1,0.4-0.3,0.4l-2.1,0l0,3.9l2.3,0c0.2,0,0.3,0.1,0.3,0.3c0,0.2-0.1,0.4-0.3,0.4l-4.6,0c-0.2,0-0.3-0.1-0.3-0.4
			c0-0.2,0.1-0.3,0.3-0.3l1.6,0l0-7.1c0-0.2,0.1-0.3,0.3-0.3C89.7,42.1,89.9,42.2,89.9,42.4z"/>
		<path fill="#58595B" d="M99.3,42.1c0.1,0.1,0.1,0.2,0.1,0.3c0,0,0,0.1,0,0.2c-0.2,0.5-0.3,0.9-0.6,1.2l0,3.6
			c0,0.2-0.1,0.3-0.3,0.3c-0.2,0-0.3-0.1-0.3-0.3l0-2.6c-0.1,0.1-0.3,0.3-0.4,0.4c-0.1,0.1-0.2,0.1-0.2,0.1c-0.3,0-0.4-0.1-0.4-0.3
			c0-0.1,0-0.1,0.1-0.2c0.3-0.3,0.6-0.7,0.9-1.1c0.3-0.4,0.5-0.9,0.7-1.4c0-0.1,0.1-0.2,0.3-0.2C99.1,42,99.2,42,99.3,42.1z
			 M98.5,48.1c0.1,0.1,0.1,0.1,0.1,0.2c0,0.1,0,0.1,0,0.2c-0.1,0.4-0.2,0.7-0.4,0.9c-0.1,0.2-0.3,0.5-0.5,0.7
			c-0.1,0.1-0.2,0.1-0.3,0.1c-0.3,0-0.4-0.1-0.4-0.3c0-0.1,0-0.1,0.1-0.2c0.2-0.2,0.3-0.4,0.5-0.7c0.1-0.2,0.3-0.5,0.4-0.9
			c0-0.1,0.1-0.2,0.3-0.2C98.4,48,98.5,48,98.5,48.1z M101.1,42c0.1,0.1,0.1,0.1,0.1,0.2c0,0,0,0.1,0,0.2c0,0.1-0.1,0.3-0.1,0.4
			l3.9,0c0.4,0,0.6,0.2,0.6,0.6c0,0.1,0,0.2,0,0.3c0,0.2-0.1,0.4-0.2,0.7c-0.1,0.1-0.2,0.1-0.3,0.1c-0.2,0-0.4-0.1-0.4-0.3
			c0,0,0-0.1,0-0.1c0.1-0.1,0.1-0.3,0.2-0.4c0,0,0-0.1,0-0.1c0-0.1-0.1-0.2-0.2-0.2l-3.9,0c-0.1,0.1-0.1,0.2-0.2,0.3
			c-0.2,0.3-0.4,0.7-0.7,0.9c-0.1,0.1-0.2,0.1-0.3,0.1c-0.2,0-0.4-0.1-0.4-0.3c0-0.1,0-0.1,0.1-0.2c0.3-0.3,0.5-0.6,0.7-0.9
			c0.2-0.3,0.4-0.7,0.5-1.2c0-0.1,0.1-0.2,0.2-0.2C101,42,101.1,42,101.1,42z M100,47.9l0,1.2c0,0.3,0.1,0.4,0.3,0.5
			c0.2,0.1,0.7,0.1,1.3,0.1c0.6,0,1.1,0,1.3,0c0.1,0,0.3,0,0.3-0.1c0.1,0,0.1-0.2,0.1-0.5c0-0.2,0.1-0.3,0.3-0.3
			c0.2,0,0.3,0.1,0.3,0.4c0,0.2,0,0.4-0.1,0.5c-0.1,0.2-0.2,0.4-0.4,0.5c-0.2,0.1-0.8,0.1-1.7,0.1c-1,0-1.6-0.1-2-0.2
			c-0.3-0.2-0.5-0.5-0.5-1l0-1.4c0-0.2,0.1-0.3,0.3-0.3C99.9,47.5,100.1,47.7,100,47.9z M101.4,44.5c0.1,0.1,0.1,0.1,0.1,0.2
			c0,0,0,0.1,0,0.2c-0.1,0.4-0.3,0.8-0.5,1.1c-0.2,0.3-0.4,0.6-0.7,0.8c-0.1,0.1-0.2,0.1-0.3,0.1c-0.3,0-0.4-0.1-0.4-0.3
			c0-0.1,0-0.2,0.1-0.2c0.3-0.2,0.5-0.5,0.7-0.8c0.2-0.3,0.4-0.6,0.6-1c0-0.1,0.1-0.2,0.2-0.2C101.3,44.4,101.4,44.4,101.4,44.5z
			 M101.7,47.7c0.3,0.3,0.5,0.6,0.7,1c0,0.1,0,0.2,0,0.2c0,0.2-0.1,0.3-0.4,0.3c-0.1,0-0.2-0.1-0.3-0.2c-0.2-0.4-0.4-0.7-0.6-1
			c-0.1-0.1-0.1-0.2-0.1-0.2c0-0.2,0.1-0.3,0.3-0.3C101.5,47.5,101.6,47.6,101.7,47.7z M103.1,44l0,2.4c0,0.6-0.2,0.9-0.7,0.9
			c-0.3,0-0.6-0.1-1-0.2c-0.2-0.1-0.3-0.2-0.3-0.3c0-0.2,0.1-0.3,0.3-0.3c0,0,0.1,0,0.1,0c0.3,0.1,0.5,0.2,0.7,0.2
			c0.1,0,0.2-0.2,0.2-0.6l0-2.1c0-0.2,0.1-0.4,0.3-0.4C103,43.6,103.1,43.7,103.1,44z M104.4,44.6c0.3,0.6,0.6,1.2,0.9,1.9
			c0,0.1,0,0.2,0,0.3c0,0.2-0.1,0.3-0.4,0.3c-0.1,0-0.2-0.1-0.3-0.3c-0.2-0.8-0.5-1.4-0.8-1.9c-0.1-0.1-0.1-0.2-0.1-0.2
			c0-0.2,0.1-0.3,0.3-0.3C104.3,44.5,104.3,44.6,104.4,44.6z M104.6,47.9c0.4,0.5,0.7,1.1,1,1.7c0,0.1,0,0.2,0,0.3
			c0,0.2-0.1,0.3-0.4,0.3c-0.1,0-0.2-0.1-0.3-0.3c-0.3-0.7-0.6-1.3-1-1.7c-0.1-0.1-0.1-0.2-0.1-0.2c0-0.2,0.1-0.3,0.4-0.3
			C104.4,47.7,104.5,47.8,104.6,47.9z"/>
		<path fill="#58595B" d="M113.6,43.4c0,0.2-0.1,0.3-0.3,0.3l-1.5,0c0,0.4,0,0.8,0,1.2l0.9,0c0.4,0,0.7,0.2,0.7,0.6
			c0,1.5-0.1,2.6-0.1,3.5c-0.1,0.6-0.2,0.9-0.3,1.1c-0.2,0.2-0.4,0.3-0.7,0.3c-0.1,0-0.3,0-0.5-0.1c-0.2-0.1-0.3-0.2-0.3-0.3
			c0-0.2,0.1-0.4,0.3-0.4c0.2,0.1,0.4,0.1,0.4,0.1c0.1,0,0.3-0.1,0.3-0.2c0.1-0.2,0.1-0.5,0.2-0.8c0.1-0.5,0.1-1.5,0.1-3
			c0-0.2-0.1-0.3-0.2-0.3l-0.7,0c0,0.5-0.1,0.9-0.1,1.4c-0.2,1.3-0.5,2.4-0.9,3.4c-0.1,0.1-0.2,0.1-0.3,0.1c-0.3,0-0.4-0.1-0.4-0.4
			c0,0,0-0.1,0.1-0.2c0.4-0.9,0.7-2,0.8-3.2c0.1-0.9,0.2-1.9,0.2-3l-0.5,0c-0.2,0-0.3-0.1-0.3-0.3c0-0.2,0.1-0.3,0.3-0.3l1,0
			c-0.1-0.1-0.1-0.3-0.2-0.4c-0.1-0.1-0.1-0.1-0.1-0.2c0-0.2,0.1-0.4,0.4-0.4c0.1,0,0.1,0,0.2,0.1c0.1,0.2,0.2,0.4,0.3,0.7
			c0,0.1,0.1,0.2,0.1,0.2l0.9,0C113.5,43.1,113.6,43.2,113.6,43.4z M115,42.2c0,0.3-0.1,0.5-0.1,0.7l3.3,0c0.2,0,0.3,0.1,0.3,0.3
			c0,0.2-0.1,0.3-0.3,0.3l-3.5,0c0,0,0,0,0,0.1c-0.2,0.5-0.4,0.9-0.7,1.2c-0.1,0.1-0.3,0.2-0.4,0.2c-0.3,0-0.4-0.1-0.4-0.4
			c0,0,0-0.1,0.1-0.2c0.3-0.3,0.6-0.7,0.7-1c0.1-0.3,0.2-0.7,0.3-1.2c0-0.2,0.1-0.3,0.3-0.3C114.9,41.9,115,42,115,42.2z
			 M118.1,44.5c0,0.2-0.1,0.3-0.4,0.4c-0.5,0.1-1,0.2-1.4,0.3c0.1,0.7,0.2,1.2,0.4,1.7c0.4-0.3,0.8-0.7,1.1-0.9
			c0.1-0.1,0.2-0.1,0.3-0.1c0.2,0,0.3,0.1,0.3,0.3c0,0.1,0,0.2-0.1,0.3c-0.4,0.4-0.8,0.7-1.3,1c0.1,0.3,0.2,0.5,0.4,0.8
			c0.2,0.5,0.6,1,1.2,1.7c0.1,0.1,0.2,0.2,0.2,0.3c0,0.2-0.1,0.3-0.3,0.3c-0.1,0-0.2,0-0.3-0.1c-0.5-0.5-0.8-0.9-1.1-1.5
			c-0.3-0.4-0.5-1-0.7-1.7c-0.2-0.5-0.3-1.2-0.4-2c-0.2,0-0.4,0-0.5,0c-0.1,0-0.2,0.1-0.2,0.3l0,4.1c0,0.1,0.1,0.1,0.2,0.1
			c0,0,0.1,0,0.3-0.1c0.2-0.1,0.4-0.2,0.7-0.3c0.1,0,0.1-0.1,0.2-0.1c0.2,0,0.3,0.1,0.4,0.4c0,0.1-0.1,0.2-0.1,0.3
			c-0.3,0.2-0.7,0.3-1.1,0.4c-0.2,0.1-0.4,0.1-0.6,0.1c-0.4,0-0.6-0.2-0.6-0.6l0-4.6c0-0.2,0.1-0.4,0.2-0.5c0.1-0.1,0.3-0.1,0.5-0.1
			c0.9,0,1.8-0.2,2.8-0.5C118,44.2,118.1,44.3,118.1,44.5z"/>
		<path fill="#58595B" d="M124.6,46.4c0.3,0,0.5,0.2,0.5,0.5l0,1.7c0,0.3,0.1,0.6,0.5,0.8c0.4,0.3,0.9,0.4,1.5,0.4l4.3,0
			c0.2,0,0.3,0.1,0.3,0.3c0,0.2-0.1,0.3-0.3,0.3l-4.1,0c-0.5,0-1-0.1-1.4-0.2c-0.4-0.1-0.7-0.3-1-0.6l-0.1-0.1c0,0-0.1,0-0.1,0.1
			c-0.2,0.3-0.5,0.5-0.7,0.7c-0.1,0.1-0.2,0.1-0.3,0.1c-0.2,0-0.4-0.1-0.4-0.3c0-0.1,0.1-0.2,0.2-0.3c0.3-0.2,0.5-0.3,0.6-0.5
			c0.1-0.1,0.2-0.4,0.2-0.8l0-1.4c0-0.1,0-0.1-0.1-0.1l-0.6,0c-0.2,0-0.3-0.1-0.3-0.3c0-0.2,0.1-0.3,0.3-0.3L124.6,46.4z
			 M123.9,44.2c0.3,0.2,0.5,0.4,0.8,0.6c0.1,0.1,0.1,0.2,0.1,0.3c0,0.2-0.1,0.3-0.3,0.3c-0.1,0-0.2,0-0.3-0.1
			c-0.2-0.2-0.5-0.4-0.7-0.6c-0.1-0.1-0.2-0.2-0.2-0.3c0-0.2,0.1-0.3,0.4-0.3C123.7,44.2,123.8,44.2,123.9,44.2z M124.3,42.4
			c0.3,0.2,0.5,0.4,0.7,0.6c0.1,0.1,0.1,0.2,0.1,0.3c0,0.2-0.1,0.3-0.3,0.3c-0.1,0-0.2,0-0.3-0.1c-0.2-0.2-0.4-0.4-0.7-0.6
			c-0.1-0.1-0.2-0.2-0.2-0.3c0-0.2,0.1-0.3,0.4-0.3C124.1,42.4,124.2,42.4,124.3,42.4z M127.3,42.5l0,0.7l0.9,0
			c0.2,0,0.3,0.1,0.3,0.3c0,0.2-0.1,0.3-0.3,0.3l-1.4,0l0,0.9l0.8,0c0.4,0,0.6,0.2,0.6,0.6c0,1.2-0.1,2.1-0.1,2.8
			c-0.1,0.4-0.2,0.8-0.3,0.9c-0.1,0.2-0.4,0.3-0.7,0.2c-0.1,0-0.4-0.1-0.6-0.2c-0.1,0-0.2-0.2-0.2-0.3c0-0.2,0.1-0.3,0.3-0.3
			c0.3,0.1,0.4,0.2,0.5,0.2c0.1,0,0.2-0.1,0.3-0.2c0.1-0.1,0.1-0.3,0.1-0.6c0-0.4,0.1-1.2,0.1-2.3c0-0.1-0.1-0.2-0.2-0.2l-0.6,0
			c0,0.6-0.1,1.1-0.2,1.6c-0.2,0.6-0.4,1.2-0.6,1.6c-0.1,0.1-0.2,0.2-0.3,0.2c-0.3,0-0.4-0.1-0.4-0.3c0-0.1,0-0.1,0.1-0.2
			c0.4-0.7,0.6-1.3,0.7-2c0.1-0.5,0.2-1.1,0.2-1.6l0-0.8l-0.5,0c-0.2,0-0.3-0.1-0.3-0.3c0-0.2,0.1-0.3,0.3-0.3l1,0l0-0.7
			c0-0.2,0.1-0.3,0.3-0.3C127.2,42.2,127.3,42.3,127.3,42.5z M129.9,42.3c0.1,0.1,0.1,0.1,0.1,0.2c0,0.1,0,0.1,0,0.2
			c-0.1,0.2-0.1,0.4-0.2,0.5l1.6,0c0.2,0,0.3,0.1,0.3,0.3c0,0.2-0.1,0.3-0.3,0.3l-1.9,0c-0.1,0.1-0.2,0.3-0.3,0.4
			c-0.1,0.2-0.3,0.4-0.5,0.5c-0.1,0.1-0.1,0.1-0.2,0.1c-0.1,0-0.2,0-0.2-0.1c-0.1-0.1-0.1-0.1-0.1-0.2c0-0.1,0-0.1,0.1-0.2
			c0.1-0.1,0.3-0.3,0.4-0.4c0.1-0.2,0.3-0.4,0.4-0.6c0.1-0.2,0.2-0.5,0.3-0.8c0-0.1,0.1-0.2,0.3-0.2
			C129.8,42.2,129.8,42.2,129.9,42.3z M131.6,47c0,0.2-0.1,0.3-0.3,0.3l-0.7,0c0.1,0.3,0.1,0.7,0.1,1c0,0.2-0.1,0.4-0.2,0.7
			c-0.1,0.2-0.2,0.3-0.4,0.4c-0.1,0.1-0.3,0.1-0.5,0.1c-0.2,0-0.4,0-0.7-0.1c-0.2-0.1-0.3-0.2-0.3-0.3c0-0.2,0.1-0.3,0.3-0.3
			c0.3,0.1,0.5,0.2,0.6,0.2c0.1,0,0.1,0,0.2-0.1c0.1,0,0.1-0.1,0.2-0.2c0-0.1,0.1-0.2,0.1-0.3c0-0.4,0-0.7-0.1-1l-1.2,0
			c-0.2,0-0.3-0.1-0.3-0.3c0-0.2,0.1-0.3,0.3-0.3l1,0c0-0.1-0.1-0.1-0.1-0.2c-0.1-0.2-0.3-0.3-0.5-0.5c-0.1,0-0.1-0.1-0.1-0.1
			c0-0.2,0.1-0.3,0.3-0.3c0.1,0,0.1,0,0.2,0.1c0.1,0.1,0.1,0.1,0.2,0.2c0,0,0,0,0.1,0c0.2-0.1,0.3-0.2,0.4-0.3
			c0.1-0.1,0.2-0.2,0.3-0.3c0.1-0.1,0.1-0.1,0.1-0.2c0,0,0,0-0.1,0l-1.3,0c-0.2,0-0.3-0.1-0.3-0.3c0-0.2,0.1-0.3,0.3-0.3l1.8,0
			c0.3,0,0.4,0.1,0.4,0.3c0,0.1,0,0.2-0.1,0.3c-0.1,0.2-0.3,0.4-0.5,0.6c-0.2,0.2-0.4,0.4-0.6,0.5c0.1,0.1,0.2,0.3,0.2,0.4l0.9,0
			C131.5,46.7,131.6,46.8,131.6,47z"/>
		<path fill="#58595B" d="M139.1,42.8c0,0.2-0.1,0.3-0.3,0.3l-0.7,0l0,2.1l0.6,0c0.2,0,0.3,0.1,0.3,0.3c0,0.2-0.1,0.3-0.3,0.3
			l-0.6,0l0,2.4c0.2-0.1,0.5-0.3,0.8-0.6l0.1,0c0.2,0,0.3,0.1,0.3,0.4c0,0.1-0.1,0.2-0.1,0.3c-0.3,0.2-0.6,0.5-1,0.7
			c-0.5,0.3-1,0.5-1.5,0.7c-0.1,0-0.1,0.1-0.2,0.1c-0.2,0-0.3-0.1-0.3-0.4c0-0.2,0.1-0.3,0.3-0.4c0.4-0.1,0.7-0.3,0.9-0.4l0-2.8
			l-0.7,0c-0.2,0-0.3-0.1-0.3-0.3c0-0.2,0.1-0.3,0.3-0.3l0.7,0l0-2.1l-0.7,0c-0.2,0-0.3-0.1-0.3-0.3c0-0.2,0.1-0.3,0.3-0.3l2.1,0
			C139,42.5,139.1,42.6,139.1,42.8z M141.3,45.5l0,1.6c0,0.5-0.1,0.9-0.2,1.3c-0.1,0.4-0.3,0.8-0.6,1.2c-0.3,0.3-0.7,0.7-1.2,1
			c-0.1,0.1-0.2,0.1-0.2,0.1c-0.2,0-0.3-0.1-0.3-0.4c0-0.1,0.1-0.3,0.2-0.3c0.5-0.3,0.8-0.6,1.1-0.9c0.2-0.3,0.4-0.6,0.5-0.9
			c0.1-0.3,0.1-0.7,0.1-1l0-1.6l-1.1,0c-0.2,0-0.3-0.1-0.3-0.3c0-0.2,0.1-0.3,0.3-0.3l4.7,0c0.2,0,0.3,0.1,0.3,0.3
			c0,0.2-0.1,0.3-0.3,0.3l-1.2,0l0,3.9c0,0.1,0,0.3,0.1,0.3c0.1,0.1,0.2,0.1,0.5,0.1c0.3,0,0.5,0,0.5-0.1c0.1-0.1,0.1-0.2,0.1-0.3
			l0-0.7c0-0.2,0.1-0.4,0.3-0.4c0.2,0,0.3,0.2,0.3,0.4c0,0.7,0,1.1-0.1,1.2c0,0.1-0.1,0.2-0.3,0.3c-0.1,0.1-0.5,0.1-0.9,0.1
			c-0.5,0-0.8-0.1-1-0.2c-0.1-0.1-0.2-0.4-0.2-0.7l0-4L141.3,45.5z M144.2,42.7c0,0.2-0.1,0.3-0.3,0.3l-3.8,0
			c-0.2,0-0.3-0.1-0.3-0.3c0-0.2,0.1-0.3,0.3-0.3l3.8,0C144.1,42.4,144.2,42.5,144.2,42.7z"/>
		<path fill="#58595B" d="M152.1,47.4c0,0,0,0.1-0.1,0.2c-0.6,0.9-1.2,1.6-1.9,2.2c-0.1,0.1-0.2,0.1-0.3,0.1c-0.2,0-0.3-0.1-0.3-0.3
			c0,0,0-0.1,0.1-0.2c0.7-0.6,1.3-1.2,1.8-2c0.1-0.2,0.2-0.3,0.4-0.3C152,47,152.1,47.2,152.1,47.4z M154.2,44.1l0,1.8l2.9,0
			c0.2,0,0.4,0.1,0.4,0.3c0,0.2-0.1,0.3-0.4,0.3l-2.9,0l0,3c0,0.7-0.4,1.1-1.2,1.1c-0.4,0-0.9-0.1-1.5-0.2c-0.2-0.1-0.3-0.2-0.3-0.3
			c0-0.2,0.1-0.3,0.3-0.4c0,0,0.1,0,0.2,0c0.6,0.1,1,0.1,1.2,0.1c0.3,0,0.5-0.2,0.5-0.6l0-2.7l-2.9,0c-0.4,0-0.6-0.2-0.6-0.6
			c0-0.1,0.2-1,0.5-2.6c0-0.2,0.2-0.4,0.4-0.4c0,0,0,0,0.1,0c0,0,0,0,0,0c1.1,0,2.1-0.1,2.9-0.1c0.8,0,1.6-0.1,2.7-0.3l0.1,0
			c0.2,0,0.3,0.1,0.3,0.3c0,0.2-0.1,0.3-0.3,0.3c-1.1,0.2-2,0.3-2.9,0.3c-0.7,0.1-1.6,0.1-2.7,0.1c-0.3,1.3-0.4,2-0.4,2.1
			c0,0.1,0.1,0.2,0.2,0.2l2.6,0l0-1.8c0-0.2,0.1-0.3,0.3-0.3C154.1,43.7,154.2,43.8,154.2,44.1z M155.7,47.3c0.4,0.4,0.8,0.7,1,1
			c0.3,0.3,0.6,0.7,0.9,1.1c0,0.1,0,0.2,0,0.3c0,0.2-0.1,0.3-0.3,0.3c-0.1,0-0.2,0-0.3-0.1c-0.3-0.4-0.6-0.8-0.8-1.1
			c-0.3-0.3-0.6-0.6-1-1c-0.1-0.1-0.1-0.2-0.1-0.3c0-0.1,0.1-0.2,0.3-0.3C155.5,47.3,155.6,47.3,155.7,47.3z"/>
		<path fill="#58595B" d="M163.6,42.2c0.1,0.1,0.1,0.1,0.1,0.2c0,0,0,0.1,0,0.2c0,0.2-0.1,0.3-0.1,0.5l2.1,0c0.4,0,0.7,0.2,0.7,0.6
			c0,2.1-0.1,3.7-0.2,4.9c-0.1,0.8-0.2,1.3-0.4,1.6c-0.2,0.3-0.5,0.4-0.9,0.4c-0.2,0-0.5-0.1-0.9-0.2c-0.2-0.1-0.3-0.2-0.3-0.3
			c0-0.2,0.1-0.4,0.3-0.4c0.4,0.1,0.7,0.2,0.8,0.2c0.2,0,0.4-0.1,0.5-0.3c0.1-0.3,0.2-0.7,0.2-1.2c0.1-0.8,0.1-2.3,0.1-4.5
			c0-0.1-0.1-0.2-0.2-0.2l-2.1,0c0,0,0,0.1-0.1,0.1c-0.2,0.3-0.3,0.6-0.5,0.9c-0.1,0.1-0.2,0.1-0.2,0.1c-0.2,0-0.4-0.1-0.4-0.3
			c0-0.1,0-0.1,0.1-0.2c0.2-0.3,0.4-0.5,0.5-0.9c0.2-0.3,0.3-0.7,0.4-1.1c0-0.1,0.1-0.2,0.2-0.2C163.5,42.1,163.6,42.2,163.6,42.2z
			 M164.6,44.7c0.4,0,0.6,0.2,0.6,0.6l0,3c0,0.4-0.2,0.6-0.6,0.6l-1.1,0c-0.4,0-0.6-0.2-0.6-0.6l0-3c0-0.4,0.2-0.5,0.6-0.5
			L164.6,44.7z M164.6,48l0-2.4c0-0.2-0.1-0.3-0.3-0.3l-0.5,0c-0.2,0-0.3,0.1-0.3,0.3l0,2.4c0,0.2,0.1,0.3,0.3,0.3l0.5,0
			C164.5,48.3,164.6,48.2,164.6,48z M168.3,48.3c0.1,0.1,0.3,0.2,0.4,0.3c0.2,0.1,0.3,0.3,0.5,0.4c0,0,0,0,0,0
			c0.2-0.3,0.4-0.6,0.6-0.9c0.1-0.3,0.2-0.6,0.2-0.9c0-0.1,0-0.1-0.1-0.1l-1.3,0c0,0-0.1,0-0.1,0c-0.1,0.1-0.3,0.3-0.4,0.4
			c-0.3,0.3-0.7,0.6-1.2,0.8c-0.1,0-0.1,0-0.1,0c-0.2,0-0.3-0.1-0.3-0.3c0-0.1,0.1-0.2,0.2-0.3c0.5-0.3,0.9-0.5,1.2-0.8
			c0.2-0.2,0.4-0.5,0.6-0.9c0.1-0.1,0.2-0.1,0.3-0.1c0.2,0,0.3,0.1,0.3,0.3c0,0.1,0,0.2-0.1,0.3c0,0,0,0,0,0.1l1.2,0
			c0.4,0,0.7,0.2,0.7,0.6c0,0.3-0.1,0.7-0.2,1c-0.2,0.5-0.4,0.9-0.7,1.2c-0.4,0.4-0.8,0.7-1.2,0.9c-0.6,0.3-1.3,0.4-2,0.5
			c-0.3,0-0.4-0.1-0.4-0.3c0-0.2,0.1-0.3,0.3-0.3c0.6,0,1-0.1,1.4-0.2c0.3-0.1,0.6-0.2,0.8-0.4c0,0,0,0-0.1,0
			c-0.2-0.2-0.3-0.3-0.4-0.4c-0.1-0.1-0.2-0.2-0.3-0.2c-0.1-0.1-0.1-0.2-0.1-0.3c0-0.2,0.1-0.3,0.3-0.3
			C168.2,48.2,168.2,48.2,168.3,48.3z M167.9,44.1c0.1,0.1,0.2,0.2,0.3,0.3c0.1,0.1,0.3,0.3,0.4,0.4c0,0,0,0,0,0c0,0,0.1,0,0.1-0.1
			c0.3-0.3,0.6-0.7,0.8-1.1c0.1-0.1,0.1-0.2,0.1-0.3c0,0,0-0.1-0.1-0.1l-1.7,0c-0.1,0.1-0.1,0.2-0.2,0.3c-0.2,0.2-0.4,0.5-0.7,0.7
			c0,0-0.1,0-0.1,0c-0.2,0-0.3-0.1-0.3-0.3c0-0.1,0.1-0.2,0.2-0.3c0.3-0.2,0.5-0.4,0.6-0.7c0.1-0.2,0.2-0.4,0.3-0.7
			c0.1-0.1,0.2-0.1,0.3-0.1c0.2,0,0.3,0.1,0.3,0.3c0,0.1,0,0.2-0.1,0.3l1.9,0c0.4,0,0.5,0.2,0.5,0.5c0,0.1-0.1,0.3-0.2,0.5
			c-0.3,0.5-0.5,0.9-0.8,1.2c-0.3,0.3-0.6,0.6-1,0.8c-0.5,0.3-0.9,0.6-1.3,0.7c-0.2,0.1-0.3,0.1-0.3,0.1c-0.3,0-0.4-0.1-0.4-0.4
			c0-0.1,0.1-0.3,0.3-0.3c0.4-0.1,0.7-0.3,1-0.4c0.2-0.1,0.3-0.2,0.4-0.3c0,0,0,0-0.1,0c-0.1-0.2-0.3-0.3-0.3-0.4
			c-0.1-0.1-0.2-0.2-0.3-0.2c-0.1-0.1-0.1-0.2-0.1-0.3c0-0.2,0.1-0.3,0.3-0.3C167.8,44,167.8,44.1,167.9,44.1z"/>
		<path fill="#58595B" d="M177.3,42.3c0.1,0.1,0.1,0.1,0.1,0.2c0,0,0,0.1,0,0.2c0,0,0,0.1,0,0.1l2.1,0c0.2,0,0.3,0.1,0.3,0.3
			c0,0.2-0.1,0.3-0.3,0.3l-1.1,0c0.1,0.1,0.2,0.3,0.3,0.4c0,0.1,0,0.1,0,0.2c0,0.2-0.1,0.3-0.4,0.3c-0.1,0-0.2-0.1-0.3-0.2
			c-0.1-0.3-0.2-0.5-0.3-0.6c0,0,0-0.1-0.1-0.1l-0.7,0c-0.1,0.1-0.2,0.3-0.4,0.4c-0.1,0.1-0.3,0.3-0.5,0.3c-0.1,0-0.1,0.1-0.2,0.1
			c-0.1,0-0.2,0-0.2-0.1c-0.1-0.1-0.1-0.2-0.1-0.3c0-0.1,0-0.1,0.1-0.2c0.2-0.1,0.3-0.2,0.5-0.3c0.1-0.1,0.3-0.3,0.4-0.4
			c0.1-0.1,0.2-0.3,0.3-0.5c0-0.1,0.1-0.2,0.3-0.2C177.2,42.2,177.2,42.2,177.3,42.3z M176.6,45.8l0,4.6c0,0.2-0.1,0.3-0.3,0.3
			c-0.2,0-0.3-0.1-0.3-0.3l0-4.6c0-0.2,0.1-0.3,0.3-0.3C176.5,45.4,176.6,45.5,176.6,45.8z M176.7,44.3c0.3,0.2,0.6,0.4,0.9,0.7
			c0,0.1,0.1,0.2,0.1,0.2c0,0.2-0.1,0.3-0.4,0.3c-0.1,0-0.1,0-0.2-0.1c-0.3-0.2-0.6-0.5-0.9-0.7c0-0.1-0.1-0.1-0.1-0.2
			c0-0.2,0.1-0.4,0.4-0.4C176.5,44.2,176.6,44.2,176.7,44.3z M180.9,45.9c0.4,0,0.7,0.2,0.7,0.6l0,2.5c0,0.4-0.2,0.6-0.7,0.6l-2.6,0
			c-0.4,0-0.6-0.2-0.6-0.6l0-2.5c0-0.4,0.2-0.6,0.6-0.6L180.9,45.9z M182.7,44.5c0.4,0,0.6,0.2,0.6,0.6l0,4.7c0,0.5-0.3,0.8-0.9,0.8
			c-0.3,0-0.7-0.1-1.1-0.2c-0.1-0.1-0.2-0.2-0.3-0.3c0-0.2,0.1-0.4,0.3-0.4c0,0,0,0,0.1,0c0.3,0.1,0.5,0.1,0.8,0.1
			c0.3,0,0.4-0.1,0.4-0.4l0-4.2c0-0.1-0.1-0.2-0.2-0.2l-4,0c-0.2,0-0.3-0.1-0.3-0.3s0.1-0.3,0.3-0.3L182.7,44.5z M180.9,46.7
			c0-0.2-0.1-0.3-0.3-0.3l-2.1,0c-0.2,0-0.3,0.1-0.3,0.3l0,0.7l2.7,0L180.9,46.7z M178.2,48.7c0,0.2,0.1,0.3,0.3,0.3l2.1,0
			c0.2,0,0.3-0.1,0.3-0.3l0-0.8l-2.7,0L178.2,48.7z M181,42.3c0.1,0.1,0.1,0.1,0.1,0.2c0,0,0,0.1,0,0.2c0,0,0,0.1,0,0.1l2.5,0
			c0.2,0,0.3,0.1,0.3,0.3c0,0.2-0.1,0.3-0.3,0.3l-1.4,0c0.1,0.1,0.2,0.3,0.3,0.5c0,0.1,0,0.1,0,0.2c0,0.2-0.1,0.3-0.4,0.3
			c-0.1,0-0.2-0.1-0.3-0.2c-0.1-0.3-0.2-0.5-0.4-0.7c0,0-0.1-0.1-0.1-0.1l-0.7,0c-0.1,0.1-0.2,0.2-0.3,0.3c-0.1,0.1-0.3,0.2-0.4,0.3
			c-0.1,0.1-0.1,0.1-0.2,0.1c-0.1,0-0.1,0-0.2-0.1c-0.1-0.1-0.1-0.1-0.1-0.2c0-0.1,0-0.1,0.1-0.2c0.1-0.1,0.3-0.2,0.4-0.3
			c0.1-0.1,0.2-0.2,0.3-0.4c0.1-0.1,0.2-0.3,0.2-0.5c0-0.1,0.2-0.2,0.3-0.2C180.8,42.2,180.9,42.2,181,42.3z"/>
		<path fill="#58595B" d="M190.6,43.6c-0.2-0.3-0.4-0.6-0.5-0.9c-0.1-0.1-0.1-0.1-0.1-0.2c0-0.2,0.1-0.3,0.4-0.3
			c0.1,0,0.1,0,0.2,0.1c0.2,0.3,0.4,0.6,0.6,1c0,0.1,0.1,0.2,0.1,0.2l0,0l2.6,0c0,0,0-0.1,0-0.1c0.2-0.3,0.5-0.7,0.7-1.2
			c0-0.1,0.1-0.1,0.3-0.1c0.1,0,0.2,0,0.3,0.1c0.1,0.1,0.1,0.1,0.1,0.2c0,0.1,0,0.1,0,0.2c-0.2,0.4-0.4,0.7-0.6,1l1,0
			c0.4,0,0.6,0.2,0.6,0.6l0,2.7c0,0.4-0.2,0.6-0.6,0.6l-2.5,0l0,0.8l3.5,0c0.2,0,0.3,0.1,0.3,0.3c0,0.2-0.1,0.3-0.3,0.3l-3.5,0
			l0,1.4c0,0.2-0.1,0.3-0.4,0.3c-0.2,0-0.3-0.1-0.3-0.3l0-1.4l-3.6,0c-0.2,0-0.3-0.1-0.3-0.3c0-0.2,0.1-0.3,0.3-0.3l3.6,0l0-0.8
			l-2.5,0c-0.4,0-0.6-0.2-0.6-0.6l0-2.7c0-0.4,0.2-0.6,0.6-0.6L190.6,43.6z M192.3,45.3l0-1l-2.2,0c-0.1,0-0.2,0.1-0.2,0.2l0,0.8
			L192.3,45.3z M192.3,45.8l-2.4,0l0,0.8c0,0.2,0.1,0.3,0.2,0.3l2.2,0L192.3,45.8z M193,45.3l2.5,0l0-0.8c0-0.1-0.1-0.2-0.2-0.2
			l-2.3,0L193,45.3z M195.5,46.6l0-0.8l-2.5,0l0,1.1l2.3,0C195.4,46.9,195.5,46.8,195.5,46.6z"/>
	</g>
</g>
<g>
	<g>
		<path fill="#EFAA42" stroke="#FAD277" stroke-width="5.0017" stroke-miterlimit="10" d="M51.1,52.5l-23.7,0
			c-13.7,0-25-11.3-24.9-25l0,0c0-13.7,11.3-25,25-24.9l23.7,0c13.7,0,25,11.3,24.9,25v0C76.1,41.3,64.9,52.5,51.1,52.5z"/>
		<g>
			<path fill="#221E1F" d="M37.7,28.5l-9.8,0c-0.7,0-1.2,0.6-1.2,1.2c0,0.7,0.6,1.2,1.2,1.2l7.9,0c-1.2,3.4-4.8,5.9-8.4,5.9
				c-2.4,0-4.7-1-6.4-2.8c-1.7-1.8-2.6-4.2-2.6-6.7c0-2.5,0.9-4.8,2.6-6.7c1.7-1.8,4-2.8,6.4-2.8c2.7,0,5.3,1.2,6.9,3.3
				c0.4,0.5,0.7,1,1,1.5l0,0.1c0.3,0.6,0.5,1.1,1.3,1.2c0.1,0,0.1,0,0.2,0c0.4,0,0.8-0.2,1.1-0.5c0.2-0.2,0.2-0.5,0.1-0.8
				c-1.5-4.4-5.7-7.3-10.6-7.3c-3.1,0-6,1.2-8.2,3.5c-2.2,2.3-3.3,5.3-3.4,8.4c0,3.2,1.2,6.2,3.3,8.4c2.2,2.3,5.1,3.6,8.2,3.6
				c4.4,0,9.2-3.3,10.7-7.4c0.3-0.8,0.5-1.6,0.6-2.4c0-0.3-0.1-0.6-0.3-0.8C38.2,28.6,37.9,28.5,37.7,28.5z"/>
			<path fill="#221E1F" d="M60.6,19.1c-2.2-2.3-5.3-3.6-8.5-3.6c-3.2,0-6.3,1.3-8.4,3.5c-2.3,2.3-3.5,5.3-3.5,8.5
				c0,3.2,1.2,6.2,3.5,8.5c2.2,2.3,5.3,3.6,8.4,3.6c3.2,0,6.2-1.2,8.5-3.5c2.3-2.3,3.5-5.3,3.5-8.5C64.1,24.4,62.9,21.4,60.6,19.1z
				 M52.1,37.1c-2.5,0-4.9-1-6.7-2.8c-1.8-1.8-2.8-4.2-2.8-6.7c0-2.5,1-4.9,2.8-6.7c1.8-1.8,4.2-2.8,6.7-2.8c2.5,0,4.9,1,6.7,2.8
				c1.8,1.8,2.7,4.2,2.7,6.7c0,2.5-1,4.9-2.8,6.7C57.1,36.1,54.7,37.1,52.1,37.1z"/>
		</g>
	</g>
	<g>
		<g>
			<path d="M164,27.1c-2.1-5.3-4.3-9.7-6.8-13.7l-0.1-0.1c-0.4-0.4-0.8-0.5-1.3-0.5c-1.3,0.1-1.5,0.8-1.4,1.3c0,0.2,0.1,0.5,0.4,0.8
				c2,3.3,4,7.8,6.1,13.8c0.4,0.9,1.1,1,1.5,0.9c1.6-0.2,1.9-1,1.8-1.6c0-0.3-0.1-0.6-0.2-1L164,27.1z"/>
			<path d="M148.8,6.1c-0.9,0-1.4,0.5-1.4,1.4l0,24.3c0,1-0.4,1.4-1.2,1.4c-0.8,0-2.8-0.5-4.4-1c-0.5-0.1-0.8-0.2-1-0.2c0,0,0,0,0,0
				c-0.6,0.1-1.2,0.4-1.3,1.6c0,0.5,0.2,1.1,1.1,1.5c2.5,0.8,4.4,1.2,5.9,1.2c3.3,0,4-1.9,4-3.5l0-25.2
				C150.4,6.6,149.8,6.1,148.8,6.1z"/>
			<path d="M142.3,14.7c0.1-0.2,0.1-0.3,0.1-0.5c0-0.4-0.1-0.7-0.5-1.1c-0.3-0.2-0.6-0.4-1-0.4c-0.3,0-0.9,0-1.2,0.9
				c-0.9,2.9-1.9,5.6-3.1,7.9c-1.1,2.1-2.3,4-3.5,5.7c-0.2,0.2-0.4,0.5-0.4,0.9c-0.1,0.7,0.1,1.5,1.5,1.6c0.4,0,0.8-0.2,1.2-0.4
				l0.1-0.1c1.4-2,2.5-3.9,3.6-6.1c1.2-2.4,2.2-5.2,3.1-8.3L142.3,14.7z"/>
			<path d="M169.5,10.9l4.7,0l0,1.1c0,1.5,0.9,2.4,2.5,2.4l11.2,0c1.6,0,2.5-0.8,2.5-2.4l0-1.1l4.8,0c0.8,0,1.3-0.5,1.3-1.3
				c0-0.8-0.5-1.3-1.3-1.3l-4.8,0l0-1c0-0.9-0.5-1.4-1.4-1.4c-0.9,0-1.4,0.5-1.4,1.4l0,1l-10.4,0l0-1c0-0.9-0.5-1.4-1.5-1.4
				c-0.9,0-1.4,0.5-1.4,1.4l0,1l-4.7,0c-0.8,0-1.3,0.5-1.3,1.3C168.1,10.4,168.6,10.9,169.5,10.9z M177.1,11.6l0-0.7l10.4,0l0,0.7
				c0,0.5-0.2,0.5-0.2,0.5l-10,0C177.2,12,177.1,12,177.1,11.6z"/>
			<path d="M168.7,18.2l27.4,0.1c0.9,0,1.3-0.5,1.3-1.4c0-0.8-0.5-1.3-1.3-1.3l-27.4-0.1c-0.9,0-1.3,0.5-1.3,1.3
				C167.3,17.9,168.1,18.2,168.7,18.2z"/>
			<path d="M177.2,31c-0.2,0-0.5,0.1-0.7,0.3c-2.4,0.9-5.3,1.7-8.9,2.4l-0.1,0c-0.7,0.3-0.8,0.8-0.8,1.2c0,1,0.6,1.6,1.6,1.6
				c0.1,0,0.3,0,0.5-0.1c0.1,0,0.3,0,0.4-0.1c3.8-0.8,6.7-1.7,8.8-2.7l0.1,0c0.4-0.3,0.6-0.7,0.6-1.1C178.7,31.6,178.1,31,177.2,31z
				"/>
			<path d="M196.5,33.8c-3.2-0.7-6.1-1.6-8.7-2.7c0,0-0.1-0.1-0.1-0.1l4.2,0c1.6,0,2.5-0.9,2.5-2.5l0-6.7c0-1.5-0.8-2.3-2.5-2.3
				l-19.2,0c-1.6,0-2.5,0.8-2.5,2.3l0,6.7c0,1.6,0.9,2.5,2.5,2.5l13.5,0c-0.3,0.2-0.5,0.6-0.5,1.1c0,0.3,0.2,0.7,0.6,1.1l0.1,0.1
				c1.5,0.7,3,1.3,4.5,1.9c3.9,1.3,4.8,1.4,5.1,1.4c1,0,1.6-0.6,1.6-1.6C197.5,34.6,197.3,34.1,196.5,33.8z M191.4,26.4l0,1.4
				c0,0.4-0.2,0.5-0.4,0.5l-7.2,0l0-1.8L191.4,26.4z M191.4,22.6l0,1.1l-7.6,0l0-1.4l7.2,0C191.4,22.3,191.4,22.4,191.4,22.6z
				 M180.9,22.3l0,1.4l-7.8,0l0-1.1c0-0.2,0.1-0.3,0.3-0.3L180.9,22.3z M173.1,27.7l0-1.4l7.8,0l0,1.8l-7.5,0
				C173.2,28.2,173.1,28.2,173.1,27.7z"/>
		</g>
		<g>
			<path d="M125.8,36.6l-19.5,0c-1.2,0-1.8-0.5-1.8-1.6c0-0.5,0.3-1,0.8-1.8L123,10l-14.7,0c-1.3,0-1.9-0.9-1.9-1.6
				c0-0.7,0.6-1.6,1.9-1.6l17.6,0c1.3,0,1.9,0.5,1.9,1.6c0,0.5-0.3,1-0.8,1.7l-17.7,23.2l16.6,0c1.3,0,1.9,0.9,1.9,1.6
				C127.7,35.8,127.1,36.6,125.8,36.6z"/>
		</g>
		<path d="M100.1,10c0.9,0,1.6-0.7,1.6-1.6c0-0.9-0.7-1.6-1.6-1.6l-14.7,0c-0.9,0-1.6,0.7-1.6,1.6l-0.1,26.6c0,0.9,0.7,1.6,1.6,1.6
			l14.7,0c0.9,0,1.6-0.7,1.6-1.6c0-0.9-0.7-1.6-1.6-1.6l-13.1,0l0-10l8.9,0c0.9,0,1.6-0.7,1.6-1.6c0-0.9-0.7-1.6-1.6-1.6L87,20l0-10
			L100.1,10z"/>
	</g>
	<g>
		<path fill="#58595B" d="M86.8,43.9c0,0.2-0.1,0.3-0.3,0.3l-2,0c-0.2,0-0.3-0.1-0.3-0.3c0-0.2,0.1-0.3,0.3-0.3l2,0
			C86.7,43.6,86.8,43.7,86.8,43.9z M86.6,45.1c0,0.2-0.1,0.3-0.3,0.3l-1.6,0c-0.2,0-0.3-0.1-0.3-0.3c0-0.2,0.1-0.3,0.3-0.3l1.6,0
			C86.5,44.8,86.6,44.9,86.6,45.1z M86.6,46.5c0,0.2-0.1,0.3-0.3,0.3l-1.6,0c-0.2,0-0.3-0.1-0.3-0.3c0-0.2,0.1-0.3,0.3-0.3l1.6,0
			C86.5,46.2,86.6,46.3,86.6,46.5z M86,47.4c0.4,0,0.6,0.2,0.6,0.5l0,1.8c0,0.4-0.2,0.5-0.6,0.5l-1.1,0c-0.4,0-0.5-0.2-0.5-0.5
			l0-1.8c0-0.4,0.2-0.5,0.5-0.5L86,47.4z M86.6,42.6c0,0.2-0.1,0.3-0.3,0.3l-1.5,0c-0.2,0-0.3-0.1-0.3-0.3c0-0.2,0.1-0.3,0.3-0.3
			l1.5,0C86.5,42.3,86.6,42.4,86.6,42.6z M86,49.5l0-1.3c0-0.1-0.1-0.2-0.2-0.2l-0.5,0c-0.1,0-0.2,0.1-0.2,0.2l0,1.3
			c0,0.1,0.1,0.2,0.2,0.2l0.5,0C85.9,49.7,86,49.7,86,49.5z M89.1,43.4c0.3,0,0.4,0.1,0.4,0.3l0,0.8c0,0.2-0.1,0.4-0.4,0.4l-0.1,0
			l0,0.5l1.4,0l0-0.5l-0.1,0c-0.2,0-0.4-0.1-0.4-0.4l0-0.8c0-0.2,0.1-0.3,0.4-0.3l1.7,0c0.3,0,0.4,0.1,0.4,0.3l0,0.8
			c0,0.2-0.1,0.4-0.4,0.4l-1,0l0,0.5l1.2,0c0.2,0,0.3,0.1,0.3,0.3c0,0.2-0.1,0.3-0.3,0.3L91,46l0,0.4l1,0c0.2,0,0.3,0.1,0.3,0.3
			c0,0.2-0.1,0.3-0.3,0.3l-1,0l0,0.4l1.4,0c0.2,0,0.3,0.1,0.3,0.3c0,0.2-0.1,0.3-0.3,0.3l-2.1,0c0.2,0.4,0.4,0.7,0.6,0.9
			c0.4-0.2,0.7-0.4,1-0.6c0.1-0.1,0.1-0.1,0.2-0.1c0.2,0,0.3,0.1,0.3,0.3c0,0.1,0,0.2-0.1,0.3c-0.3,0.2-0.6,0.4-1,0.6
			c0.3,0.2,0.7,0.4,1.2,0.6c0.1,0,0.1,0,0.2,0.1c0.1,0,0.1,0.1,0.1,0.2c0,0.1,0,0.2-0.1,0.3c-0.1,0-0.1,0.1-0.3,0.1
			c-0.3,0-0.6-0.1-1-0.3c-0.4-0.2-0.7-0.4-0.9-0.7c-0.3-0.3-0.6-0.8-0.9-1.4l-0.4,0c-0.1,0.2-0.2,0.3-0.3,0.4
			c-0.1,0.1-0.1,0.1-0.2,0.2l0,1c0.3-0.1,0.6-0.1,0.8-0.2c0,0,0.1,0,0.1,0c0.2,0,0.2,0.1,0.3,0.3c0,0.1-0.1,0.2-0.2,0.3
			c-0.3,0.1-0.7,0.2-1.1,0.3c-0.4,0.1-0.8,0.2-1.3,0.2c-0.2,0-0.3-0.1-0.3-0.3c0-0.2,0.1-0.3,0.3-0.3c0.3,0,0.6-0.1,0.8-0.1
			c0,0,0,0,0,0l0-0.7c-0.3,0.1-0.5,0.2-0.8,0.3c-0.1,0-0.2,0-0.2,0c-0.1,0-0.1,0-0.2-0.1c0-0.1-0.1-0.1-0.1-0.2
			c0-0.1,0.1-0.2,0.2-0.3c0.3-0.1,0.6-0.2,0.9-0.3c0.2-0.1,0.3-0.2,0.5-0.3c0,0,0,0,0,0l-1.4,0c-0.2,0-0.3-0.1-0.3-0.3
			c0-0.2,0.1-0.3,0.3-0.3l1.3,0l0-0.4l-0.9,0c-0.2,0-0.3-0.1-0.3-0.3c0-0.2,0.1-0.3,0.3-0.3l0.9,0l0-0.4l-1.2,0
			c-0.2,0-0.3-0.1-0.3-0.3c0-0.2,0.1-0.3,0.3-0.3l1.2,0l0-0.5l-0.9,0c-0.2,0-0.4-0.1-0.4-0.4l0-0.8c0-0.2,0.1-0.3,0.4-0.3L89.1,43.4
			z M90,42.4l0,0.2l2.2,0c0.2,0,0.3,0.1,0.3,0.3c0,0.2-0.1,0.3-0.3,0.3l-5.1,0c-0.2,0-0.3-0.1-0.3-0.3c0-0.2,0.1-0.3,0.3-0.3l2.1,0
			l0-0.2c0-0.2,0.1-0.4,0.4-0.4S90,42.1,90,42.4z M89,44.3l0-0.3c0-0.1,0-0.1-0.1-0.1l-1.1,0c-0.1,0-0.1,0-0.1,0.1l0,0.3
			c0,0.1,0,0.1,0.1,0.1l1.1,0C88.9,44.4,89,44.4,89,44.3z M90.4,46L89,46l0,0.4l1.4,0L90.4,46z M90.4,47.3l0-0.4l-1.4,0l0,0.4
			L90.4,47.3z M91.8,44.3l0-0.3c0-0.1,0-0.1-0.1-0.1l-1.2,0c-0.1,0-0.1,0-0.1,0.1l0,0.3c0,0.1,0,0.1,0.1,0.1l1.2,0
			C91.8,44.4,91.8,44.4,91.8,44.3z"/>
		<path fill="#58595B" d="M99.1,42.1c0.1,0.1,0.1,0.2,0.1,0.3c0,0,0,0.1,0,0.2c-0.1,0.5-0.3,0.9-0.5,1.2l0,3.6
			c0,0.2-0.1,0.3-0.3,0.3c-0.2,0-0.3-0.1-0.3-0.3l0-2.6c-0.1,0.1-0.3,0.3-0.4,0.4c-0.1,0.1-0.2,0.1-0.2,0.1c-0.2,0-0.4-0.1-0.4-0.3
			c0-0.1,0-0.1,0.1-0.2c0.3-0.3,0.6-0.7,0.9-1.1c0.3-0.4,0.5-0.9,0.7-1.4c0-0.1,0.1-0.2,0.3-0.2C99,42,99.1,42,99.1,42.1z
			 M98.5,48.1c0.1,0.1,0.1,0.1,0.1,0.2c0,0.1,0,0.1,0,0.2c-0.1,0.4-0.2,0.7-0.4,0.9c-0.1,0.2-0.3,0.5-0.5,0.7
			c-0.1,0.1-0.2,0.1-0.3,0.1c-0.3,0-0.4-0.1-0.4-0.3c0-0.1,0-0.1,0.1-0.2c0.2-0.2,0.3-0.4,0.5-0.7c0.1-0.2,0.3-0.5,0.4-0.9
			c0-0.1,0.1-0.2,0.3-0.2C98.4,48,98.5,48,98.5,48.1z M101,42c0.1,0.1,0.1,0.1,0.1,0.2c0,0,0,0.1,0,0.2c0,0.1-0.1,0.3-0.1,0.4l4,0
			c0.4,0,0.6,0.2,0.6,0.6c0,0.1,0,0.2,0,0.3c0,0.2-0.1,0.4-0.2,0.7c-0.1,0.1-0.2,0.1-0.3,0.1c-0.2,0-0.4-0.1-0.4-0.3
			c0,0,0-0.1,0-0.1c0.1-0.1,0.1-0.3,0.2-0.4c0,0,0-0.1,0-0.1c0-0.1-0.1-0.2-0.2-0.2l-3.9,0c0,0-0.1,0-0.1,0
			c-0.1,0.1-0.1,0.2-0.2,0.3c-0.2,0.3-0.4,0.7-0.7,0.9c-0.1,0.1-0.2,0.1-0.3,0.1c-0.2,0-0.4-0.1-0.4-0.3c0-0.1,0-0.1,0.1-0.2
			c0.2-0.3,0.5-0.6,0.7-0.9c0.2-0.3,0.4-0.7,0.5-1.2c0-0.1,0.1-0.2,0.2-0.2C100.8,42,100.9,42,101,42z M100.1,47.9l0,1.2
			c0,0.3,0.1,0.4,0.3,0.5c0.2,0.1,0.7,0.1,1.3,0.1c0.6,0,1.1,0,1.3,0c0.1,0,0.3,0,0.3-0.1c0.1,0,0.1-0.2,0.1-0.5
			c0-0.2,0.1-0.3,0.3-0.3c0.2,0,0.3,0.1,0.3,0.4c0,0.2,0,0.4-0.1,0.5c-0.1,0.2-0.2,0.4-0.4,0.5c-0.2,0.1-0.8,0.1-1.7,0.1
			c-1,0-1.6-0.1-2-0.2c-0.3-0.2-0.5-0.5-0.5-1l0-1.4c0-0.2,0.1-0.3,0.3-0.3C99.9,47.5,100.1,47.7,100.1,47.9z M101.4,44.1
			c0.1,0.1,0.1,0.1,0.1,0.2c0,0,0,0.1,0,0.2c-0.1,0.5-0.3,0.9-0.5,1.3c-0.2,0.4-0.4,0.7-0.7,1c-0.1,0.1-0.2,0.1-0.3,0.1
			c-0.3,0-0.4-0.1-0.4-0.3c0-0.1,0-0.2,0.1-0.2c0.3-0.3,0.5-0.6,0.7-0.9c0.2-0.4,0.4-0.8,0.6-1.2c0-0.1,0.1-0.2,0.2-0.2
			C101.3,44.1,101.4,44.1,101.4,44.1z M101.7,47.7c0.3,0.3,0.5,0.6,0.7,1c0,0.1,0,0.2,0,0.2c0,0.2-0.1,0.3-0.4,0.3
			c-0.1,0-0.2-0.1-0.3-0.2c-0.2-0.4-0.4-0.7-0.6-1c-0.1-0.1-0.1-0.2-0.1-0.2c0-0.2,0.1-0.3,0.3-0.3
			C101.5,47.5,101.6,47.6,101.7,47.7z M103.1,44.1l0,2.4c0,0.6-0.2,0.9-0.7,0.9c-0.3,0-0.6-0.1-1-0.2c-0.2-0.1-0.3-0.2-0.3-0.3
			c0-0.2,0.1-0.3,0.3-0.3c0,0,0.1,0,0.1,0c0.3,0.1,0.5,0.2,0.7,0.2c0.1,0,0.2-0.2,0.2-0.6l0-2c0-0.2,0.1-0.4,0.3-0.4
			C103,43.7,103.1,43.8,103.1,44.1z M104.4,44.3c0.3,0.7,0.6,1.4,0.9,2.3c0,0.1,0,0.2,0,0.3c0,0.2-0.1,0.3-0.4,0.3
			c-0.1,0-0.2-0.1-0.3-0.3c-0.2-0.9-0.5-1.7-0.8-2.2c-0.1-0.1-0.1-0.2-0.1-0.2c0-0.2,0.1-0.3,0.3-0.3
			C104.3,44.1,104.3,44.2,104.4,44.3z M104.6,47.9c0.4,0.5,0.7,1.1,1,1.7c0,0.1,0,0.2,0,0.3c0,0.2-0.1,0.3-0.4,0.3
			c-0.1,0-0.2-0.1-0.3-0.3c-0.3-0.7-0.6-1.3-1-1.7c-0.1-0.1-0.1-0.2-0.1-0.2c0-0.2,0.1-0.3,0.4-0.3
			C104.4,47.7,104.5,47.8,104.6,47.9z"/>
		<path fill="#58595B" d="M112.4,42.3l0,0.8l0.9,0c0.2,0,0.3,0.1,0.3,0.3c0,0.2-0.1,0.3-0.3,0.3l-1.5,0c0,0.4,0,0.8,0,1.2l0.9,0
			c0.4,0,0.7,0.2,0.7,0.6c0,1.5-0.1,2.6-0.1,3.5c-0.1,0.6-0.2,0.9-0.3,1.1c-0.2,0.2-0.4,0.3-0.7,0.3c-0.1,0-0.3,0-0.5-0.1
			c-0.2-0.1-0.3-0.2-0.3-0.3c0-0.2,0.1-0.4,0.3-0.4c0.2,0.1,0.4,0.1,0.4,0.1c0.1,0,0.3-0.1,0.3-0.2c0.1-0.2,0.1-0.5,0.2-0.8
			c0.1-0.5,0.1-1.5,0.1-3c0-0.2-0.1-0.3-0.2-0.3l-0.7,0c0,0.5-0.1,0.9-0.1,1.4c-0.2,1.3-0.5,2.4-0.9,3.4c-0.1,0.1-0.2,0.1-0.3,0.1
			c-0.3,0-0.4-0.1-0.4-0.4c0,0,0-0.1,0.1-0.2c0.4-0.9,0.7-2,0.8-3.2c0.1-0.9,0.2-1.9,0.2-3l-0.5,0c-0.2,0-0.3-0.1-0.3-0.3
			c0-0.2,0.1-0.3,0.3-0.3l1,0l0-0.8c0-0.2,0.1-0.3,0.3-0.3C112.3,42,112.4,42.1,112.4,42.3z M115,42.2c0,0.3-0.1,0.5-0.1,0.7l3.3,0
			c0.2,0,0.3,0.1,0.3,0.3c0,0.2-0.1,0.3-0.3,0.3l-3.5,0c0,0,0,0,0,0.1c-0.2,0.5-0.4,0.9-0.7,1.2c-0.1,0.1-0.3,0.2-0.4,0.2
			c-0.3,0-0.4-0.1-0.4-0.4c0,0,0-0.1,0.1-0.2c0.3-0.3,0.6-0.7,0.7-1c0.1-0.3,0.2-0.7,0.3-1.2c0-0.2,0.1-0.3,0.3-0.3
			C114.9,41.9,115,42,115,42.2z M118.1,44.5c0,0.2-0.1,0.3-0.4,0.4c-0.5,0.1-1,0.2-1.4,0.3c0.1,0.7,0.2,1.2,0.4,1.7
			c0.4-0.3,0.8-0.7,1.1-0.9c0.1-0.1,0.2-0.1,0.3-0.1c0.2,0,0.3,0.1,0.3,0.3c0,0.1,0,0.2-0.1,0.3c-0.4,0.4-0.8,0.7-1.3,1
			c0.1,0.3,0.2,0.5,0.4,0.8c0.2,0.5,0.6,1,1.2,1.7c0.1,0.1,0.2,0.2,0.2,0.3c0,0.2-0.1,0.3-0.3,0.3c-0.1,0-0.2,0-0.3-0.1
			c-0.5-0.5-0.8-0.9-1.1-1.5c-0.3-0.4-0.5-1-0.7-1.7c-0.2-0.5-0.3-1.2-0.4-2c-0.2,0-0.4,0-0.5,0c-0.1,0-0.2,0.1-0.2,0.3l0,3.9
			c0.3-0.1,0.6-0.3,1-0.6l0.1,0c0.2,0,0.3,0.1,0.3,0.4c0,0.1,0,0.2-0.1,0.2c-0.2,0.2-0.5,0.4-0.9,0.6c-0.5,0.3-0.9,0.4-1.3,0.6
			c-0.1,0-0.1,0-0.2,0c-0.2,0-0.3-0.1-0.3-0.3c0-0.2,0.1-0.3,0.3-0.4c0.2-0.1,0.3-0.1,0.5-0.2c0,0,0,0,0-0.1l0-4.3
			c0-0.2,0.1-0.4,0.2-0.5c0.1-0.1,0.3-0.1,0.5-0.1c0.9,0,1.8-0.2,2.8-0.5C118,44.2,118.1,44.3,118.1,44.5z"/>
		<path fill="#58595B" d="M124.6,46.4c0.3,0,0.5,0.2,0.5,0.5l0,1.7c0,0.3,0.1,0.6,0.5,0.8c0.4,0.3,0.9,0.4,1.5,0.4l4.3,0
			c0.2,0,0.3,0.1,0.3,0.3c0,0.2-0.1,0.3-0.3,0.3l-4.1,0c-0.5,0-1-0.1-1.4-0.2c-0.4-0.1-0.7-0.3-1-0.6l-0.1-0.1c0,0-0.1,0-0.1,0.1
			c-0.2,0.3-0.5,0.5-0.7,0.7c-0.1,0.1-0.2,0.1-0.3,0.1c-0.2,0-0.4-0.1-0.4-0.3c0-0.1,0.1-0.2,0.2-0.3c0.3-0.2,0.5-0.3,0.6-0.5
			c0.1-0.1,0.2-0.4,0.2-0.8l0-1.4c0-0.1,0-0.1-0.1-0.1l-0.6,0c-0.2,0-0.3-0.1-0.3-0.3c0-0.2,0.1-0.3,0.3-0.3L124.6,46.4z
			 M123.9,44.2c0.3,0.2,0.5,0.4,0.8,0.6c0.1,0.1,0.1,0.2,0.1,0.3c0,0.2-0.1,0.3-0.3,0.3c-0.1,0-0.2,0-0.3-0.1
			c-0.2-0.2-0.5-0.4-0.7-0.6c-0.1-0.1-0.2-0.2-0.2-0.3c0-0.2,0.1-0.3,0.4-0.3C123.8,44.2,123.8,44.2,123.9,44.2z M124.3,42.4
			c0.3,0.2,0.5,0.4,0.7,0.6c0.1,0.1,0.1,0.2,0.1,0.3c0,0.2-0.1,0.3-0.3,0.3c-0.1,0-0.2,0-0.3-0.1c-0.2-0.2-0.4-0.4-0.7-0.6
			c-0.1-0.1-0.2-0.2-0.2-0.3c0-0.2,0.1-0.3,0.4-0.3C124.1,42.4,124.2,42.4,124.3,42.4z M127.3,42.5l0,0.7l0.9,0
			c0.2,0,0.3,0.1,0.3,0.3c0,0.2-0.1,0.3-0.3,0.3l-1.4,0l0,0.9l0.8,0c0.4,0,0.6,0.2,0.6,0.6c0,1.2-0.1,2.1-0.1,2.8
			c-0.1,0.4-0.2,0.8-0.3,0.9c-0.1,0.2-0.4,0.3-0.7,0.2c-0.1,0-0.4-0.1-0.6-0.2c-0.1,0-0.2-0.2-0.2-0.3c0-0.2,0.1-0.3,0.3-0.3
			c0.3,0.1,0.4,0.2,0.5,0.2c0.1,0,0.2-0.1,0.3-0.2c0.1-0.1,0.1-0.3,0.1-0.6c0-0.4,0.1-1.2,0.1-2.3c0-0.1-0.1-0.2-0.2-0.2l-0.6,0
			c0,0.6-0.1,1.1-0.2,1.6c-0.2,0.6-0.4,1.2-0.6,1.6c-0.1,0.1-0.2,0.2-0.3,0.2c-0.3,0-0.4-0.1-0.4-0.3c0-0.1,0-0.1,0.1-0.2
			c0.4-0.7,0.6-1.3,0.7-2c0.1-0.5,0.2-1.1,0.2-1.6l0-0.8l-0.5,0c-0.2,0-0.3-0.1-0.3-0.3c0-0.2,0.1-0.3,0.3-0.3l1,0l0-0.7
			c0-0.2,0.1-0.3,0.3-0.3C127.2,42.2,127.3,42.3,127.3,42.5z M129.9,42.3c0.1,0.1,0.1,0.1,0.1,0.2c0,0.1,0,0.1,0,0.2
			c-0.1,0.2-0.1,0.4-0.2,0.5l1.6,0c0.2,0,0.3,0.1,0.3,0.3c0,0.2-0.1,0.3-0.3,0.3l-1.9,0c-0.1,0.1-0.2,0.3-0.3,0.4
			c-0.1,0.2-0.3,0.4-0.5,0.5c-0.1,0.1-0.1,0.1-0.2,0.1c-0.1,0-0.2,0-0.2-0.1c-0.1-0.1-0.1-0.1-0.1-0.2c0-0.1,0-0.1,0.1-0.2
			c0.1-0.1,0.3-0.3,0.4-0.4c0.1-0.2,0.3-0.4,0.4-0.6c0.1-0.2,0.2-0.5,0.3-0.8c0-0.1,0.1-0.2,0.3-0.2
			C129.8,42.2,129.8,42.2,129.9,42.3z M131.6,47c0,0.2-0.1,0.3-0.3,0.3l-0.7,0c0.1,0.3,0.1,0.7,0.1,1c0,0.2-0.1,0.4-0.2,0.7
			c-0.1,0.2-0.2,0.3-0.4,0.4c-0.1,0.1-0.3,0.1-0.5,0.1c-0.2,0-0.4,0-0.7-0.1c-0.2-0.1-0.3-0.2-0.3-0.3c0-0.2,0.1-0.3,0.3-0.3
			c0.3,0.1,0.5,0.2,0.6,0.2c0.1,0,0.1,0,0.2-0.1c0.1,0,0.1-0.1,0.2-0.2c0-0.1,0.1-0.2,0.1-0.3c0-0.4,0-0.7-0.1-1l-1.2,0
			c-0.2,0-0.3-0.1-0.3-0.3c0-0.2,0.1-0.3,0.3-0.3l1,0c0-0.1-0.1-0.1-0.1-0.2c-0.1-0.2-0.3-0.3-0.5-0.5c-0.1,0-0.1-0.1-0.1-0.1
			c0-0.2,0.1-0.3,0.3-0.3c0.1,0,0.1,0,0.2,0.1c0.1,0.1,0.1,0.1,0.2,0.2c0,0,0,0,0.1,0c0.2-0.1,0.3-0.2,0.4-0.3
			c0.1-0.1,0.2-0.2,0.3-0.3c0.1-0.1,0.1-0.1,0.1-0.2c0,0,0,0-0.1,0l-1.3,0c-0.2,0-0.3-0.1-0.3-0.3c0-0.2,0.1-0.3,0.3-0.3l1.8,0
			c0.3,0,0.4,0.1,0.4,0.3c0,0.1,0,0.2-0.1,0.3c-0.1,0.2-0.3,0.4-0.5,0.6c-0.2,0.2-0.4,0.4-0.6,0.5c0.1,0.1,0.2,0.3,0.2,0.4l0.9,0
			C131.5,46.7,131.6,46.8,131.6,47z"/>
		<path fill="#58595B" d="M139.1,42.8c0,0.2-0.1,0.3-0.3,0.3l-0.7,0l0,2.1l0.6,0c0.2,0,0.3,0.1,0.3,0.3c0,0.2-0.1,0.3-0.3,0.3
			l-0.6,0l0,2.4c0.2-0.1,0.5-0.3,0.8-0.6l0.1,0c0.2,0,0.3,0.1,0.3,0.4c0,0.1-0.1,0.2-0.1,0.3c-0.3,0.2-0.6,0.5-1,0.7
			c-0.5,0.3-1,0.5-1.5,0.7c-0.1,0-0.1,0.1-0.2,0.1c-0.2,0-0.3-0.1-0.3-0.4c0-0.2,0.1-0.3,0.3-0.4c0.4-0.1,0.7-0.3,0.9-0.4l0-2.8
			l-0.7,0c-0.2,0-0.3-0.1-0.3-0.3c0-0.2,0.1-0.3,0.3-0.3l0.7,0l0-2.1l-0.7,0c-0.2,0-0.3-0.1-0.3-0.3c0-0.2,0.1-0.3,0.3-0.3l2.1,0
			C139,42.5,139.1,42.6,139.1,42.8z M141.3,45.5l0,1.6c0,0.5-0.1,0.9-0.2,1.3c-0.1,0.4-0.3,0.8-0.6,1.2c-0.3,0.3-0.7,0.7-1.2,1
			c-0.1,0.1-0.2,0.1-0.2,0.1c-0.2,0-0.3-0.1-0.3-0.4c0-0.1,0.1-0.3,0.2-0.3c0.5-0.3,0.8-0.6,1.1-0.9c0.2-0.3,0.4-0.6,0.5-0.9
			c0.1-0.3,0.1-0.7,0.1-1l0-1.6l-1.1,0c-0.2,0-0.3-0.1-0.3-0.3c0-0.2,0.1-0.3,0.3-0.3l4.7,0c0.2,0,0.3,0.1,0.3,0.3
			c0,0.2-0.1,0.3-0.3,0.3l-1.2,0l0,3.9c0,0.1,0,0.3,0.1,0.3c0.1,0.1,0.2,0.1,0.5,0.1c0.3,0,0.5,0,0.5-0.1c0.1-0.1,0.1-0.2,0.1-0.3
			l0-0.7c0-0.2,0.1-0.4,0.3-0.4c0.2,0,0.3,0.2,0.3,0.4c0,0.7,0,1.1-0.1,1.2c0,0.1-0.1,0.2-0.3,0.3c-0.1,0.1-0.5,0.1-0.9,0.1
			c-0.5,0-0.8-0.1-1-0.2c-0.1-0.1-0.2-0.4-0.2-0.7l0-4L141.3,45.5z M144.2,42.7c0,0.2-0.1,0.3-0.3,0.3l-3.8,0
			c-0.2,0-0.3-0.1-0.3-0.3c0-0.2,0.1-0.3,0.3-0.3l3.8,0C144.1,42.4,144.2,42.5,144.2,42.7z"/>
		<path fill="#58595B" d="M151.1,42.3c0.1,0.1,0.1,0.1,0.1,0.2c0,0,0,0.1,0,0.1c-0.3,0.6-0.5,1-0.8,1.4c0.2,0.1,0.3,0.3,0.5,0.4
			c0.2-0.4,0.4-0.8,0.6-1.2c0-0.1,0.1-0.1,0.2-0.1c0.1,0,0.2,0,0.3,0.1c0.1,0.1,0.1,0.1,0.1,0.2c0,0,0,0.1,0,0.1
			c-0.4,1-0.9,1.8-1.4,2.6l0.8-0.2c0-0.1-0.1-0.2-0.1-0.3c-0.1-0.1-0.1-0.1-0.1-0.2c0-0.2,0.1-0.3,0.3-0.3c0,0,0.1,0,0.1,0.1
			c0.2,0.3,0.4,0.7,0.6,1.2c0,0.1,0,0.1,0,0.2c0,0.2-0.1,0.3-0.3,0.3c-0.1,0-0.1,0-0.1,0c-0.1-0.1-0.1-0.3-0.2-0.4c0,0-0.1,0-0.1,0
			l-1.8,0.4c-0.2,0-0.3-0.1-0.3-0.3c0-0.2,0.1-0.3,0.3-0.3l0,0c0,0,0-0.1,0-0.1c0.3-0.4,0.5-0.8,0.8-1.2c-0.3-0.3-0.7-0.6-1.1-0.9
			c-0.1-0.1-0.1-0.1-0.1-0.2c0-0.2,0.1-0.3,0.3-0.3c0.1,0,0.1,0,0.2,0.1c0,0,0,0,0,0c0.2-0.4,0.5-0.8,0.7-1.4c0-0.1,0.1-0.1,0.2-0.1
			C150.9,42.3,151,42.3,151.1,42.3z M153.8,42.2c0.1,0.1,0.1,0.1,0.1,0.2c0,0.1,0,0.1-0.1,0.2c-0.1,0.1-0.1,0.3-0.2,0.4c0,0,0,0,0,0
			l0.6,0c0.3,0,0.5,0.2,0.5,0.5l0,2.7c0,0.3-0.2,0.5-0.5,0.5l-0.4,0l0,0.7l3.4,0c0.2,0,0.3,0.1,0.3,0.3c0,0.2-0.1,0.3-0.3,0.3
			l-3.2,0c0.4,0.3,0.8,0.5,1.3,0.7c0.8,0.4,1.4,0.6,2,0.8c0.2,0.1,0.3,0.2,0.3,0.4c0,0.1,0,0.2-0.1,0.2c-0.1,0.1-0.2,0.1-0.3,0.1
			c-0.1,0-0.2,0-0.4-0.1c-0.5-0.2-1.1-0.5-1.6-0.7c-0.5-0.3-1-0.6-1.5-0.9l0,1.7c0,0.2-0.1,0.3-0.4,0.3c-0.2,0-0.3-0.1-0.3-0.3
			l0-1.7c-0.3,0.3-0.7,0.5-1,0.7c-0.5,0.3-1.2,0.6-2,1c-0.1,0-0.2,0-0.2,0c-0.2,0-0.3-0.1-0.3-0.4c0-0.2,0.1-0.3,0.3-0.3
			c0.9-0.3,1.6-0.6,2.2-0.9c0.4-0.2,0.7-0.4,1-0.6l-3,0c-0.2,0-0.3-0.1-0.3-0.3c0-0.2,0.1-0.3,0.3-0.3l3.2,0l0-0.7l-0.4,0
			c-0.3,0-0.5-0.2-0.5-0.5l0-2.7c0-0.3,0.2-0.5,0.5-0.5l0.2,0c0-0.1,0.1-0.1,0.1-0.2c0.1-0.2,0.2-0.4,0.3-0.6
			c0.1-0.1,0.2-0.1,0.3-0.1C153.6,42.2,153.7,42.2,153.8,42.2z M154.1,44.6l0-0.8c0-0.1-0.1-0.2-0.2-0.2l-0.9,0
			c-0.1,0-0.2,0.1-0.2,0.2l0,0.8L154.1,44.6z M154.1,46l0-0.8l-1.3,0l0,0.8c0,0.2,0.1,0.3,0.2,0.3l0.9,0
			C154,46.2,154.1,46.1,154.1,46z M156.4,42.4c0.1,0.1,0.1,0.1,0.1,0.2c0,0,0,0.1,0,0.1c-0.3,0.5-0.5,1-0.9,1.4
			c0.2,0.2,0.4,0.3,0.5,0.5c0.2-0.4,0.4-0.8,0.6-1.2c0-0.1,0.1-0.1,0.2-0.1c0.1,0,0.2,0,0.3,0.1c0.1,0.1,0.1,0.1,0.1,0.2
			c0,0,0,0.1,0,0.1c-0.5,0.9-1,1.7-1.5,2.4l0.9-0.2c0,0-0.1-0.1-0.1-0.1c0-0.1-0.1-0.1-0.1-0.1c0-0.2,0.1-0.3,0.3-0.3
			c0,0,0.1,0,0.1,0.1c0.2,0.3,0.4,0.7,0.6,1.1c0,0.1,0,0.1,0,0.2c0,0.2-0.1,0.3-0.3,0.3c0,0-0.1,0-0.1,0c-0.1-0.1-0.1-0.3-0.2-0.4
			c0,0-0.1,0-0.1,0l-1.8,0.3c-0.2,0-0.3-0.1-0.3-0.3c0-0.2,0.1-0.3,0.3-0.3c0.3-0.3,0.5-0.7,0.8-1.1c-0.3-0.3-0.6-0.6-1-0.9
			c-0.1-0.1-0.1-0.1-0.1-0.2c0-0.2,0.1-0.3,0.3-0.3c0,0,0.1,0,0.1,0.1c0.2-0.4,0.4-0.8,0.7-1.4c0-0.1,0.1-0.1,0.2-0.1
			C156.3,42.3,156.3,42.3,156.4,42.4z"/>
		<path fill="#58595B" d="M162.8,44.6C162.8,44.6,162.8,44.6,162.8,44.6c-0.3,0-0.4-0.1-0.4-0.3c0-0.1,0.1-0.2,0.2-0.3
			c0.3-0.2,0.5-0.5,0.7-0.8c0.1-0.2,0.2-0.5,0.4-0.9c0.1-0.1,0.2-0.1,0.3-0.1c0.2,0,0.3,0.1,0.3,0.3c0,0.1,0,0.2-0.1,0.3
			c0,0.1,0,0.1-0.1,0.1l1.6,0c0.3,0,0.5,0.2,0.5,0.4c0,0.1-0.1,0.3-0.2,0.5c-0.2,0.4-0.5,0.8-0.8,1.1c-0.2,0.3-0.5,0.5-0.9,0.8
			c-0.4,0.3-0.9,0.5-1.2,0.7c-0.2,0.1-0.3,0.1-0.3,0.1c-0.3,0-0.4-0.1-0.4-0.4c0-0.1,0.1-0.3,0.3-0.3c0.4-0.1,0.7-0.3,0.9-0.4
			c0.2-0.1,0.3-0.2,0.5-0.3c-0.3-0.3-0.5-0.6-0.8-0.9C163.1,44.4,163,44.5,162.8,44.6z M162.9,48.5c-0.1,0-0.1,0-0.1,0
			c-0.2,0-0.3-0.1-0.3-0.3c0-0.1,0.1-0.2,0.2-0.3c0.5-0.3,0.9-0.6,1.1-0.9c0.2-0.2,0.4-0.5,0.6-1c0.1-0.1,0.2-0.1,0.3-0.1
			c0.2,0,0.3,0.1,0.3,0.3c0,0.1,0,0.2-0.1,0.3c0,0,0,0.1-0.1,0.1l1,0c0.4,0,0.6,0.2,0.6,0.6c0,0.3-0.1,0.6-0.2,1
			c-0.1,0.5-0.4,0.9-0.6,1.2c-0.3,0.4-0.7,0.6-1.1,0.8c-0.5,0.2-1.1,0.4-1.8,0.4c-0.3,0-0.5-0.1-0.5-0.4c0-0.2,0.1-0.3,0.3-0.3
			c0.5,0,0.9-0.1,1.2-0.2c0.2-0.1,0.4-0.1,0.5-0.2c-0.3-0.5-0.6-0.9-0.9-1.4C163.3,48.3,163.1,48.4,162.9,48.5z M164.5,44.7
			c0.3-0.3,0.5-0.6,0.8-1c0.1-0.1,0.1-0.2,0.1-0.2c0,0,0,0-0.1,0l-1.4,0c0,0,0,0-0.1,0c-0.1,0.1-0.1,0.2-0.2,0.3c0,0,0,0,0.1,0.1
			C164,44.1,164.2,44.4,164.5,44.7C164.5,44.8,164.5,44.8,164.5,44.7C164.5,44.8,164.5,44.8,164.5,44.7z M164.1,47.6
			C164,47.7,164,47.7,164.1,47.6c0.2,0.5,0.6,0.9,0.9,1.4c0,0,0,0,0,0c0.3-0.3,0.5-0.6,0.6-0.9c0.1-0.3,0.2-0.6,0.2-0.8
			c0-0.1-0.1-0.1-0.1-0.1l-1.1,0c-0.1,0-0.1,0-0.1,0C164.3,47.4,164.2,47.5,164.1,47.6z M167.6,42.2c0.1,0.1,0.1,0.2,0.1,0.3
			c0,0,0,0.1,0,0.2c0,0.1,0,0.2-0.1,0.3l2.4,0c0.4,0,0.6,0.2,0.6,0.7c0,1.6,0,3-0.1,4.2c-0.1,1.1-0.2,1.9-0.4,2.2
			c-0.2,0.4-0.5,0.5-1,0.5c-0.4,0-0.8-0.1-1.3-0.2c-0.1-0.1-0.2-0.2-0.2-0.3c0-0.3,0.1-0.4,0.3-0.4c0.5,0.1,0.9,0.2,1.1,0.2
			c0.3,0,0.4-0.2,0.5-0.5c0.1-0.3,0.2-1,0.2-1.9c0-1,0.1-2.3,0.1-3.7c0-0.2-0.1-0.3-0.3-0.3l-2.2,0c0,0-0.1,0-0.1,0
			c0,0.1-0.1,0.2-0.1,0.3c-0.1,0.3-0.3,0.6-0.5,0.9c-0.1,0.1-0.2,0.1-0.2,0.1c-0.3,0-0.4-0.1-0.4-0.3c0-0.1,0-0.1,0.1-0.2
			c0.2-0.2,0.3-0.5,0.5-0.8c0.1-0.3,0.3-0.7,0.3-1.1c0-0.1,0.1-0.2,0.3-0.2C167.4,42.2,167.5,42.2,167.6,42.2z M168.6,44.5
			c0.4,0,0.5,0.2,0.5,0.5l0,3.3c0,0.3-0.2,0.5-0.6,0.5l-1.1,0c-0.3,0-0.5-0.2-0.5-0.5l0-3.3c0-0.3,0.2-0.5,0.5-0.5L168.6,44.5z
			 M168.5,48l0-2.7c0-0.1-0.1-0.2-0.2-0.2l-0.5,0c-0.1,0-0.2,0.1-0.2,0.2l0,2.7c0,0.2,0.1,0.3,0.2,0.3l0.5,0
			C168.4,48.2,168.5,48.1,168.5,48z"/>
		<path fill="#58595B" d="M176.8,42.1c0.1,0.1,0.1,0.1,0.1,0.2c0,0,0,0.1,0,0.2c0,0,0,0,0,0l2.2,0c0.2,0,0.3,0.1,0.3,0.3
			c0,0.2-0.1,0.3-0.3,0.3l-1.2,0c0.1,0.1,0.1,0.3,0.2,0.4c0,0.1,0,0.1,0,0.2c0,0.1-0.1,0.2-0.3,0.2c-0.1,0-0.2-0.1-0.2-0.2
			c-0.1-0.2-0.2-0.4-0.3-0.6c0,0,0-0.1,0-0.1l-0.8,0c-0.1,0.2-0.2,0.3-0.4,0.5c-0.1,0.1-0.3,0.3-0.4,0.4c-0.1,0.1-0.1,0.1-0.2,0.1
			c-0.1,0-0.1,0-0.2-0.1c-0.1-0.1-0.1-0.1-0.1-0.2c0-0.1,0-0.2,0.1-0.2c0.1-0.1,0.3-0.2,0.4-0.3c0.1-0.1,0.2-0.3,0.3-0.4
			c0.1-0.1,0.2-0.3,0.2-0.5c0-0.1,0.1-0.2,0.3-0.2C176.7,42.1,176.7,42.1,176.8,42.1z M176.3,50.4c0,0.2-0.1,0.3-0.3,0.3
			c-0.2,0-0.3-0.1-0.3-0.3l0-5.5c0-0.5,0.3-0.8,0.9-0.8l1.9,0c0.5,0,0.7,0.2,0.7,0.6l0,1.6c0,0.4-0.2,0.6-0.7,0.6l-2.1,0L176.3,50.4
			z M176.5,44.6c-0.1,0-0.2,0.1-0.2,0.3l0,0.4l2.1,0l0-0.4c0-0.2-0.1-0.3-0.2-0.3l-0.3,0L176.5,44.6z M176.3,45.7l0,0.7l1.9,0
			c0.1,0,0.2-0.1,0.2-0.3l0-0.4L176.3,45.7z M181.2,47.1c0.3,0,0.5,0.2,0.5,0.4l0,2c0,0.3-0.2,0.5-0.5,0.5l-3.4,0
			c-0.3,0-0.5-0.2-0.5-0.5l0-2c0-0.3,0.2-0.4,0.5-0.4L181.2,47.1z M181.1,48.3l0-0.4c0-0.1-0.1-0.2-0.2-0.2l-2.7,0
			c-0.1,0-0.2,0.1-0.2,0.2l0,0.4L181.1,48.3z M181.1,49.2l0-0.4l-3.1,0l0,0.4c0,0.2,0.1,0.3,0.2,0.3l2.7,0
			C181,49.5,181.1,49.4,181.1,49.2z M180.7,42.1c0.1,0.1,0.1,0.1,0.1,0.2c0,0,0,0.1,0,0.2c0,0,0,0,0,0l2.8,0c0.2,0,0.3,0.1,0.3,0.3
			c0,0.2-0.1,0.3-0.3,0.3l-1.5,0c0.1,0.1,0.1,0.3,0.2,0.4c0,0.1,0,0.1,0,0.2c0,0.2-0.1,0.3-0.3,0.3c-0.1,0-0.2-0.1-0.2-0.2
			c-0.1-0.2-0.1-0.4-0.2-0.5c0-0.1-0.1-0.1-0.1-0.1l-1,0c-0.1,0.2-0.2,0.3-0.4,0.4c-0.1,0.1-0.3,0.2-0.5,0.3
			c-0.1,0.1-0.1,0.1-0.2,0.1c-0.1,0-0.1,0-0.2-0.1c-0.1-0.1-0.1-0.1-0.1-0.2c0-0.1,0-0.2,0.1-0.2c0.1-0.1,0.3-0.2,0.4-0.3
			c0.1-0.1,0.2-0.3,0.3-0.4c0.1-0.1,0.2-0.3,0.2-0.5c0-0.1,0.1-0.2,0.3-0.2C180.6,42.1,180.7,42.1,180.7,42.1z M182.7,44.1
			c0.6,0,0.9,0.3,0.9,0.8l0,4.9c0,0.6-0.3,0.9-0.9,0.9c-0.3,0-0.6,0-1.1-0.1c-0.2-0.1-0.3-0.2-0.3-0.3c0-0.2,0.1-0.3,0.3-0.3
			c0,0,0.1,0,0.2,0c0.4,0,0.7,0.1,0.8,0.1c0.2,0,0.3-0.2,0.3-0.5l0-2.7l-2.1,0c-0.5,0-0.7-0.2-0.7-0.6l0-1.5c0-0.4,0.2-0.6,0.7-0.6
			l0.3,0L182.7,44.1z M182.9,45.3l0-0.4c0-0.2-0.1-0.3-0.2-0.3l-1.7,0c-0.1,0-0.2,0.1-0.2,0.3l0,0.4L182.9,45.3z M182.9,45.7l-2.1,0
			l0,0.3c0,0.2,0.1,0.3,0.2,0.3l1.9,0L182.9,45.7z"/>
		<path fill="#58595B" d="M195.7,44.8c0.4,0,0.6,0.2,0.6,0.6l0,2c0,0.4-0.2,0.6-0.6,0.6l-2.8,0l0,0.7l3.6,0c0.2,0,0.3,0.1,0.3,0.3
			c0,0.2-0.1,0.3-0.3,0.3l-3.6,0l0,1.1c0,0.2-0.1,0.3-0.3,0.3c-0.2,0-0.3-0.1-0.3-0.3l0-1.1l-3.5,0c-0.2,0-0.3-0.1-0.3-0.3
			c0-0.2,0.1-0.3,0.3-0.3l3.5,0l0-0.7l-2.7,0c-0.4,0-0.6-0.2-0.6-0.6l0-2c0-0.4,0.2-0.6,0.6-0.6L195.7,44.8z M191.6,42.4
			c0.4,0,0.6,0.2,0.6,0.6l0,0.7c0,0.4-0.2,0.6-0.6,0.6l-2.3,0c-0.4,0-0.6-0.2-0.6-0.6l0-0.7c0-0.4,0.2-0.6,0.6-0.6L191.6,42.4z
			 M191.6,43.5l0-0.3c0-0.1-0.1-0.2-0.2-0.2l-1.8,0c-0.1,0-0.2,0.1-0.2,0.2l0,0.3c0,0.1,0.1,0.2,0.2,0.2l1.8,0
			C191.5,43.7,191.6,43.7,191.6,43.5z M192.3,46.1l0-0.7l-2.5,0c-0.1,0-0.2,0.1-0.2,0.2l0,0.5L192.3,46.1z M192.3,46.6l-2.7,0l0,0.5
			c0,0.1,0.1,0.2,0.2,0.2l2.5,0L192.3,46.6z M192.9,46.1l2.8,0l0-0.5c0-0.1-0.1-0.2-0.2-0.2l-2.6,0L192.9,46.1z M195.7,47.2l0-0.5
			l-2.8,0l0,0.7l2.6,0C195.6,47.4,195.7,47.3,195.7,47.2z M195.9,42.4c0.4,0,0.6,0.2,0.6,0.6l0,0.8c0,0.4-0.2,0.5-0.6,0.5l-2.3,0
			c-0.4,0-0.6-0.2-0.6-0.5l0-0.8c0-0.4,0.2-0.5,0.6-0.5L195.9,42.4z M195.8,43.5l0-0.3c0-0.1-0.1-0.2-0.2-0.2l-1.8,0
			c-0.1,0-0.2,0.1-0.2,0.2l0,0.3c0,0.1,0.1,0.2,0.2,0.2l1.8,0C195.8,43.7,195.8,43.6,195.8,43.5z"/>
	</g>
</g>
</svg>
