<?xml version="1.0" encoding="utf-8"?>
<!-- Generator: Adobe Illustrator 18.0.0, SVG Export Plug-In . SVG Version: 6.00 Build 0)  -->
<!DOCTYPE svg PUBLIC "-//W3C//DTD SVG 1.1//EN" "http://www.w3.org/Graphics/SVG/1.1/DTD/svg11.dtd">
<svg version="1.1" id="圖層_1" xmlns="http://www.w3.org/2000/svg" xmlns:xlink="http://www.w3.org/1999/xlink" x="0px" y="0px"
	 viewBox="0 0 348 55" enable-background="new 0 0 348 55" xml:space="preserve">
<g>
	<path fill="#F1B130" stroke="#FBD970" stroke-width="5" stroke-miterlimit="10" d="M51.7,52H28C14.2,52,3,40.8,3,27v0
		C3,13.3,14.2,2,28,2h23.7c13.7,0,25,11.2,25,25v0C76.7,40.8,65.4,52,51.7,52z"/>
	<g>
		<path fill="#231815" d="M38.2,28h-9.8c-0.7,0-1.2,0.6-1.2,1.2c0,0.7,0.6,1.2,1.2,1.2h7.9c-1.2,3.4-4.8,6-8.4,6
			c-2.4,0-4.7-1-6.4-2.8c-1.7-1.8-2.6-4.2-2.6-6.7c0-2.5,0.9-4.9,2.6-6.7c1.7-1.8,4-2.8,6.4-2.8c2.7,0,5.3,1.2,6.9,3.3
			c0.4,0.5,0.7,1,1,1.5l0,0.1c0.3,0.6,0.5,1.1,1.3,1.2c0.1,0,0.1,0,0.2,0c0.4,0,0.8-0.2,1.1-0.5c0.2-0.2,0.2-0.5,0.1-0.8
			c-1.5-4.4-5.8-7.3-10.6-7.3c-3.1,0-6,1.3-8.2,3.5c-2.2,2.3-3.3,5.3-3.3,8.4c0,3.2,1.2,6.2,3.3,8.4c2.2,2.3,5.1,3.6,8.2,3.6
			c4.4,0,9.2-3.3,10.7-7.4c0.3-0.8,0.5-1.6,0.6-2.4c0-0.3-0.1-0.6-0.3-0.8C38.7,28.2,38.4,28,38.2,28z"/>
		<path fill="#231815" d="M61.2,18.5c-2.3-2.3-5.3-3.5-8.5-3.5c-3.2,0-6.3,1.3-8.4,3.5c-2.3,2.3-3.5,5.3-3.5,8.5
			c0,3.2,1.2,6.2,3.5,8.5c2.2,2.3,5.3,3.6,8.4,3.6c3.2,0,6.2-1.3,8.5-3.5c2.3-2.3,3.5-5.3,3.5-8.5C64.7,23.8,63.4,20.8,61.2,18.5z
			 M52.7,36.6c-2.5,0-4.9-1-6.7-2.8c-1.8-1.8-2.8-4.2-2.8-6.7c0-2.5,1-4.9,2.8-6.7c1.8-1.8,4.2-2.8,6.7-2.8c2.5,0,4.9,1,6.7,2.8
			c1.8,1.8,2.8,4.2,2.8,6.7c0,2.5-1,4.9-2.8,6.7C57.6,35.6,55.2,36.6,52.7,36.6z"/>
	</g>
</g>
<g>
	<g>
		<path fill="#727171" d="M237.8,32.1v-5.8h2.1c0.4,0,0.7,0,0.9,0.1c0.2,0.1,0.4,0.2,0.6,0.4c0.1,0.1,0.2,0.3,0.3,0.5
			c0.1,0.2,0.1,0.4,0.1,0.6c0,0.3-0.1,0.6-0.2,0.8c-0.1,0.2-0.3,0.4-0.5,0.5c-0.2,0.1-0.4,0.2-0.7,0.3c-0.3,0-0.5,0.1-0.8,0.1h-1.2
			v2.6H237.8z M239.6,29c0.3,0,0.5,0,0.7,0c0.2,0,0.4-0.1,0.5-0.2c0.1-0.1,0.3-0.2,0.3-0.4c0.1-0.2,0.1-0.4,0.1-0.6
			c0-0.4-0.1-0.6-0.4-0.8c-0.2-0.2-0.6-0.3-1.1-0.3h-1.4V29H239.6z"/>
		<path fill="#727171" d="M244.3,32.2c-0.3,0-0.5-0.1-0.7-0.1c-0.2-0.1-0.4-0.2-0.6-0.4s-0.3-0.4-0.4-0.7c-0.1-0.3-0.2-0.6-0.2-1
			c0-0.3,0-0.6,0.1-0.9c0.1-0.3,0.2-0.5,0.4-0.7c0.2-0.2,0.4-0.4,0.6-0.5c0.2-0.1,0.5-0.2,0.8-0.2c0.3,0,0.6,0.1,0.9,0.2
			c0.2,0.1,0.4,0.3,0.6,0.5c0.2,0.2,0.3,0.4,0.4,0.7c0.1,0.3,0.1,0.6,0.1,0.9c0,0.3,0,0.6-0.1,0.9c-0.1,0.3-0.2,0.5-0.4,0.7
			c-0.2,0.2-0.4,0.3-0.6,0.4C244.9,32.1,244.6,32.2,244.3,32.2z M245.7,30c0-0.2,0-0.5-0.1-0.7c-0.1-0.2-0.1-0.4-0.2-0.6
			c-0.1-0.2-0.3-0.3-0.4-0.4c-0.2-0.1-0.4-0.1-0.7-0.1c-0.3,0-0.5,0-0.6,0.1c-0.2,0.1-0.3,0.2-0.4,0.4c-0.1,0.2-0.2,0.4-0.2,0.6
			c-0.1,0.2-0.1,0.4-0.1,0.7c0,0.3,0,0.5,0.1,0.7c0.1,0.2,0.2,0.4,0.3,0.6c0.1,0.2,0.3,0.3,0.4,0.4c0.2,0.1,0.4,0.1,0.6,0.1
			c0.3,0,0.5,0,0.6-0.1c0.2-0.1,0.3-0.2,0.4-0.4c0.1-0.2,0.2-0.4,0.2-0.6C245.7,30.4,245.7,30.2,245.7,30z"/>
		<path fill="#727171" d="M250.6,31.4l1.1-3.5h0.5l-1.3,4.2h-0.5l-0.9-3.5h0l-0.9,3.5h-0.6l-1.3-4.2h0.5l1.1,3.5l1-3.5h0.5
			L250.6,31.4z"/>
		<path fill="#727171" d="M253.2,30.1c0,0.2,0,0.4,0.1,0.6c0.1,0.2,0.1,0.4,0.3,0.5c0.1,0.1,0.3,0.3,0.4,0.4
			c0.2,0.1,0.4,0.1,0.6,0.1c0.3,0,0.6-0.1,0.8-0.2c0.2-0.2,0.4-0.4,0.5-0.7h0.5c-0.1,0.2-0.1,0.4-0.2,0.6c-0.1,0.2-0.2,0.3-0.4,0.4
			c-0.1,0.1-0.3,0.2-0.5,0.3c-0.2,0.1-0.4,0.1-0.7,0.1c-0.3,0-0.6-0.1-0.9-0.2c-0.2-0.1-0.4-0.3-0.6-0.5c-0.2-0.2-0.3-0.4-0.3-0.7
			c-0.1-0.3-0.1-0.6-0.1-0.9c0-0.3,0-0.6,0.1-0.9c0.1-0.3,0.2-0.5,0.4-0.7c0.2-0.2,0.4-0.4,0.6-0.5c0.2-0.1,0.5-0.2,0.8-0.2
			c0.6,0,1,0.2,1.3,0.6c0.3,0.4,0.5,1,0.5,1.7H253.2z M255.9,29.7c0-0.2,0-0.4-0.1-0.6c-0.1-0.2-0.1-0.3-0.2-0.5
			c-0.1-0.1-0.2-0.2-0.4-0.3c-0.2-0.1-0.4-0.1-0.6-0.1c-0.2,0-0.4,0-0.6,0.1c-0.2,0.1-0.3,0.2-0.4,0.3c-0.1,0.1-0.2,0.3-0.3,0.5
			c-0.1,0.2-0.1,0.4-0.1,0.6H255.9z"/>
		<path fill="#727171" d="M257.9,32.1h-0.5v-4.2h0.5v0.8h0c0.1-0.3,0.3-0.6,0.5-0.7c0.2-0.1,0.5-0.2,0.8-0.2v0.5
			c-0.3,0-0.5,0-0.7,0.1c-0.2,0.1-0.3,0.2-0.4,0.4c-0.1,0.2-0.2,0.3-0.2,0.6c0,0.2-0.1,0.4-0.1,0.7V32.1z"/>
		<path fill="#727171" d="M260.3,30.1c0,0.2,0,0.4,0.1,0.6c0.1,0.2,0.1,0.4,0.3,0.5c0.1,0.1,0.3,0.3,0.4,0.4
			c0.2,0.1,0.4,0.1,0.6,0.1c0.3,0,0.6-0.1,0.8-0.2c0.2-0.2,0.4-0.4,0.5-0.7h0.5c-0.1,0.2-0.1,0.4-0.2,0.6c-0.1,0.2-0.2,0.3-0.4,0.4
			c-0.1,0.1-0.3,0.2-0.5,0.3c-0.2,0.1-0.4,0.1-0.7,0.1c-0.3,0-0.6-0.1-0.9-0.2c-0.2-0.1-0.4-0.3-0.6-0.5c-0.2-0.2-0.3-0.4-0.3-0.7
			c-0.1-0.3-0.1-0.6-0.1-0.9c0-0.3,0-0.6,0.1-0.9c0.1-0.3,0.2-0.5,0.4-0.7c0.2-0.2,0.4-0.4,0.6-0.5c0.2-0.1,0.5-0.2,0.8-0.2
			c0.6,0,1,0.2,1.3,0.6c0.3,0.4,0.5,1,0.5,1.7H260.3z M263.1,29.7c0-0.2,0-0.4-0.1-0.6c-0.1-0.2-0.1-0.3-0.2-0.5
			c-0.1-0.1-0.2-0.2-0.4-0.3c-0.2-0.1-0.4-0.1-0.6-0.1c-0.2,0-0.4,0-0.6,0.1c-0.2,0.1-0.3,0.2-0.4,0.3c-0.1,0.1-0.2,0.3-0.3,0.5
			c-0.1,0.2-0.1,0.4-0.1,0.6H263.1z"/>
		<path fill="#727171" d="M267.7,26.3h0.5v5.8h-0.5v-0.7h0c-0.1,0.1-0.2,0.3-0.3,0.4c-0.1,0.1-0.2,0.2-0.4,0.3
			c-0.1,0.1-0.3,0.1-0.4,0.2c-0.1,0-0.3,0.1-0.4,0.1c-0.3,0-0.6-0.1-0.9-0.2c-0.2-0.1-0.4-0.3-0.6-0.5c-0.2-0.2-0.3-0.4-0.3-0.7
			c-0.1-0.3-0.1-0.6-0.1-0.9c0-0.3,0-0.6,0.1-0.8c0.1-0.3,0.2-0.5,0.3-0.7c0.2-0.2,0.3-0.4,0.6-0.5c0.2-0.1,0.5-0.2,0.8-0.2
			c0.3,0,0.6,0.1,0.8,0.2c0.3,0.1,0.5,0.3,0.6,0.6V26.3z M267.7,30c0-0.2,0-0.5-0.1-0.7c-0.1-0.2-0.2-0.4-0.3-0.6
			c-0.1-0.2-0.3-0.3-0.4-0.4c-0.2-0.1-0.4-0.1-0.6-0.1c-0.3,0-0.5,0-0.6,0.1c-0.2,0.1-0.3,0.2-0.5,0.4c-0.1,0.2-0.2,0.4-0.3,0.6
			c-0.1,0.2-0.1,0.5-0.1,0.7c0,0.3,0,0.5,0.1,0.7c0.1,0.2,0.2,0.4,0.3,0.5c0.1,0.1,0.3,0.2,0.4,0.3c0.2,0.1,0.4,0.1,0.6,0.1
			c0.2,0,0.4,0,0.6-0.1c0.2-0.1,0.3-0.2,0.4-0.4c0.1-0.2,0.2-0.3,0.3-0.6C267.7,30.5,267.7,30.2,267.7,30z"/>
		<path fill="#727171" d="M272.2,32.1h-0.5v-5.8h0.5v2.3c0.2-0.3,0.4-0.4,0.6-0.6c0.3-0.1,0.6-0.2,0.8-0.2c0.3,0,0.6,0.1,0.8,0.2
			c0.2,0.1,0.4,0.3,0.6,0.5s0.3,0.4,0.3,0.7c0.1,0.3,0.1,0.5,0.1,0.8c0,0.3,0,0.6-0.1,0.9c-0.1,0.3-0.2,0.5-0.3,0.7
			c-0.2,0.2-0.3,0.4-0.6,0.5c-0.2,0.1-0.5,0.2-0.9,0.2c-0.1,0-0.3,0-0.4-0.1c-0.1,0-0.3-0.1-0.4-0.2c-0.1-0.1-0.3-0.2-0.4-0.3
			c-0.1-0.1-0.2-0.2-0.3-0.4h0V32.1z M272.2,30c0,0.3,0,0.5,0.1,0.7c0.1,0.2,0.2,0.4,0.3,0.6c0.1,0.2,0.3,0.3,0.4,0.4
			c0.2,0.1,0.4,0.1,0.6,0.1c0.2,0,0.4,0,0.6-0.1c0.2-0.1,0.3-0.2,0.5-0.3c0.1-0.1,0.2-0.3,0.3-0.5c0.1-0.2,0.1-0.4,0.1-0.7
			c0-0.3,0-0.5-0.1-0.7c-0.1-0.2-0.1-0.4-0.3-0.6c-0.1-0.2-0.3-0.3-0.5-0.4c-0.2-0.1-0.4-0.1-0.6-0.1c-0.2,0-0.4,0-0.6,0.1
			c-0.2,0.1-0.3,0.2-0.4,0.4s-0.2,0.3-0.3,0.6C272.2,29.5,272.2,29.7,272.2,30z"/>
		<path fill="#727171" d="M276.5,33.2c0.1,0,0.1,0,0.2,0s0.1,0,0.2,0c0.1,0,0.2,0,0.3-0.1c0.1-0.1,0.2-0.2,0.2-0.3
			c0.1-0.1,0.1-0.2,0.1-0.4c0-0.1,0.1-0.2,0.1-0.3l-1.6-4.2h0.5l1.3,3.6l1.3-3.6h0.5l-1.5,4.1c-0.1,0.3-0.2,0.5-0.3,0.7
			c-0.1,0.2-0.2,0.4-0.3,0.5c-0.1,0.1-0.2,0.3-0.3,0.3c-0.1,0.1-0.3,0.1-0.4,0.1c-0.1,0-0.2,0-0.2,0c-0.1,0-0.1,0-0.2,0V33.2z"/>
	</g>
	<g>
		<circle fill="#F5BE00" cx="315.5" cy="29.6" r="9"/>
	</g>
	<path fill="#251D1C" d="M283.4,25.9h4v0.8h-3v2.2h2.5v0.8h-2.5v2.2h3.2v0.8h-4.2V25.9z"/>
	<path fill="#251D1C" d="M292.3,30.8h-2.6l-0.7,2h-1l2.5-6.9h1l2.5,6.9h-1L292.3,30.8z M291,26.8c0,0-0.2,0.6-0.3,1L290,30h2.1
		l-0.8-2.2C291.2,27.4,291.1,26.8,291,26.8L291,26.8z"/>
	<path fill="#251D1C" d="M295,31.2c0,0,0.7,0.7,1.7,0.7c0.6,0,1.2-0.4,1.2-1c0-1.4-3.2-1.1-3.2-3.2c0-1,0.9-1.9,2.2-1.9
		c1.2,0,1.9,0.7,1.9,0.7l-0.4,0.8c0,0-0.6-0.6-1.5-0.6c-0.7,0-1.2,0.4-1.2,1c0,1.4,3.2,1,3.2,3.2c0,1-0.8,1.9-2.1,1.9
		c-1.4,0-2.2-0.9-2.2-0.9L295,31.2z"/>
	<g>
		<path fill="#251D1C" d="M301.6,29.8l-2.3-4h1.1l1.3,2.3c0.2,0.4,0.4,0.9,0.4,0.9h0c0,0,0.2-0.5,0.4-0.9l1.3-2.3h1.1l-2.3,4v2.9h-1
			V29.8z"/>
	</g>
	<g>
		<path fill="#251D1C" d="M328.5,26.7h-2.4v-0.8h5.7v0.8h-2.4v6.1h-1V26.7z"/>
		<path fill="#251D1C" d="M335.7,30.8h-2.6l-0.7,2h-1l2.5-6.9h1l2.5,6.9h-1L335.7,30.8z M334.4,26.8c0,0-0.2,0.6-0.3,1l-0.8,2.2h2.1
			l-0.8-2.2C334.6,27.4,334.4,26.8,334.4,26.8L334.4,26.8z"/>
	</g>
	<g>
		<path fill="#251D1C" d="M340,29.2l-2-3.3h1.1l1.1,1.9c0.2,0.4,0.4,0.8,0.4,0.8h0c0,0,0.2-0.4,0.4-0.8l1.1-1.9h1.1l-2,3.3l2.2,3.6
			h-1.1l-1.3-2.1c-0.2-0.4-0.4-0.8-0.4-0.8h0c0,0-0.2,0.4-0.4,0.8l-1.3,2.1h-1.1L340,29.2z"/>
	</g>
	<g>
		<path fill="#251D1C" d="M345.5,25.9h1v6.9h-1V25.9z"/>
	</g>
	<path fill="#FBDA71" d="M315.5,21.5c4.4,0,8.1,3.6,8.1,8.1c0,4.4-3.6,8.1-8.1,8.1c-4.4,0-8.1-3.6-8.1-8.1
		C307.4,25.1,311,21.5,315.5,21.5 M315.5,20.6c-5,0-9,4-9,9c0,5,4,9,9,9c5,0,9-4,9-9C324.5,24.6,320.5,20.6,315.5,20.6L315.5,20.6z"
		/>
	<g>
		<g>
			<path fill="#251D1C" d="M317.6,26.3c-0.6-0.5-1.4-0.8-2.3-0.7c-0.8,0-1.5,0.3-2,0.8c-0.1,0.1-0.1,0.2-0.1,0.2
				c0,0.1,0,0.2,0.1,0.3l0.1,0.1c0.1,0.1,0.2,0.1,0.3,0.1c0.1,0,0.2,0,0.3-0.1c0.4-0.3,0.9-0.5,1.4-0.5c0.6,0,1.2,0.2,1.6,0.5
				c0.1,0.1,0.2,0.1,0.3,0.1c0.1,0,0.2,0,0.3-0.1l0.1-0.1c0.1-0.1,0.1-0.2,0.1-0.3C317.8,26.5,317.7,26.4,317.6,26.3z"/>
			<path fill="#251D1C" d="M311.6,25.4l0.1,0.1c0.2,0.1,0.4,0.1,0.6,0c1.8-1.5,4.5-1.5,6.3,0c0.2,0.1,0.4,0.1,0.5,0l0.1-0.1
				c0.1-0.2,0.1-0.4,0-0.5c-2.2-1.9-5.5-1.8-7.7,0C311.5,25,311.5,25.3,311.6,25.4z"/>
		</g>
		<path fill="#251D1C" d="M311.7,30.9c0-0.1-0.1-0.2-0.2-0.2h-0.7c-0.1,0-0.2,0.1-0.2,0.2l0,0.2c0,0.1,0.1,0.2,0.2,0.2h0.5
			c0.1,0,0.2,0.1,0.2,0.2l0.1,0.4l0.4-0.1L311.7,30.9z"/>
		<path fill="#251D1C" d="M319.3,30.9c0-0.1,0.1-0.2,0.2-0.2h0.7c0.1,0,0.2,0.1,0.2,0.2l0,0.2c0,0.1-0.1,0.2-0.2,0.2h-0.5
			c-0.1,0-0.2,0.1-0.2,0.2l-0.1,0.4l-0.4-0.1L319.3,30.9z"/>
		<path fill="#251D1C" d="M319.9,32.1c0-0.2-0.2-0.5-0.5-0.6c0,0,0,0,0,0c0-1-0.2-1.2-0.6-2.3c-0.1-0.2-0.3-0.4-0.5-0.4
			c-0.7-0.1-1.2-0.1-1.7-0.1l-0.2-0.6c-0.1-0.2-0.1-0.3-0.3-0.3h-1.4c-0.2,0-0.2,0.2-0.3,0.3l-0.2,0.6c-0.5,0-1.1,0.1-1.7,0.1
			c-0.2,0-0.4,0.2-0.5,0.4c-0.4,1.1-0.5,1.3-0.6,2.3c0,0,0,0,0,0c-0.2,0.1-0.4,0.3-0.5,0.6c-0.1,0.4,0,2.1,0.2,2.1h0.2v0.6
			c0,0.3,0.3,0.6,0.6,0.6h0.8c0.3,0,0.6-0.3,0.6-0.6v-0.6h4v0.6c0,0.3,0.3,0.6,0.6,0.6h0.8c0.3,0,0.6-0.3,0.6-0.6v-0.6h0.2
			C319.9,34.2,320,32.6,319.9,32.1z M311.8,32.8c0-0.4,0.3-0.7,0.7-0.7c0.4,0,0.7,0.3,0.7,0.7c0,0.4-0.3,0.7-0.7,0.7
			C312.1,33.5,311.8,33.2,311.8,32.8z M319.2,32.8c0,0.4-0.3,0.7-0.7,0.7c-0.4,0-0.7-0.3-0.7-0.7c0-0.4,0.3-0.7,0.7-0.7
			C318.9,32.1,319.2,32.4,319.2,32.8z M312.6,29.5c0-0.1,0.1-0.2,0.2-0.2c1.1-0.1,1.6-0.1,2.7-0.1c1.1,0,1.6,0,2.7,0.1
			c0,0,0.2,0.1,0.2,0.2c0.3,1,0.5,1.1,0.5,1.9c-2.6-0.1-4.1-0.1-6.7,0C312.2,30.6,312.3,30.4,312.6,29.5z"/>
	</g>
</g>
<g>
	<g>
		<path fill="#231815" d="M148.2,23.1c-1.7-4.2-3.4-7.7-5.4-10.9l0-0.1c-0.3-0.3-0.7-0.4-1-0.4c-1,0.1-1.2,0.6-1.1,1.1
			c0,0.2,0.1,0.4,0.3,0.7c1.6,2.6,3.2,6.2,4.9,11c0.3,0.7,0.9,0.8,1.2,0.7c1.3-0.1,1.5-0.8,1.4-1.3
			C148.4,23.7,148.3,23.5,148.2,23.1L148.2,23.1z"/>
		<path fill="#231815" d="M136,6.4c-0.7,0-1.1,0.4-1.1,1.1v19.3c0,0.8-0.3,1.1-1,1.1c-0.6,0-2.2-0.4-3.5-0.8
			c-0.4-0.1-0.6-0.1-0.8-0.1c0,0,0,0,0,0c-0.4,0-1,0.3-1,1.3c0,0.4,0.1,0.9,0.9,1.2c2,0.6,3.5,0.9,4.7,0.9c2.6,0,3.2-1.5,3.2-2.8
			v-20C137.3,6.8,136.8,6.4,136,6.4z"/>
		<path fill="#231815" d="M130.9,13.3c0.1-0.1,0.1-0.3,0.1-0.4c0-0.3-0.1-0.6-0.4-0.8c-0.2-0.2-0.5-0.3-0.8-0.3
			c-0.3,0-0.7,0-0.9,0.7c-0.7,2.3-1.5,4.5-2.5,6.3c-0.8,1.7-1.8,3.2-2.8,4.5c-0.2,0.2-0.3,0.4-0.3,0.7c-0.1,0.5,0.1,1.2,1.2,1.3
			c0.3,0,0.7-0.2,0.9-0.4l0.1-0.1c1.1-1.6,2-3.1,2.8-4.8c0.9-1.9,1.8-4.1,2.5-6.6L130.9,13.3z"/>
		<path fill="#231815" d="M152.5,10.2h3.7v0.9c0,1.2,0.7,1.9,2,1.9h8.9c1.3,0,2-0.7,2-1.9v-0.9h3.8c0.7,0,1-0.4,1-1c0-0.7-0.4-1-1-1
			h-3.8V7.3c0-0.7-0.4-1.1-1.1-1.1c-0.7,0-1.1,0.4-1.1,1.1v0.8h-8.3V7.3c0-0.7-0.4-1.1-1.2-1.1c-0.7,0-1.1,0.4-1.1,1.1v0.8h-3.7
			c-0.7,0-1,0.4-1,1C151.4,9.8,151.8,10.2,152.5,10.2z M158.5,10.8v-0.6h8.3v0.6c0,0.4-0.1,0.4-0.2,0.4h-8
			C158.6,11.1,158.5,11.1,158.5,10.8z"/>
		<path fill="#231815" d="M151.9,16h21.8c0.7,0,1.1-0.4,1.1-1.1c0-0.7-0.4-1-1.1-1h-21.8c-0.7,0-1.1,0.4-1.1,1
			C150.8,15.8,151.4,16,151.9,16z"/>
		<path fill="#231815" d="M158.7,26.2c-0.2,0-0.4,0.1-0.6,0.2c-1.9,0.7-4.2,1.4-7.1,1.9l-0.1,0c-0.5,0.2-0.6,0.6-0.6,0.9
			c0,0.8,0.5,1.3,1.3,1.3c0.1,0,0.2,0,0.4-0.1c0.1,0,0.2,0,0.3-0.1c3.1-0.7,5.3-1.4,7-2.2l0,0c0.3-0.3,0.5-0.6,0.5-0.9
			C159.8,26.7,159.4,26.2,158.7,26.2z"/>
		<path fill="#231815" d="M174,28.4c-2.5-0.6-4.8-1.3-6.9-2.1c0,0-0.1,0-0.1-0.1h3.3c1.3,0,2-0.7,2-2v-5.3c0-1.2-0.7-1.9-2-1.9H155
			c-1.3,0-2,0.6-2,1.9v5.3c0,1.3,0.7,2,2,2h10.7c-0.2,0.2-0.4,0.5-0.4,0.9c0,0.3,0.2,0.5,0.5,0.9l0.1,0c1.2,0.6,2.4,1.1,3.6,1.5
			c3.1,1,3.8,1.1,4.1,1.1c0.8,0,1.3-0.5,1.3-1.3C174.8,29,174.7,28.6,174,28.4z M170,22.5v1.1c0,0.3-0.1,0.4-0.3,0.4h-5.8v-1.5H170z
			 M170,19.5v0.9h-6v-1.1h5.8C169.9,19.3,170,19.4,170,19.5z M161.6,19.3v1.1h-6.2v-0.9c0-0.2,0.1-0.3,0.3-0.3H161.6z M155.4,23.6
			v-1.1h6.2V24h-6C155.5,24,155.4,24,155.4,23.6z"/>
		<path fill="#231815" d="M200.3,24.8h-9.9V23h7.2c1.3,0,2.1-0.7,2.1-2v-7c0-1.2-0.7-1.9-2.1-1.9h-7.2v-1.7h9.5c0.4,0,1-0.1,1-1.1
			c0-0.7-0.4-1-1-1h-9.5V7.6c0-0.7-0.4-1.1-1.3-1.1c-0.7,0-1.2,0.4-1.2,1.1v0.6h-9.6c-0.7,0-1,0.4-1,1c0,1,0.6,1.1,1,1.1h9.6v1.7
			h-7.3c-1.3,0-2,0.6-2,1.9v7c0,1.3,0.7,2,2,2h7.3v1.8h-9.7c-0.8,0-1.2,0.4-1.2,1.2c0,0.8,0.4,1.1,1.2,1.1h9.7v2.5
			c0,0.7,0.4,1.1,1.2,1.1c0.8,0,1.3-0.4,1.3-1.1v-2.5h9.9c0.7,0,1.1-0.4,1.1-1.1C201.5,25.2,201.1,24.8,200.3,24.8z M190.4,20.7
			v-2.4h6.9v1.8c0,0.5-0.2,0.6-0.5,0.6H190.4z M190.4,16.3v-2h6.4c0.3,0,0.5,0.1,0.5,0.5v1.5H190.4z M188,18.4v2.4h-6.5
			c-0.1,0-0.4,0-0.4-0.6v-1.8H188z M181.1,16.3v-1.5c0-0.4,0.1-0.5,0.4-0.5h6.5v2H181.1z"/>
		<path fill="#231815" d="M227.3,26.5c-1.2-1.1-2.2-2.2-2.9-3.3c-0.6-0.9-1.2-2-1.9-3.4c0-0.2-0.1-0.5-0.1-0.8l0,0
			c1.4-1.2,2.6-2.3,3.6-3.4c0.3-0.3,0.5-0.6,0.5-1c0-0.7-0.4-1.1-1.1-1.1c-0.3,0-0.6,0.2-0.9,0.5c-0.7,0.9-1.6,1.8-2.6,2.7
			c-0.4-1.3-1.3-2.5-2.5-3.9c0.3-0.3,0.5-0.7,0.8-1h6.4c0.8,0,1.2-0.4,1.2-1.1c0-0.8-0.4-1.2-1.2-1.2h-3c0.4-0.5,0.8-1,1.2-1.7
			l0-0.1c0-0.2,0.1-0.3,0.1-0.5c0-0.2-0.1-0.5-0.4-0.7l0,0c-0.3-0.2-0.6-0.2-0.8-0.2c-0.5,0-0.8,0.2-0.9,0.5
			c-0.6,0.9-1.1,1.7-1.6,2.3c-0.1,0.1-0.2,0.3-0.2,0.4h-3.8c0,0,0-0.1,0-0.2c0-0.2-0.1-0.4-0.2-0.8c-0.4-0.7-0.9-1.3-1.4-1.9
			c-0.2-0.2-0.4-0.4-0.7-0.4c-0.8,0-1.3,0.4-1.3,1.2c0,0.2,0.1,0.4,0.3,0.6c0.2,0.3,0.4,0.6,0.6,0.9c0.1,0.2,0.2,0.3,0.4,0.5h-3.2
			c-0.8,0-1.1,0.4-1.1,1.2c0,0.8,0.4,1.1,1.1,1.1h5.8c-0.7,0.7-1.3,1.3-1.8,1.6c-1.4,1-2.7,1.7-4,2.1c-0.7,0.1-1.1,0.5-1.1,1.1
			c0,0.4,0.2,1,1,1c0.5,0,1.3-0.3,2.4-0.9c1.3-0.6,2.5-1.4,3.6-2.3c0.1-0.1,0.2-0.1,0.2-0.2c0.2,0.2,0.4,0.5,0.6,0.7
			c-0.9,1.1-1.6,1.9-2.2,2.4c-1.5,1.2-2.9,2-4.2,2.5c-0.9,0.2-1,0.7-1,1c0,0.8,0.4,1.3,1.3,1.3c0.4,0,1.1-0.2,1.8-0.7
			c1.2-0.6,2.2-1.3,3-2c0.7-0.6,1.5-1.4,2.4-2.5c0,0.1,0,0.1,0.1,0.2c0.1,0.4,0.2,0.7,0.3,1.1c-1.3,1.7-2.4,2.9-3.4,3.7
			c-2,1.6-3.9,2.7-5.6,3.4c-0.9,0.2-1,0.7-1,1c0,0.8,0.4,1.3,1.3,1.3c0.5,0,1.3-0.3,2.4-0.9c1.5-0.7,2.9-1.6,4-2.7
			c0.9-0.7,1.8-1.7,2.8-3c0,0.3,0,0.6,0,0.9c0,1.3-0.2,2.5-0.6,3.4c-0.3,0.9-0.7,1.6-1.2,2c-0.4,0.4-0.8,0.6-1.4,0.6
			c-0.6,0-1.4-0.2-2.4-0.6c-0.4-0.2-0.6-0.2-0.8-0.2c0,0,0,0,0,0c-0.7,0.1-1.1,0.5-1.1,1.4c0,0.4,0.2,0.7,0.6,1l0,0
			c1.3,0.5,2.5,0.7,3.7,0.7c1.3,0,2.4-0.4,3.3-1.3c0.8-0.8,1.3-1.9,1.7-3.3c0.1-0.5,0.2-1.1,0.3-1.6c0,0,0,0.1,0.1,0.1
			c0.8,1.4,1.8,2.8,3.1,4.1l0,0c0.3,0.2,0.6,0.3,0.9,0.3c0.8,0,1.3-0.4,1.3-1.3C228,27.1,227.8,26.8,227.3,26.5z"/>
		<path fill="#231815" d="M210.9,20.9c0-0.7-0.1-1.5-0.3-2.3c-0.2-0.7-0.7-1.7-1.3-3c-0.2-0.3-0.2-0.5-0.2-0.8c0-0.3,0-0.5,0.1-0.7
			l1.6-4.7c0.1-0.4,0.2-0.7,0.2-1c0-0.9-0.6-1.5-1.6-1.5h-3.5c-1.3,0-2,0.6-2,1.9v20.7c0,0.7,0.4,1.1,1.1,1.1c0.7,0,1.1-0.4,1.1-1.1
			v-4.3c0.4,0.1,0.8,0.1,1.2,0.1c1.1,0,2-0.5,2.6-1.5C210.6,23,210.9,22,210.9,20.9z M206.8,14.1c-0.1,0.3-0.1,0.6-0.1,1
			c0,0.4,0.1,0.7,0.2,0.9c0.7,1.3,1.2,2.4,1.4,3.1c0.2,0.6,0.2,1.1,0.2,1.6c0,0.6-0.1,1.1-0.4,1.7c-0.2,0.4-0.5,0.7-0.9,0.7
			c-0.2,0-0.5,0-1-0.2V9.5c0-0.2,0.1-0.3,0.3-0.3h1.7c0.1,0,0.2,0,0.2,0.1L206.8,14.1z"/>
	</g>
	<g>
		<path fill="#231815" d="M117.8,30.8h-15.5c-1,0-1.4-0.4-1.4-1.3c0-0.4,0.2-0.8,0.7-1.4l14.1-18.5h-11.7c-1,0-1.5-0.7-1.5-1.3
			c0-0.5,0.5-1.3,1.5-1.3h14c1,0,1.5,0.4,1.5,1.3c0,0.4-0.2,0.8-0.7,1.4l-14.1,18.5h13.2c1,0,1.5,0.8,1.5,1.3
			C119.3,30.1,118.8,30.8,117.8,30.8z"/>
	</g>
	<path fill="#231815" d="M97.3,9.6c0.7,0,1.3-0.6,1.3-1.3c0-0.7-0.6-1.3-1.3-1.3H85.6c-0.7,0-1.3,0.6-1.3,1.3v21.1
		c0,0.7,0.6,1.3,1.3,1.3h11.7c0.7,0,1.3-0.6,1.3-1.3c0-0.7-0.6-1.3-1.3-1.3H86.9v-8H94c0.7,0,1.3-0.6,1.3-1.3c0-0.7-0.6-1.3-1.3-1.3
		h-7.1v-8H97.3z"/>
	<g>
		<path fill="#595757" d="M88.2,39.4c0,0.3-0.1,0.4-0.4,0.4h-2.6c-0.3,0-0.4-0.1-0.4-0.4c0-0.2,0.1-0.4,0.4-0.4h2.6
			C88.1,39,88.2,39.1,88.2,39.4z M87.9,40.9c0,0.2-0.1,0.4-0.4,0.4h-2c-0.2,0-0.4-0.1-0.4-0.4s0.1-0.4,0.4-0.4h2
			C87.8,40.5,87.9,40.7,87.9,40.9z M87.9,42.6c0,0.2-0.1,0.4-0.4,0.4h-2c-0.2,0-0.4-0.1-0.4-0.4c0-0.2,0.1-0.4,0.4-0.4h2
			C87.8,42.3,87.9,42.4,87.9,42.6z M87.2,43.8c0.5,0,0.7,0.2,0.7,0.7v2.3c0,0.4-0.2,0.7-0.7,0.7h-1.3c-0.5,0-0.7-0.2-0.7-0.7v-2.3
			c0-0.4,0.2-0.7,0.7-0.7H87.2z M87.9,37.7c0,0.2-0.1,0.4-0.4,0.4h-1.9c-0.2,0-0.4-0.1-0.4-0.4c0-0.2,0.1-0.4,0.4-0.4h1.9
			C87.7,37.4,87.9,37.5,87.9,37.7z M87.2,46.5v-1.6c0-0.2-0.1-0.3-0.3-0.3h-0.7c-0.2,0-0.2,0.1-0.2,0.3v1.6c0,0.2,0.1,0.3,0.2,0.3
			h0.7C87.1,46.8,87.2,46.7,87.2,46.5z M91.1,38.8c0.3,0,0.5,0.1,0.5,0.4v1c0,0.3-0.2,0.5-0.5,0.5H91v0.6h1.7v-0.6h-0.1
			c-0.3,0-0.5-0.2-0.5-0.5v-1c0-0.3,0.2-0.4,0.5-0.4h2.1c0.3,0,0.5,0.1,0.5,0.4v1c0,0.3-0.2,0.5-0.5,0.5h-1.2v0.6H95
			c0.2,0,0.3,0.1,0.3,0.3c0,0.2-0.1,0.4-0.3,0.4h-1.5v0.5h1.3c0.2,0,0.3,0.1,0.3,0.3c0,0.2-0.1,0.4-0.3,0.4h-1.3v0.6h1.7
			c0.2,0,0.3,0.1,0.3,0.3c0,0.2-0.1,0.4-0.3,0.4h-2.7c0.3,0.5,0.5,0.9,0.8,1.2c0.5-0.3,0.9-0.5,1.2-0.8c0.1-0.1,0.2-0.2,0.3-0.2
			c0.2,0,0.4,0.1,0.4,0.4c0,0.1-0.1,0.2-0.2,0.3c-0.4,0.2-0.8,0.5-1.2,0.7c0.4,0.3,0.9,0.5,1.5,0.7c0.1,0,0.2,0,0.3,0.1
			c0.1,0.1,0.2,0.2,0.2,0.3c0,0.1,0,0.2-0.1,0.3c-0.1,0-0.2,0.1-0.3,0.1c-0.4,0-0.8-0.1-1.3-0.4c-0.4-0.3-0.8-0.6-1.1-0.9
			c-0.4-0.4-0.8-1-1.2-1.8h-0.5c-0.1,0.2-0.2,0.4-0.4,0.5c-0.1,0.1-0.2,0.2-0.3,0.2v1.3c0.4-0.1,0.8-0.2,1.1-0.3c0.1,0,0.1,0,0.2,0
			c0.2,0,0.3,0.1,0.3,0.3c0,0.2-0.1,0.3-0.2,0.4c-0.4,0.2-0.8,0.3-1.4,0.4c-0.4,0.1-1,0.2-1.6,0.3c-0.2,0-0.4-0.2-0.4-0.4
			c0-0.2,0.1-0.4,0.3-0.4c0.4,0,0.7-0.1,1-0.1c0,0,0,0,0-0.1v-0.9c-0.3,0.2-0.7,0.3-1,0.3c-0.1,0-0.2,0-0.3,0c-0.1,0-0.2,0-0.2-0.1
			c-0.1-0.1-0.1-0.2-0.1-0.3c0-0.2,0.1-0.3,0.3-0.3c0.4-0.1,0.8-0.2,1.2-0.4c0.2-0.1,0.4-0.2,0.6-0.4c0,0,0,0,0-0.1h-1.8
			c-0.2,0-0.3-0.1-0.3-0.4c0-0.2,0.1-0.3,0.3-0.3h1.7v-0.6h-1.1c-0.2,0-0.3-0.1-0.3-0.4c0-0.2,0.1-0.3,0.3-0.3h1.1V42h-1.6
			c-0.2,0-0.3-0.1-0.3-0.4c0-0.2,0.1-0.3,0.3-0.3h1.6v-0.6h-1.1c-0.3,0-0.5-0.2-0.5-0.5v-1c0-0.3,0.2-0.4,0.5-0.4H91.1z M92.3,37.4
			v0.2h2.8c0.2,0,0.3,0.1,0.3,0.3c0,0.2-0.1,0.4-0.3,0.4h-6.4c-0.2,0-0.3-0.1-0.3-0.4c0-0.2,0.1-0.3,0.3-0.3h2.7v-0.2
			c0-0.3,0.2-0.5,0.5-0.5C92.1,37,92.3,37.1,92.3,37.4z M90.9,39.9v-0.4c0-0.1,0-0.1-0.1-0.1h-1.4c-0.1,0-0.1,0-0.1,0.1v0.4
			c0,0.1,0,0.2,0.1,0.2h1.4C90.9,40,90.9,40,90.9,39.9z M92.7,42H91v0.5h1.7V42z M92.7,43.7v-0.6H91v0.6H92.7z M94.5,39.9v-0.4
			c0-0.1,0-0.1-0.1-0.1h-1.5c-0.1,0-0.1,0-0.1,0.1v0.4c0,0.1,0,0.2,0.1,0.2h1.5C94.5,40,94.5,40,94.5,39.9z"/>
		<path fill="#595757" d="M103.8,37c0.1,0.1,0.2,0.2,0.2,0.3c0,0.1,0,0.1,0,0.2c-0.2,0.6-0.4,1.1-0.7,1.6v4.5c0,0.3-0.1,0.4-0.4,0.4
			s-0.4-0.1-0.4-0.4v-3.3c-0.2,0.2-0.3,0.4-0.5,0.5c-0.1,0.1-0.2,0.2-0.3,0.2c-0.3,0-0.5-0.1-0.5-0.4c0-0.1,0-0.2,0.1-0.3
			c0.4-0.4,0.8-0.9,1.1-1.4c0.3-0.5,0.6-1.1,0.8-1.8c0-0.2,0.1-0.3,0.3-0.3C103.6,36.9,103.7,37,103.8,37z M103,44.7
			c0.1,0.1,0.2,0.2,0.2,0.3c0,0.1,0,0.1,0,0.2c-0.1,0.4-0.3,0.8-0.5,1.2c-0.2,0.3-0.4,0.6-0.6,0.9c-0.1,0.1-0.2,0.2-0.3,0.2
			c-0.3,0-0.5-0.1-0.5-0.4c0-0.1,0-0.2,0.1-0.2c0.2-0.2,0.4-0.5,0.6-0.8c0.2-0.3,0.3-0.7,0.5-1.1c0-0.2,0.1-0.3,0.3-0.3
			C102.9,44.5,102.9,44.6,103,44.7z M106.1,37c0.1,0.1,0.2,0.2,0.2,0.3c0,0.1,0,0.1,0,0.2c0,0.2-0.1,0.3-0.1,0.5h5.1
			c0.5,0,0.7,0.3,0.7,0.8c0,0.1,0,0.2-0.1,0.4c-0.1,0.3-0.2,0.6-0.3,0.9c-0.1,0.1-0.2,0.2-0.4,0.2c-0.3,0-0.5-0.1-0.5-0.4
			c0,0,0-0.1,0-0.2c0.1-0.2,0.2-0.4,0.2-0.5c0-0.1,0-0.1,0-0.2c0-0.2-0.1-0.3-0.2-0.3h-5c0,0-0.1,0-0.1,0c-0.1,0.2-0.1,0.3-0.2,0.4
			c-0.2,0.4-0.5,0.8-0.8,1.2c-0.1,0.1-0.2,0.2-0.3,0.2c-0.3,0-0.5-0.1-0.5-0.4c0-0.1,0-0.2,0.1-0.2c0.3-0.3,0.6-0.7,0.8-1.1
			c0.3-0.4,0.5-0.9,0.6-1.5c0-0.2,0.1-0.3,0.3-0.3C105.9,36.9,106,37,106.1,37z M104.9,44.4v1.6c0,0.3,0.1,0.5,0.3,0.6
			c0.3,0.1,0.9,0.1,1.7,0.1c0.8,0,1.3,0,1.7,0c0.2,0,0.3,0,0.4-0.1c0.1-0.1,0.1-0.3,0.1-0.6c0-0.3,0.2-0.4,0.4-0.4
			c0.3,0,0.4,0.2,0.4,0.5c0,0.2,0,0.5-0.1,0.7c-0.1,0.3-0.2,0.5-0.6,0.7c-0.3,0.1-1,0.2-2.1,0.2c-1.3,0-2.1-0.1-2.5-0.2
			c-0.4-0.2-0.6-0.6-0.6-1.2v-1.7c0-0.3,0.1-0.4,0.4-0.4C104.8,43.9,104.9,44.1,104.9,44.4z M106.7,39.6c0.1,0.1,0.2,0.2,0.2,0.3
			c0,0.1,0,0.1,0,0.2c-0.2,0.6-0.4,1.2-0.7,1.7c-0.3,0.5-0.6,0.9-0.9,1.2c-0.1,0.1-0.2,0.2-0.3,0.2c-0.3,0-0.5-0.1-0.5-0.4
			c0-0.1,0-0.2,0.1-0.3c0.3-0.3,0.6-0.7,0.9-1.2c0.3-0.4,0.5-1,0.7-1.6c0-0.2,0.1-0.3,0.3-0.3C106.5,39.5,106.6,39.6,106.7,39.6z
			 M107,44.1c0.4,0.4,0.7,0.8,0.9,1.3c0,0.1,0,0.2,0,0.3c0,0.2-0.2,0.4-0.5,0.4c-0.1,0-0.3-0.1-0.3-0.3c-0.3-0.5-0.5-0.9-0.8-1.2
			c-0.1-0.1-0.1-0.2-0.1-0.3c0-0.2,0.1-0.3,0.4-0.3C106.8,43.9,106.9,44,107,44.1z M108.8,39.5v3c0,0.7-0.3,1.1-0.8,1.1
			c-0.3,0-0.7-0.1-1.2-0.2c-0.2-0.1-0.3-0.2-0.3-0.4c0-0.3,0.1-0.4,0.3-0.4c0,0,0.1,0,0.2,0c0.4,0.1,0.7,0.2,0.8,0.2
			c0.2,0,0.2-0.2,0.2-0.7v-2.5c0-0.3,0.1-0.5,0.4-0.5C108.6,39.1,108.8,39.2,108.8,39.5z M110.5,39.8c0.4,0.8,0.8,1.8,1.1,2.8
			c0,0.1,0,0.2,0,0.3c0,0.3-0.2,0.4-0.5,0.4c-0.1,0-0.2-0.1-0.3-0.3c-0.3-1.2-0.6-2.1-1-2.8c-0.1-0.1-0.1-0.2-0.1-0.3
			c0-0.2,0.1-0.3,0.4-0.3C110.3,39.6,110.4,39.7,110.5,39.8z M110.7,44.4c0.5,0.6,0.9,1.4,1.3,2.2c0,0.1,0,0.2,0,0.3
			c0,0.2-0.2,0.4-0.5,0.4c-0.1,0-0.2-0.1-0.3-0.3c-0.4-0.9-0.8-1.6-1.2-2.1c-0.1-0.1-0.1-0.2-0.1-0.3c0-0.2,0.2-0.4,0.5-0.4
			C110.5,44.2,110.6,44.3,110.7,44.4z"/>
		<path fill="#595757" d="M120.6,37.3v1h1.1c0.2,0,0.4,0.1,0.4,0.4c0,0.3-0.1,0.4-0.4,0.4h-1.8c0,0.5,0,1,0,1.5h1.1
			c0.5,0,0.8,0.2,0.8,0.7c0,1.9-0.1,3.3-0.2,4.4c-0.1,0.7-0.2,1.2-0.4,1.4c-0.2,0.3-0.5,0.4-0.9,0.4c-0.2,0-0.4,0-0.6-0.1
			c-0.2-0.1-0.3-0.2-0.3-0.4c0-0.3,0.1-0.5,0.4-0.5c0.3,0.1,0.5,0.1,0.6,0.1c0.2,0,0.3-0.1,0.4-0.3c0.1-0.2,0.2-0.6,0.2-1
			c0.1-0.7,0.1-1.9,0.1-3.8c0-0.2-0.1-0.3-0.3-0.3h-0.9c0,0.6-0.1,1.2-0.1,1.8c-0.2,1.6-0.6,3.1-1.1,4.3c-0.1,0.1-0.2,0.2-0.3,0.2
			c-0.3,0-0.5-0.2-0.5-0.5c0,0,0-0.1,0.1-0.2c0.5-1.2,0.8-2.6,1-4.1c0.1-1.2,0.2-2.4,0.2-3.8h-0.6c-0.2,0-0.4-0.1-0.4-0.4
			c0-0.2,0.1-0.4,0.4-0.4h1.3v-1c0-0.3,0.1-0.4,0.4-0.4C120.4,36.9,120.6,37.1,120.6,37.3z M123.9,37.2c0,0.3-0.1,0.6-0.1,0.9h4.2
			c0.2,0,0.4,0.1,0.4,0.4c0,0.3-0.1,0.4-0.4,0.4h-4.4c0,0,0,0,0,0.1c-0.2,0.6-0.6,1.1-0.9,1.5c-0.2,0.2-0.3,0.2-0.5,0.2
			c-0.3,0-0.5-0.2-0.5-0.5c0,0,0.1-0.1,0.2-0.3c0.4-0.4,0.7-0.8,0.9-1.3c0.2-0.4,0.3-0.9,0.3-1.5c0-0.2,0.1-0.4,0.4-0.4
			C123.7,36.8,123.9,37,123.9,37.2z M127.7,40c0,0.3-0.2,0.4-0.5,0.5c-0.6,0.2-1.2,0.3-1.8,0.4c0.1,0.9,0.3,1.6,0.4,2.1
			c0.6-0.4,1-0.8,1.4-1.2c0.1-0.1,0.2-0.2,0.3-0.2c0.3,0,0.4,0.1,0.4,0.4c0,0.1-0.1,0.3-0.2,0.4c-0.5,0.4-1,0.9-1.7,1.3
			c0.1,0.3,0.3,0.7,0.5,1c0.3,0.6,0.8,1.3,1.5,2.1c0.2,0.1,0.3,0.2,0.3,0.4c0,0.3-0.1,0.4-0.4,0.4c-0.1,0-0.2,0-0.4-0.1
			c-0.6-0.6-1.1-1.2-1.4-1.8c-0.4-0.6-0.7-1.3-0.9-2.1c-0.2-0.6-0.4-1.5-0.5-2.6c-0.2,0-0.4,0-0.6,0c-0.2,0-0.3,0.1-0.3,0.3v4.9
			c0.3-0.2,0.7-0.4,1.2-0.8l0.1,0c0.3,0,0.4,0.2,0.4,0.5c0,0.1-0.1,0.2-0.2,0.3c-0.3,0.2-0.6,0.5-1.1,0.7c-0.6,0.3-1.1,0.6-1.6,0.7
			c-0.1,0-0.2,0.1-0.2,0.1c-0.3,0-0.4-0.1-0.4-0.4c0-0.2,0.1-0.4,0.3-0.5c0.2-0.1,0.4-0.2,0.6-0.2c0,0,0-0.1,0-0.1v-5.4
			c0-0.3,0.1-0.5,0.2-0.6c0.1-0.1,0.3-0.2,0.7-0.2c1.2,0,2.3-0.2,3.5-0.6C127.6,39.6,127.7,39.8,127.7,40z"/>
		<path fill="#595757" d="M135.9,42.4c0.4,0,0.6,0.2,0.6,0.6v2.2c0,0.4,0.2,0.8,0.6,1.1c0.5,0.3,1.1,0.5,2,0.5h5.5
			c0.3,0,0.4,0.1,0.4,0.4c0,0.3-0.1,0.4-0.4,0.4h-5.1c-0.6,0-1.2-0.1-1.7-0.3c-0.5-0.2-0.9-0.4-1.3-0.8l-0.2-0.1c0,0-0.1,0-0.1,0.1
			c-0.3,0.4-0.6,0.7-0.9,0.9c-0.2,0.1-0.3,0.2-0.4,0.2c-0.3,0-0.4-0.2-0.5-0.4c0-0.2,0.1-0.3,0.3-0.4c0.4-0.2,0.6-0.4,0.8-0.6
			c0.2-0.2,0.3-0.5,0.3-1.1v-1.8c0-0.1-0.1-0.2-0.2-0.2h-0.8c-0.3,0-0.4-0.1-0.4-0.4c0-0.3,0.1-0.4,0.4-0.4H135.9z M135.1,39.7
			c0.4,0.2,0.7,0.5,1,0.7c0.1,0.1,0.2,0.2,0.2,0.4c0,0.2-0.1,0.4-0.4,0.4c-0.1,0-0.2,0-0.3-0.1c-0.3-0.2-0.6-0.5-0.9-0.7
			c-0.2-0.1-0.3-0.2-0.3-0.3c0-0.3,0.2-0.4,0.5-0.4C134.9,39.6,135,39.7,135.1,39.7z M135.6,37.4c0.3,0.2,0.6,0.5,0.9,0.7
			c0.1,0.1,0.2,0.2,0.2,0.4c0,0.3-0.1,0.4-0.4,0.4c-0.1,0-0.2,0-0.3-0.1c-0.3-0.2-0.6-0.5-0.9-0.7c-0.2-0.1-0.3-0.2-0.3-0.3
			c0-0.3,0.2-0.4,0.5-0.4C135.4,37.3,135.5,37.4,135.6,37.4z M139.4,37.6v0.9h1.2c0.2,0,0.4,0.1,0.4,0.4c0,0.3-0.1,0.4-0.4,0.4h-1.8
			v1.2h1c0.5,0,0.8,0.2,0.8,0.7c0,1.5-0.1,2.7-0.2,3.5c-0.1,0.6-0.2,1-0.4,1.2c-0.2,0.2-0.5,0.3-0.8,0.3c-0.2,0-0.4-0.1-0.8-0.2
			c-0.2-0.1-0.3-0.2-0.3-0.4c0-0.3,0.1-0.4,0.4-0.4c0.3,0.2,0.6,0.2,0.7,0.2c0.2,0,0.3-0.1,0.4-0.2c0.1-0.2,0.1-0.4,0.2-0.8
			c0.1-0.5,0.1-1.5,0.1-2.9c0-0.2-0.1-0.2-0.3-0.2h-0.7c0,0.7-0.1,1.4-0.3,2.1c-0.2,0.8-0.5,1.5-0.8,2.1c-0.1,0.2-0.2,0.2-0.3,0.2
			c-0.3,0-0.5-0.2-0.5-0.4c0-0.1,0-0.2,0.1-0.3c0.4-0.8,0.8-1.7,0.9-2.5c0.1-0.7,0.2-1.3,0.2-2v-1.1h-0.7c-0.2,0-0.4-0.1-0.4-0.4
			c0-0.2,0.1-0.4,0.4-0.4h1.2v-0.9c0-0.3,0.1-0.4,0.4-0.4C139.2,37.1,139.4,37.3,139.4,37.6z M142.7,37.2c0.1,0.1,0.1,0.2,0.1,0.3
			c0,0.1,0,0.1,0,0.2c-0.1,0.3-0.1,0.5-0.2,0.7h2c0.2,0,0.4,0.1,0.4,0.4c0,0.3-0.1,0.4-0.4,0.4h-2.4c-0.1,0.2-0.2,0.3-0.3,0.5
			c-0.2,0.2-0.4,0.4-0.6,0.6c-0.1,0.1-0.2,0.1-0.3,0.1c-0.1,0-0.2,0-0.3-0.1c-0.1-0.1-0.1-0.2-0.1-0.3c0-0.1,0-0.2,0.1-0.3
			c0.2-0.2,0.4-0.4,0.5-0.6c0.2-0.2,0.3-0.5,0.4-0.8c0.1-0.3,0.2-0.6,0.3-1c0-0.2,0.2-0.3,0.4-0.3C142.5,37.1,142.6,37.2,142.7,37.2
			z M144.8,43.2c0,0.2-0.1,0.4-0.4,0.4h-0.8c0.1,0.4,0.2,0.9,0.2,1.3c0,0.3-0.1,0.6-0.2,0.8c-0.1,0.2-0.3,0.4-0.5,0.5
			c-0.2,0.1-0.4,0.2-0.6,0.2c-0.2,0-0.5-0.1-0.8-0.2c-0.2-0.1-0.3-0.2-0.3-0.4c0-0.3,0.1-0.4,0.3-0.4c0.4,0.2,0.7,0.2,0.8,0.2
			c0.1,0,0.2,0,0.2-0.1c0.1,0,0.2-0.1,0.2-0.3c0.1-0.1,0.1-0.2,0.1-0.4c0-0.5-0.1-0.9-0.2-1.3h-1.6c-0.2,0-0.4-0.1-0.4-0.4
			c0-0.2,0.1-0.4,0.4-0.4h1.3c-0.1-0.1-0.1-0.2-0.2-0.3c-0.2-0.2-0.4-0.4-0.6-0.6c-0.1,0-0.1-0.1-0.1-0.2c0-0.3,0.2-0.4,0.4-0.4
			c0.1,0,0.2,0,0.3,0.1c0.1,0.1,0.2,0.2,0.2,0.2c0,0,0,0,0.1,0c0.2-0.1,0.4-0.2,0.5-0.3c0.1-0.1,0.3-0.3,0.4-0.4
			c0.1-0.1,0.1-0.2,0.1-0.2c0,0,0,0-0.1,0h-1.6c-0.2,0-0.3-0.1-0.3-0.4c0-0.2,0.1-0.3,0.3-0.3h2.2c0.3,0,0.5,0.1,0.5,0.4
			c0,0.1,0,0.3-0.1,0.4c-0.1,0.2-0.3,0.5-0.6,0.8c-0.3,0.3-0.5,0.5-0.8,0.7c0.1,0.2,0.2,0.3,0.3,0.5h1.1
			C144.7,42.9,144.8,43,144.8,43.2z"/>
		<path fill="#595757" d="M153.4,37c0.1,0.1,0.1,0.2,0.1,0.3c0,0.1,0,0.2,0,0.3c-0.1,0.2-0.1,0.4-0.2,0.5h6.7c0.5,0,0.8,0.3,0.8,1
			c0,1.4,0,2.6-0.1,3.7c-0.1,1-0.3,1.6-0.6,2c-0.3,0.3-0.7,0.5-1.3,0.5c-0.5,0-1-0.1-1.6-0.2c-0.2-0.1-0.3-0.2-0.3-0.4
			c0-0.3,0.2-0.5,0.5-0.5c0.6,0.2,1.1,0.2,1.4,0.2c0.4,0,0.6-0.1,0.8-0.4c0.1-0.3,0.2-0.8,0.3-1.5c0.1-0.8,0.1-1.8,0.1-3
			c0-0.3-0.1-0.5-0.4-0.5H153c-0.1,0-0.1,0-0.1,0c0,0,0,0,0,0.1c-0.2,0.4-0.5,0.8-0.8,1.1c-0.3,0.3-0.6,0.6-0.9,0.8
			c-0.1,0.1-0.2,0.1-0.3,0.1c-0.1,0-0.2,0-0.3-0.1c-0.1-0.1-0.1-0.2-0.1-0.3c0-0.1,0-0.2,0.1-0.3c0.3-0.2,0.6-0.5,0.8-0.7
			c0.3-0.3,0.5-0.7,0.7-1c0.2-0.4,0.4-0.8,0.5-1.3c0.1-0.2,0.2-0.3,0.4-0.3C153.2,36.9,153.3,36.9,153.4,37z M152,40.7
			c0-0.5,0.3-0.8,0.8-0.8h4.2c0.5,0,0.8,0.3,0.8,0.8v2c0,0.5-0.3,0.8-0.8,0.8h-4.2V46c0,0.3,0.2,0.5,0.7,0.6
			c0.6,0.1,1.7,0.1,3.3,0.1c1.4,0,2.3,0,2.9-0.1c0.3,0,0.6-0.1,0.7-0.3c0.2-0.1,0.2-0.6,0.2-1.5c0-0.3,0.2-0.4,0.4-0.4
			c0.3,0,0.4,0.2,0.4,0.5c0,0.4,0,0.8-0.1,1.2c-0.1,0.5-0.4,0.9-0.9,1.2c-0.4,0.2-1.6,0.3-3.4,0.3c-2.1,0-3.4-0.1-4.1-0.2
			c-0.7-0.2-1-0.6-1-1.2V44V40.7z M156.6,42.7c0.2,0,0.3-0.1,0.3-0.3v-1.2c0-0.2-0.1-0.3-0.3-0.3h-3.4c-0.2,0-0.4,0.1-0.4,0.4v1.5
			H156.6z"/>
		<path fill="#595757" d="M177.8,38.2c0,0.3-0.1,0.4-0.4,0.4H173v1h3.4c0.5,0,0.8,0.2,0.8,0.7v3.2c0,0.5-0.3,0.8-0.8,0.8H173v1h4.6
			c0.3,0,0.4,0.1,0.4,0.4c0,0.3-0.1,0.4-0.4,0.4H173v1.2c0,0.3-0.2,0.4-0.5,0.4c-0.3,0-0.4-0.1-0.4-0.4v-1.2h-4.5
			c-0.3,0-0.4-0.1-0.4-0.4c0-0.3,0.1-0.4,0.4-0.4h4.5v-1h-3.4c-0.5,0-0.8-0.3-0.8-0.8v-3.2c0-0.5,0.3-0.7,0.8-0.7h3.4v-1h-4.5
			c-0.2,0-0.4-0.1-0.4-0.4c0-0.2,0.1-0.4,0.4-0.4h4.5v-0.6c0-0.3,0.1-0.4,0.4-0.4c0.3,0,0.5,0.1,0.5,0.4v0.6h4.4
			C177.7,37.9,177.8,38,177.8,38.2z M172.1,41.5v-1.1h-3c-0.2,0-0.3,0.1-0.3,0.3v0.8H172.1z M172.1,42.3h-3.3v0.9
			c0,0.2,0.1,0.4,0.3,0.4h3V42.3z M173,41.5h3.3v-0.8c0-0.2-0.1-0.3-0.3-0.3h-3V41.5z M176.3,43.2v-0.9H173v1.3h3
			C176.2,43.5,176.3,43.4,176.3,43.2z"/>
		<path fill="#595757" d="M184.3,40c0,0-0.1,0-0.1,0c-0.3,0-0.4-0.1-0.4-0.4c0-0.1,0.1-0.3,0.2-0.4c0.4-0.3,0.6-0.6,0.8-1
			c0.1-0.2,0.3-0.6,0.4-1.1c0.1-0.1,0.2-0.2,0.3-0.2c0.3,0,0.4,0.1,0.4,0.4c0,0.1,0,0.2-0.1,0.3c0,0.1,0,0.1-0.1,0.2h2
			c0.4,0,0.6,0.2,0.6,0.5c0,0.1-0.1,0.3-0.2,0.6c-0.3,0.5-0.6,1-1,1.4c-0.3,0.4-0.7,0.7-1.1,1c-0.6,0.4-1.1,0.7-1.6,0.8
			c-0.2,0.1-0.3,0.1-0.4,0.1c-0.3,0-0.5-0.2-0.5-0.5c0-0.2,0.1-0.3,0.4-0.4c0.5-0.2,0.9-0.3,1.2-0.5c0.2-0.1,0.4-0.2,0.6-0.4
			c-0.3-0.4-0.6-0.8-1-1.2C184.7,39.8,184.5,39.9,184.3,40z M184.4,45c-0.1,0-0.1,0-0.2,0c-0.3,0-0.4-0.1-0.4-0.4
			c0-0.1,0.1-0.3,0.2-0.4c0.6-0.4,1.1-0.7,1.4-1.1c0.2-0.3,0.5-0.7,0.8-1.2c0.1-0.1,0.2-0.2,0.3-0.2c0.3,0,0.4,0.1,0.4,0.4
			c0,0.1,0,0.2-0.1,0.3c0,0.1,0,0.1-0.1,0.1h1.3c0.5,0,0.8,0.2,0.8,0.7c0,0.4-0.1,0.8-0.2,1.2c-0.2,0.6-0.4,1.1-0.8,1.5
			c-0.4,0.5-0.8,0.8-1.3,1.1c-0.6,0.3-1.4,0.5-2.2,0.6c-0.4,0-0.6-0.2-0.6-0.5c0-0.3,0.1-0.4,0.4-0.4c0.6,0,1.1-0.1,1.5-0.2
			c0.2-0.1,0.5-0.2,0.7-0.3c-0.4-0.6-0.8-1.2-1.2-1.7C184.9,44.7,184.7,44.9,184.4,45z M186.5,40.2c0.3-0.3,0.7-0.7,1-1.2
			c0.1-0.2,0.1-0.2,0.1-0.3c0,0,0,0-0.1,0h-1.8c0,0-0.1,0-0.1,0c-0.1,0.1-0.2,0.3-0.2,0.4c0,0,0.1,0.1,0.1,0.1
			c0.3,0.4,0.7,0.8,1,1.2c0,0,0,0,0,0C186.4,40.3,186.4,40.3,186.5,40.2z M185.9,43.9c0,0-0.1,0.1-0.1,0.1c0.4,0.5,0.8,1,1.2,1.7
			c0,0,0,0,0,0.1c0.3-0.3,0.6-0.7,0.8-1.2c0.2-0.4,0.3-0.7,0.3-1c0-0.1-0.1-0.1-0.2-0.1h-1.3c-0.1,0-0.1,0-0.2,0
			C186.2,43.6,186,43.8,185.9,43.9z M190.3,37.1c0.1,0.1,0.2,0.2,0.2,0.3c0,0.1,0,0.1,0,0.2c0,0.1-0.1,0.2-0.1,0.3h3.1
			c0.5,0,0.8,0.3,0.8,0.9c0,2,0,3.8-0.1,5.4c-0.1,1.4-0.2,2.4-0.5,2.8c-0.3,0.5-0.7,0.7-1.2,0.7c-0.5,0-1-0.1-1.6-0.2
			c-0.2-0.1-0.3-0.2-0.3-0.4c0-0.3,0.1-0.5,0.4-0.5c0.6,0.2,1.1,0.3,1.4,0.3c0.3,0,0.6-0.2,0.7-0.6c0.1-0.4,0.2-1.2,0.3-2.4
			c0-1.3,0.1-2.9,0.1-4.7c0-0.3-0.1-0.4-0.4-0.4h-2.8c0,0-0.1,0-0.1,0c0,0.1-0.1,0.2-0.2,0.4c-0.2,0.4-0.4,0.8-0.6,1.1
			c-0.1,0.1-0.2,0.2-0.3,0.2c-0.3,0-0.5-0.1-0.5-0.4c0-0.1,0-0.2,0.1-0.3c0.2-0.3,0.4-0.7,0.6-1c0.2-0.4,0.3-0.9,0.4-1.4
			c0-0.2,0.2-0.3,0.3-0.3C190.1,37,190.2,37,190.3,37.1z M191.6,39.9c0.5,0,0.7,0.2,0.7,0.6v4.1c0,0.4-0.2,0.6-0.7,0.6h-1.4
			c-0.4,0-0.6-0.2-0.6-0.6v-4.1c0-0.4,0.2-0.6,0.6-0.6H191.6z M191.5,44.3v-3.4c0-0.2-0.1-0.3-0.3-0.3h-0.6c-0.2,0-0.2,0.1-0.2,0.3
			v3.4c0,0.2,0.1,0.3,0.2,0.3h0.6C191.4,44.6,191.5,44.5,191.5,44.3z"/>
		<path fill="#595757" d="M201.9,36.9c0.1,0.1,0.1,0.2,0.1,0.3c0,0.1,0,0.1,0,0.2c0,0,0,0,0,0h2.8c0.2,0,0.4,0.1,0.4,0.4
			c0,0.2-0.1,0.4-0.4,0.4h-1.5c0.1,0.2,0.1,0.4,0.2,0.6c0,0.1,0,0.2,0,0.2c0,0.2-0.1,0.3-0.4,0.3c-0.1,0-0.2-0.1-0.3-0.2
			c-0.1-0.3-0.2-0.5-0.3-0.7c0,0,0-0.1,0-0.1h-1c-0.1,0.2-0.3,0.4-0.5,0.6c-0.2,0.2-0.3,0.3-0.6,0.4c-0.1,0.1-0.2,0.1-0.3,0.1
			c-0.1,0-0.2,0-0.3-0.1c-0.1-0.1-0.1-0.2-0.1-0.3c0-0.1,0-0.2,0.1-0.3c0.2-0.1,0.3-0.2,0.5-0.4c0.2-0.2,0.3-0.3,0.4-0.5
			c0.1-0.2,0.2-0.4,0.3-0.6c0-0.2,0.2-0.3,0.4-0.3C201.8,36.8,201.9,36.9,201.9,36.9z M201.3,47.4c0,0.2-0.1,0.3-0.4,0.3
			c-0.3,0-0.4-0.1-0.4-0.3v-7c0-0.7,0.4-1,1.1-1h2.4c0.6,0,0.9,0.3,0.9,0.8v2c0,0.5-0.3,0.8-0.9,0.8h-2.6V47.4z M201.6,40
			c-0.2,0-0.3,0.1-0.3,0.4v0.5h2.7v-0.5c0-0.2-0.1-0.3-0.2-0.3h-0.4H201.6z M201.3,41.5v0.8h2.4c0.2,0,0.2-0.1,0.2-0.3v-0.5H201.3z
			 M207.5,43.2c0.4,0,0.6,0.2,0.6,0.6v2.5c0,0.4-0.2,0.6-0.6,0.6h-4.3c-0.4,0-0.6-0.2-0.6-0.6v-2.5c0-0.4,0.2-0.6,0.6-0.6H207.5z
			 M207.3,44.7v-0.5c0-0.2-0.1-0.3-0.2-0.3h-3.4c-0.2,0-0.2,0.1-0.2,0.3v0.5H207.3z M207.3,45.8v-0.5h-3.9v0.5
			c0,0.2,0.1,0.3,0.2,0.3h3.4C207.3,46.2,207.3,46.1,207.3,45.8z M206.9,36.9c0.1,0.1,0.1,0.2,0.1,0.3c0,0.1,0,0.1,0,0.2
			c0,0,0,0,0,0h3.5c0.2,0,0.4,0.1,0.4,0.4c0,0.2-0.1,0.4-0.4,0.4h-1.9c0.1,0.2,0.1,0.3,0.2,0.5c0,0.1,0,0.2,0,0.2
			c0,0.2-0.1,0.3-0.4,0.3c-0.1,0-0.2-0.1-0.3-0.2c-0.1-0.3-0.2-0.5-0.2-0.6c0-0.1-0.1-0.1-0.1-0.2h-1.2c-0.1,0.2-0.3,0.4-0.5,0.5
			c-0.2,0.2-0.4,0.3-0.6,0.4c-0.1,0.1-0.2,0.1-0.3,0.1c-0.1,0-0.2,0-0.3-0.1c-0.1-0.1-0.1-0.2-0.1-0.3s0-0.2,0.1-0.3
			c0.2-0.1,0.3-0.2,0.5-0.4c0.2-0.2,0.3-0.3,0.4-0.5c0.1-0.2,0.2-0.4,0.3-0.6c0-0.2,0.2-0.3,0.4-0.3
			C206.7,36.8,206.8,36.9,206.9,36.9z M209.4,39.4c0.7,0,1.1,0.3,1.1,1v6.2c0,0.8-0.4,1.2-1.1,1.2c-0.3,0-0.8,0-1.3-0.1
			c-0.2-0.1-0.3-0.2-0.3-0.4c0-0.3,0.1-0.4,0.3-0.4c0,0,0.1,0,0.2,0c0.5,0,0.9,0.1,1,0.1c0.2,0,0.4-0.2,0.4-0.6v-3.4H207
			c-0.6,0-0.9-0.3-0.9-0.8v-1.9c0-0.5,0.3-0.8,0.9-0.8h0.4H209.4z M209.7,40.9v-0.5c0-0.2-0.1-0.4-0.3-0.4h-2.2
			c-0.2,0-0.3,0.1-0.3,0.4v0.5H209.7z M209.7,41.5H207v0.4c0,0.2,0.1,0.4,0.3,0.4h2.4V41.5z"/>
		<path fill="#595757" d="M225.9,40.2c0.5,0,0.8,0.2,0.8,0.7v2.5c0,0.5-0.3,0.8-0.8,0.8h-3.5v0.8h4.6c0.3,0,0.4,0.1,0.4,0.4
			c0,0.3-0.1,0.4-0.4,0.4h-4.6v1.4c0,0.3-0.1,0.4-0.4,0.4c-0.3,0-0.4-0.1-0.4-0.4v-1.4h-4.4c-0.3,0-0.4-0.1-0.4-0.4
			c0-0.3,0.1-0.4,0.4-0.4h4.4v-0.8h-3.4c-0.5,0-0.8-0.3-0.8-0.8V41c0-0.5,0.3-0.7,0.8-0.7H225.9z M220.7,37.2c0.5,0,0.8,0.2,0.8,0.7
			v0.9c0,0.5-0.3,0.7-0.8,0.7h-2.8c-0.5,0-0.8-0.2-0.8-0.7V38c0-0.5,0.3-0.7,0.8-0.7H220.7z M220.6,38.6v-0.4c0-0.2-0.1-0.3-0.2-0.3
			h-2.3c-0.2,0-0.2,0.1-0.2,0.3v0.4c0,0.2,0.1,0.3,0.2,0.3h2.3C220.6,38.9,220.6,38.8,220.6,38.6z M221.5,41.9V41h-3.2
			c-0.2,0-0.2,0.1-0.2,0.2v0.6H221.5z M221.5,42.6h-3.4v0.6c0,0.2,0.1,0.3,0.2,0.3h3.2V42.6z M222.4,41.9h3.5v-0.6
			c0-0.2-0.1-0.2-0.2-0.2h-3.3V41.9z M225.8,43.2v-0.6h-3.5v0.9h3.3C225.8,43.5,225.8,43.4,225.8,43.2z M226.1,37.2
			c0.5,0,0.7,0.2,0.7,0.7v1c0,0.5-0.2,0.7-0.7,0.7h-2.9c-0.5,0-0.7-0.2-0.7-0.7v-1c0-0.5,0.2-0.7,0.7-0.7H226.1z M226,38.6v-0.3
			c0-0.2-0.1-0.3-0.2-0.3h-2.3c-0.2,0-0.2,0.1-0.2,0.3v0.3c0,0.2,0.1,0.3,0.2,0.3h2.3C225.9,38.8,226,38.8,226,38.6z"/>
	</g>
</g>
</svg>
