<?xml version="1.0" encoding="utf-8"?>
<!-- Generator: Adobe Illustrator 18.0.0, SVG Export Plug-In . SVG Version: 6.00 Build 0)  -->
<!DOCTYPE svg PUBLIC "-//W3C//DTD SVG 1.1//EN" "http://www.w3.org/Graphics/SVG/1.1/DTD/svg11.dtd">
<svg version="1.1" id="圖層_1" xmlns="http://www.w3.org/2000/svg" xmlns:xlink="http://www.w3.org/1999/xlink" x="0px" y="0px"
	 viewBox="0 0 255 55" enable-background="new 0 0 255 55" xml:space="preserve">
<g>
	<g>
		<path fill="#EFAA42" stroke="#FAD277" stroke-width="5" stroke-miterlimit="10" d="M61.7,52.5H37c-13.5,0-24.5-11-24.5-24.5v-1
			c0-13.5,11-24.5,24.5-24.5h24.7c13.5,0,24.5,11,24.5,24.5v1C86.2,41.5,75.2,52.5,61.7,52.5z"/>
		<g>
			<path fill="#221E1F" d="M47.7,28.5h-9.8c-0.7,0-1.2,0.6-1.2,1.2c0,0.7,0.6,1.2,1.2,1.2h7.9c-1.2,3.4-4.8,6-8.4,6
				c-2.4,0-4.7-1-6.4-2.8s-2.6-4.2-2.6-6.7s0.9-4.9,2.6-6.7c1.7-1.8,4-2.8,6.4-2.8c2.7,0,5.3,1.2,6.9,3.3c0.4,0.5,0.7,1,1,1.5v0.1
				c0.3,0.6,0.5,1.1,1.3,1.2c0.1,0,0.1,0,0.2,0c0.4,0,0.8-0.2,1.1-0.5c0.2-0.2,0.2-0.5,0.1-0.8c-1.5-4.4-5.8-7.3-10.6-7.3
				c-3.1,0-6,1.3-8.2,3.5c-2.2,2.3-3.3,5.3-3.3,8.4c0,3.2,1.2,6.2,3.3,8.4c2.2,2.3,5.1,3.6,8.2,3.6c4.4,0,9.2-3.3,10.7-7.4
				c0.3-0.8,0.5-1.6,0.6-2.4c0-0.3-0.1-0.6-0.3-0.8C48.2,28.6,48,28.5,47.7,28.5z"/>
			<path fill="#221E1F" d="M70.7,19c-2.3-2.3-5.3-3.5-8.5-3.5s-6.3,1.3-8.4,3.5c-2.3,2.3-3.5,5.3-3.5,8.5s1.2,6.2,3.5,8.5
				c2.2,2.3,5.3,3.6,8.4,3.6c3.2,0,6.2-1.3,8.5-3.5c2.3-2.3,3.5-5.3,3.5-8.5C74.2,24.3,72.9,21.3,70.7,19z M62.2,37.1
				c-2.5,0-4.9-1-6.7-2.8s-2.8-4.2-2.8-6.7s1-4.9,2.8-6.7c1.8-1.8,4.2-2.8,6.7-2.8c2.5,0,4.9,1,6.7,2.8s2.8,4.2,2.8,6.7
				s-1,4.9-2.8,6.7C67.1,36.1,64.7,37.1,62.2,37.1z"/>
		</g>
	</g>
	<g>
		<g>
			<path d="M240.4,8.7c-0.7,0-1.3,0.6-1.3,1.3v21.1c0,0.7,0.6,1.3,1.3,1.3s1.3-0.6,1.3-1.3V10C241.7,9.3,241.1,8.7,240.4,8.7z"/>
			<path d="M198,9.5c-0.2-0.5-0.7-0.8-1.2-0.8l0,0c-0.5,0-1,0.3-1.2,0.8l-6,13.7l0,0l-3.2,7.4c-0.3,0.7,0,1.4,0.7,1.7
				c0.6,0.3,1.4,0,1.7-0.7l2.9-6.6h10.2l2.8,6.6c0.2,0.5,0.7,0.8,1.2,0.8c0.2,0,0.3,0,0.5-0.1c0.7-0.3,1-1,0.7-1.7L198,9.5z
				 M192.8,22.4l4-9.2l3.9,9.2H192.8z"/>
			<g>
				<path d="M106.7,10.9c0.7,0,1.3-0.6,1.3-1.3s-0.6-1.3-1.3-1.3H94.8c-0.7,0-1.3,0.6-1.3,1.3v21.5c0,0.7,0.6,1.3,1.3,1.3h11.9
					c0.7,0,1.3-0.6,1.3-1.3c0-0.7-0.6-1.3-1.3-1.3H96.1v-8.1h7.2c0.7,0,1.3-0.6,1.3-1.3c0-0.7-0.6-1.3-1.3-1.3h-7.2V11h10.6V10.9z"
					/>
				<path d="M122,9c-0.2-0.5-0.7-0.8-1.2-0.8l0,0c-0.5,0-1,0.3-1.2,0.8l-6.1,14l0,0l-3.3,7.5c-0.3,0.7,0,1.4,0.7,1.7
					c0.7,0.3,1.4,0,1.7-0.7l3-6.8H126l2.9,6.7c0.2,0.5,0.7,0.8,1.2,0.8c0.2,0,0.4,0,0.5-0.1c0.7-0.3,1-1.1,0.7-1.7L122,9z
					 M116.6,22.2l4.1-9.4l4,9.4H116.6z"/>
				<path d="M168.2,8.5c-0.6-0.4-1.4-0.3-1.8,0.3L160,18l-6.2-9.2c-0.4-0.6-1.2-0.8-1.8-0.4c-0.6,0.4-0.8,1.2-0.4,1.8l7.1,10.5V31
					c0,0.7,0.6,1.3,1.3,1.3s1.3-0.6,1.3-1.3V20.8l7.3-10.5C168.9,9.7,168.8,8.9,168.2,8.5z"/>
				<path d="M141.5,17.6c-3.3-1-4.8-1.7-4.8-3.4l0,0c0-0.5,0.1-1.3,0.8-2c0.8-0.8,2.2-1.3,4-1.3c3.7,0,4.7,2,4.8,2.1
					c0.3,0.6,1.1,0.9,1.7,0.6c0.7-0.3,1-1.1,0.7-1.7c-0.1-0.1-1.7-3.6-7.2-3.6c-3.2,0-5,1.1-5.9,2c-1,1-1.6,2.4-1.5,3.9
					c0,3.9,3.7,5,6.6,5.9c3.6,1.1,5.8,2,5.8,4.9c0,1.4-0.4,2.5-1.2,3.3c-1.5,1.5-4.1,1.4-4.1,1.4s0,0-0.1,0c0,0-3.6,0-5.3-2.7
					c-0.4-0.6-1.2-0.8-1.8-0.4c-0.6,0.4-0.8,1.2-0.4,1.8c2.3,3.8,7,3.9,7.5,3.9c0,0,0.1,0,0.2,0c0.8,0,3.8-0.1,5.8-2.1
					c1.3-1.3,2-3,2-5.2C149.2,20,144.9,18.7,141.5,17.6z"/>
			</g>
			<path d="M186.5,8.7h-6.3c-0.1,0-0.1,0-0.2,0c-0.1,0-0.1,0-0.2,0h-6.4c-0.7,0-1.3,0.6-1.3,1.3s0.6,1.3,1.3,1.3h5.2v19.8
				c0,0.7,0.6,1.3,1.3,1.3s1.3-0.6,1.3-1.3V11.3h5.1c0.7,0,1.3-0.6,1.3-1.3C187.8,9.3,187.2,8.7,186.5,8.7z"/>
			<path d="M234.3,8.6c-0.5-0.5-1.3-0.5-1.8,0l-10.2,10.1L212.1,8.6c-0.5-0.5-1.3-0.5-1.8,0s-0.5,1.3,0,1.8l10.2,10l-9.9,9.7
				c-0.5,0.5-0.5,1.3,0,1.8c0.2,0.3,0.6,0.4,0.9,0.4c0.3,0,0.6-0.1,0.9-0.4l9.9-9.7l9.9,9.7c0.3,0.2,0.6,0.4,0.9,0.4
				c0.3,0,0.7-0.1,0.9-0.4c0.5-0.5,0.5-1.3,0-1.8l-9.9-9.7l10.2-10C234.8,10,234.8,9.1,234.3,8.6z"/>
		</g>
	</g>
	<g>
		<path fill="#58595B" d="M100.3,42.1H98v6.3c0,0.3-0.1,0.5-0.4,0.5s-0.4-0.2-0.4-0.5v-6.3h-2.3c-0.3,0-0.5-0.1-0.5-0.4
			c0-0.3,0.2-0.4,0.5-0.4h5.4c0.3,0,0.5,0.1,0.5,0.4C100.8,41.9,100.6,42.1,100.3,42.1z"/>
		<path fill="#58595B" d="M104.7,44.4c-0.4,0.1-0.8,0.2-1.1,0.4c-0.2,0.1-0.3,0.3-0.5,0.6s-0.3,0.6-0.3,0.8v2.1
			c0,0.3-0.1,0.5-0.4,0.5s-0.5-0.2-0.5-0.5v-4.4c0-0.3,0.1-0.5,0.4-0.5s0.4,0.2,0.4,0.5v0.7c0.4-0.7,1-1,1.8-1
			c0.3,0,0.5,0.2,0.5,0.5C105,44.3,104.9,44.4,104.7,44.4z"/>
		<path fill="#58595B" d="M110.1,48.9c-0.3,0-0.4-0.2-0.4-0.5V48c-0.3,0.3-0.6,0.5-1,0.6c-0.4,0.2-0.8,0.3-1.1,0.3
			c-0.5,0-0.9-0.1-1.2-0.3c-0.4-0.3-0.5-0.7-0.5-1.2c0-0.6,0.3-1.1,0.9-1.5c0.5-0.3,1.1-0.4,1.8-0.4h1.1c0-0.8-0.5-1.2-1.4-1.2
			c-0.3,0-0.6,0.1-0.9,0.2c-0.3,0.1-0.5,0.3-0.7,0.5c-0.1,0.2-0.2,0.2-0.3,0.2c-0.3,0-0.5-0.2-0.5-0.5c0-0.1,0.1-0.3,0.2-0.4
			c0.5-0.5,1.2-0.8,2.1-0.8c0.8,0,1.3,0.2,1.7,0.6c0.3,0.4,0.5,0.9,0.5,1.4v3C110.5,48.7,110.4,48.9,110.1,48.9z M109.7,46.3H109
			c-1.5,0-2.2,0.4-2.2,1c0,0.2,0.1,0.4,0.3,0.5c0.2,0.1,0.4,0.2,0.6,0.2c0.4,0,0.8-0.1,1.2-0.3c0.4-0.2,0.7-0.5,0.9-0.8v-0.6H109.7z
			"/>
		<path fill="#58595B" d="M116.6,44.2l-2.2,4.4c-0.1,0.2-0.2,0.2-0.3,0.2c-0.1,0-0.2-0.1-0.3-0.2l-2.1-4.3c-0.2-0.3-0.2-0.5-0.2-0.5
			c0-0.3,0.1-0.4,0.4-0.4c0.2,0,0.3,0.1,0.4,0.3l1.9,3.9l1.8-3.9c0.1-0.2,0.2-0.3,0.4-0.3c0.2,0,0.4,0.1,0.4,0.4
			C116.7,44,116.6,44.1,116.6,44.2z"/>
		<path fill="#58595B" d="M121.8,46.3h-3.4c0,0.5,0.2,0.9,0.5,1.2s0.7,0.5,1.1,0.5s0.7-0.1,0.9-0.3c0.1-0.1,0.3-0.4,0.5-0.7
			c0.1-0.1,0.2-0.2,0.4-0.2c0.1,0,0.2,0,0.3,0.1c0.1,0.1,0.1,0.2,0.1,0.3c0,0.2-0.2,0.5-0.4,0.8c-0.4,0.5-1,0.8-1.8,0.8
			s-1.4-0.3-1.8-0.8s-0.6-1.2-0.6-1.9s0.2-1.3,0.7-1.9c0.5-0.5,1-0.8,1.8-0.8c0.7,0,1.3,0.3,1.8,0.8c0.4,0.5,0.6,1,0.6,1.7
			C122.3,46.2,122.1,46.3,121.8,46.3z M121,44.7c-0.2-0.2-0.6-0.4-1.1-0.4c-0.4,0-0.7,0.1-1,0.4c-0.3,0.2-0.5,0.5-0.5,0.9h2.9h0.1
			C121.4,45.3,121.2,45,121,44.7z"/>
		<path fill="#58595B" d="M124.8,48.9c-0.3,0-0.4-0.2-0.4-0.5v-6.9c0-0.3,0.1-0.5,0.4-0.5s0.4,0.2,0.4,0.5v6.9
			C125.3,48.7,125.1,48.9,124.8,48.9z"/>
		<path fill="#58595B" d="M128.9,48.9c-0.3,0-0.4-0.2-0.4-0.5v-6.9c0-0.3,0.1-0.5,0.4-0.5c0.3,0,0.4,0.2,0.4,0.5v6.9
			C129.4,48.7,129.2,48.9,128.9,48.9z"/>
		<path fill="#58595B" d="M133.5,42.1c-0.1,0.1-0.3,0.2-0.4,0.2c-0.2,0-0.3,0-0.4-0.2c-0.1-0.1-0.2-0.3-0.2-0.4
			c0-0.2,0.1-0.3,0.2-0.4c0.1-0.1,0.3-0.2,0.4-0.2c0.2,0,0.3,0.1,0.4,0.2c0.1,0.1,0.2,0.3,0.2,0.4C133.6,41.8,133.6,41.9,133.5,42.1
			z M133,48.9c-0.3,0-0.4-0.2-0.4-0.5V44c0-0.3,0.1-0.5,0.4-0.5s0.4,0.2,0.4,0.5v4.4C133.5,48.7,133.3,48.9,133,48.9z"/>
		<path fill="#58595B" d="M140.1,48.9c-0.3,0-0.4-0.2-0.4-0.5v-2.8c0-0.4-0.1-0.7-0.4-0.9c-0.3-0.2-0.6-0.3-1-0.3
			c-0.5,0-0.9,0.2-1.3,0.5c-0.3,0.3-0.5,0.6-0.5,0.9v2.7c0,0.3-0.1,0.5-0.4,0.5c-0.3,0-0.5-0.2-0.5-0.5v-4.4c0-0.3,0.1-0.5,0.4-0.5
			s0.4,0.2,0.4,0.5v0.4c0.5-0.6,1.1-0.9,1.8-0.9c0.6,0,1.1,0.2,1.5,0.6c0.4,0.4,0.6,0.9,0.6,1.5v2.8
			C140.5,48.7,140.4,48.9,140.1,48.9z"/>
		<path fill="#58595B" d="M146.4,44.2c-0.1,0-0.3,0.1-0.5,0.2c0.1,0.3,0.2,0.5,0.2,0.8c0,0.5-0.2,0.9-0.7,1.3
			c-0.4,0.3-0.9,0.4-1.4,0.4c-0.2,0-0.4,0-0.7-0.1c-0.1,0.1-0.2,0.2-0.2,0.2c0,0.1,0.1,0.1,0.3,0.2c0.4,0.1,1.1,0.3,1.9,0.5
			c0.7,0.2,1,0.6,1,1.2c0,0.5-0.3,0.8-0.8,1.1c-0.4,0.2-0.9,0.3-1.4,0.3c-0.7,0-1.2-0.1-1.7-0.3c-0.6-0.2-0.8-0.6-0.8-1.1
			s0.4-0.9,1.2-1.1c-0.3-0.1-0.5-0.4-0.5-0.7c0-0.2,0.1-0.4,0.3-0.6c-0.5-0.3-0.7-0.8-0.7-1.2c0-0.6,0.2-1,0.7-1.3
			c0.4-0.3,0.9-0.4,1.4-0.4s0.9,0.1,1.3,0.4c0.3-0.2,0.7-0.4,1-0.4s0.4,0.1,0.4,0.4C146.8,44.1,146.6,44.2,146.4,44.2z M144.3,48.1
			c-1.2,0.2-1.7,0.4-1.7,0.8c0,0.4,0.5,0.5,1.6,0.5c0.3,0,0.6,0,0.8-0.1c0.4-0.1,0.5-0.3,0.5-0.4C145.5,48.6,145.1,48.3,144.3,48.1z
			 M144.9,44.6c-0.3-0.2-0.5-0.3-0.8-0.3s-0.6,0.1-0.8,0.2c-0.3,0.2-0.4,0.4-0.4,0.7s0.1,0.5,0.4,0.6c0.2,0.1,0.5,0.2,0.8,0.2
			c0.2,0,0.5-0.1,0.7-0.2c0.3-0.2,0.4-0.4,0.4-0.6C145.3,45,145.1,44.7,144.9,44.6z"/>
		<path fill="#58595B" d="M156.7,48c-0.5,0.6-1.1,0.8-1.8,0.8c-0.8,0-1.4-0.3-1.7-0.9v0.4c0,0.3-0.1,0.5-0.4,0.5
			c-0.3,0-0.4-0.2-0.4-0.5v-6.8c0-0.3,0.1-0.5,0.4-0.5c0.3,0,0.4,0.2,0.4,0.5v2.8c0.4-0.6,1-0.9,1.7-0.9s1.3,0.3,1.8,0.8
			s0.7,1.2,0.7,1.9C157.4,46.9,157.2,47.5,156.7,48z M156,44.8c-0.3-0.4-0.7-0.5-1.2-0.5s-1,0.2-1.3,0.5s-0.5,0.8-0.5,1.3
			s0.2,1,0.5,1.3c0.3,0.4,0.7,0.6,1.3,0.6c0.5,0,0.9-0.2,1.2-0.6c0.3-0.4,0.4-0.8,0.4-1.3C156.5,45.6,156.3,45.2,156,44.8z"/>
		<path fill="#58595B" d="M163,44.1l-2.8,5.9c-0.1,0.1-0.2,0.2-0.3,0.2c-0.3,0-0.5-0.1-0.5-0.4c0-0.1,0.1-0.4,0.2-0.6l0.6-1
			l-2.1-4.1c0,0,0-0.1,0-0.3c0-0.3,0.1-0.4,0.3-0.4s0.3,0.1,0.4,0.3l1.8,3.5l1.7-3.5c0.1-0.2,0.2-0.3,0.4-0.3s0.3,0.1,0.3,0.4
			C163.1,43.9,163.1,44,163,44.1z"/>
		<path fill="#58595B" d="M170.9,48.7c-0.1,0-0.3,0-0.5,0s-0.4,0-0.5,0c-0.6,0-0.9-0.4-0.9-1.3v-3h-0.6c-0.3,0-0.5-0.1-0.5-0.4
			c0-0.3,0.2-0.4,0.5-0.4h0.6v-0.9c0-0.3,0.1-0.5,0.4-0.5c0.3,0,0.4,0.2,0.4,0.5v0.9h0.9c0.3,0,0.5,0.1,0.5,0.4
			c0,0.3-0.2,0.4-0.5,0.4h-0.9v2.9c0,0.3,0,0.5,0.2,0.5h0.8c0.3,0,0.5,0.1,0.5,0.4C171.3,48.6,171.2,48.7,170.9,48.7z"/>
		<path fill="#58595B" d="M176.5,48.9c-0.3,0-0.4-0.2-0.4-0.5V48c-0.3,0.3-0.6,0.5-1,0.6c-0.4,0.2-0.8,0.3-1.1,0.3
			c-0.5,0-0.9-0.1-1.2-0.3c-0.4-0.3-0.5-0.7-0.5-1.2c0-0.6,0.3-1.1,0.9-1.5c0.5-0.3,1.1-0.4,1.8-0.4h1.1c0-0.8-0.5-1.2-1.4-1.2
			c-0.3,0-0.6,0.1-0.9,0.2c-0.3,0.1-0.5,0.3-0.7,0.5c-0.1,0.2-0.2,0.2-0.3,0.2c-0.3,0-0.5-0.2-0.5-0.5c0-0.1,0.1-0.3,0.2-0.4
			c0.5-0.5,1.2-0.8,2-0.8s1.3,0.2,1.7,0.6c0.3,0.4,0.5,0.9,0.5,1.4v3C176.9,48.7,176.8,48.9,176.5,48.9z M176.1,46.3h-0.7
			c-1.5,0-2.2,0.4-2.2,1c0,0.2,0.1,0.4,0.2,0.5c0.2,0.1,0.4,0.2,0.6,0.2c0.4,0,0.8-0.1,1.2-0.3s0.7-0.5,0.9-0.8V46.3z"/>
		<path fill="#58595B" d="M183.3,48.7c-0.1,0.1-0.2,0.1-0.3,0.1s-0.3,0-0.3-0.1l-2.1-2.1l-2.1,2.1c-0.1,0.1-0.2,0.1-0.3,0.1
			c-0.3,0-0.4-0.1-0.4-0.4c0-0.1,0-0.3,0.1-0.3L180,46l-1.8-1.8c-0.1-0.1-0.1-0.2-0.1-0.3c0-0.3,0.1-0.4,0.4-0.4
			c0.1,0,0.2,0.1,0.3,0.2l1.7,1.8l1.7-1.8c0.1-0.1,0.2-0.2,0.3-0.2s0.2,0,0.3,0.1s0.1,0.2,0.1,0.3s0,0.3-0.1,0.3L181,46l2.1,2.2
			c0.1,0.1,0.1,0.2,0.1,0.3C183.4,48.6,183.4,48.7,183.3,48.7z"/>
		<path fill="#58595B" d="M186.1,42.1c-0.1,0.1-0.3,0.2-0.4,0.2c-0.2,0-0.3,0-0.4-0.2c-0.1-0.1-0.2-0.3-0.2-0.4
			c0-0.2,0.1-0.3,0.2-0.4c0.1-0.1,0.3-0.2,0.4-0.2c0.2,0,0.3,0.1,0.4,0.2c0.1,0.1,0.2,0.3,0.2,0.4S186.3,41.9,186.1,42.1z
			 M185.7,48.9c-0.3,0-0.4-0.2-0.4-0.5V44c0-0.3,0.1-0.5,0.4-0.5c0.3,0,0.4,0.2,0.4,0.5v4.4C186.1,48.7,186,48.9,185.7,48.9z"/>
		<path fill="#58595B" d="M189.5,49.6c-0.3,0.3-0.5,0.5-0.6,0.5c-0.2,0-0.2-0.1-0.2-0.2c0,0,0.1-0.2,0.3-0.4
			c0.2-0.3,0.2-0.4,0.2-0.5s-0.1-0.2-0.3-0.4s-0.3-0.3-0.3-0.5s0.1-0.4,0.2-0.6c0.1-0.1,0.3-0.2,0.6-0.2c0.2,0,0.4,0.1,0.5,0.3
			s0.2,0.4,0.2,0.6C190.1,48.5,189.9,49.1,189.5,49.6z"/>
		<path fill="#58595B" d="M199.4,48.5c-0.4,0.2-0.9,0.3-1.5,0.3s-1.2-0.2-1.6-0.5c-0.5-0.3-0.7-0.6-0.7-0.9c0-0.3,0.2-0.5,0.5-0.5
			c0.1,0,0.2,0.1,0.3,0.2c0.3,0.5,0.8,0.8,1.5,0.8c0.9,0,1.4-0.2,1.4-0.6c0-0.2-0.2-0.4-0.6-0.6c-0.2-0.1-0.5-0.2-1-0.3
			c-0.6-0.2-1-0.3-1.3-0.5c-0.5-0.3-0.7-0.6-0.7-1c0-0.5,0.2-0.9,0.6-1.1c0.4-0.2,0.9-0.4,1.5-0.4c0.4,0,0.9,0.1,1.3,0.3
			c0.5,0.3,0.8,0.6,0.8,1c0,0.3-0.2,0.5-0.5,0.5c-0.1,0-0.2-0.1-0.4-0.4c-0.2-0.4-0.6-0.6-1.2-0.6c-0.9,0-1.3,0.2-1.3,0.7
			c0,0.2,0.1,0.3,0.4,0.4c0.1,0,0.4,0.1,0.9,0.3c0.7,0.2,1.2,0.4,1.4,0.6c0.5,0.3,0.8,0.7,0.8,1.2C200.1,47.9,199.9,48.3,199.4,48.5
			z"/>
		<path fill="#58595B" d="M205.7,48.1c-0.5,0.5-1.2,0.8-2,0.8s-1.5-0.2-2-0.8c-0.5-0.5-0.8-1.2-0.8-2s0.3-1.5,0.8-2s1.2-0.7,2-0.7
			s1.5,0.2,2,0.8c0.5,0.5,0.8,1.2,0.8,2C206.5,46.9,206.3,47.6,205.7,48.1z M205.1,44.8c-0.3-0.3-0.8-0.5-1.3-0.5
			c-0.6,0-1,0.2-1.4,0.5c-0.3,0.3-0.5,0.8-0.5,1.4c0,0.5,0.2,1,0.5,1.3c0.4,0.4,0.8,0.5,1.3,0.5s1-0.2,1.3-0.5
			c0.3-0.4,0.5-0.8,0.5-1.3C205.6,45.6,205.5,45.1,205.1,44.8z"/>
		<path fill="#58595B" d="M216.7,48.7h-4c-0.4,0-0.6-0.2-0.6-0.5v-6.5c0-0.3,0.2-0.5,0.6-0.5h4c0.3,0,0.5,0.1,0.5,0.4
			c0,0.3-0.2,0.4-0.5,0.4h-3.5c-0.1,0-0.2,0.1-0.2,0.2v2.2h3.2c0.3,0,0.5,0.1,0.5,0.4c0,0.3-0.2,0.4-0.5,0.4H213v2.4
			c0,0.1,0.1,0.2,0.2,0.2h3.5c0.3,0,0.5,0.1,0.5,0.4C217.2,48.6,217.1,48.7,216.7,48.7z"/>
		<path fill="#58595B" d="M225.4,48.8c-0.1,0.1-0.2,0.1-0.3,0.1c-0.2,0-0.4-0.1-0.5-0.3l-0.9-2h-3.8l-0.9,2
			c-0.1,0.2-0.2,0.3-0.5,0.3c-0.2,0-0.4-0.1-0.4-0.4c0-0.2,0-0.3,0.1-0.4l3.2-6.7c0.1-0.2,0.2-0.3,0.4-0.3s0.3,0.1,0.4,0.3l3.2,6.7
			c0.1,0.1,0.1,0.3,0.1,0.4S225.5,48.7,225.4,48.8z M221.8,42.4l-1.5,3.3h3L221.8,42.4z"/>
		<path fill="#58595B" d="M231.5,48.3c-0.5,0.4-1.2,0.6-2.1,0.6c-1.1,0-2-0.4-2.6-1.3c-0.2-0.3-0.3-0.6-0.3-1c0-0.1,0-0.2,0.1-0.3
			s0.2-0.1,0.3-0.1c0.2,0,0.3,0.2,0.4,0.5c0.1,0.5,0.4,0.8,0.8,1.1c0.4,0.2,0.8,0.3,1.2,0.3c0.6,0,1-0.1,1.4-0.3s0.6-0.6,0.6-1
			s-0.2-0.7-0.7-0.9s-1-0.4-1.6-0.6c-0.8-0.3-1.3-0.6-1.6-0.8c-0.5-0.4-0.8-0.9-0.8-1.4c0-1.2,0.9-1.9,2.8-1.9c1.2,0,2,0.3,2.5,1
			c0.2,0.3,0.3,0.6,0.3,0.8c0,0.3-0.2,0.5-0.5,0.5c-0.2,0-0.3-0.1-0.3-0.3c-0.4-0.8-1-1.2-1.9-1.2c-0.5,0-0.8,0.1-1.2,0.2
			c-0.5,0.2-0.7,0.4-0.7,0.8c0,0.3,0.2,0.6,0.6,0.8c0.2,0.1,0.6,0.3,1.4,0.6c0.9,0.4,1.5,0.6,1.8,0.8c0.6,0.4,0.9,1,0.9,1.6
			C232.3,47.4,232.1,47.9,231.5,48.3z"/>
		<path fill="#58595B" d="M240.2,41.7l-3,3.9v2.8c0,0.3-0.1,0.5-0.4,0.5c-0.3,0-0.4-0.2-0.4-0.5v-2.8l-3-3.9
			c-0.1-0.1-0.1-0.2-0.1-0.3c0-0.2,0.2-0.4,0.5-0.4c0.1,0,0.2,0.1,0.3,0.2l2.7,3.5l2.7-3.5c0.1-0.1,0.2-0.2,0.3-0.2
			c0.3,0,0.5,0.1,0.5,0.4C240.3,41.5,240.3,41.6,240.2,41.7z"/>
		<path fill="#58595B" d="M242.8,48.6c-0.2,0.2-0.3,0.2-0.6,0.2c-0.2,0-0.4-0.1-0.6-0.2c-0.2-0.2-0.2-0.3-0.2-0.6
			c0-0.2,0.1-0.4,0.2-0.6c0.2-0.2,0.3-0.2,0.6-0.2c0.2,0,0.4,0.1,0.6,0.2c0.2,0.2,0.2,0.4,0.2,0.6C243,48.3,242.9,48.5,242.8,48.6z"
			/>
	</g>
</g>
<g display="none">
	<g display="inline">
		<path fill="#EFAA42" stroke="#FAD277" stroke-width="5" stroke-miterlimit="10" d="M60.8,52.1H37.3c-13.6,0-24.8-11.2-24.8-24.8
			l0,0c0-13.6,11.2-24.8,24.8-24.8h23.5c13.6,0,24.8,11.2,24.8,24.8l0,0C85.6,40.9,74.5,52.1,60.8,52.1z"/>
		<g>
			<path fill="#221E1F" d="M47.4,28.3h-9.8c-0.7,0-1.2,0.6-1.2,1.2c0,0.7,0.6,1.2,1.2,1.2h7.9c-1.2,3.4-4.8,5.9-8.3,5.9
				c-2.4,0-4.6-1-6.3-2.8s-2.6-4.1-2.6-6.6s0.9-4.8,2.6-6.6s4-2.8,6.4-2.8c2.7,0,5.3,1.2,6.9,3.3c0.4,0.5,0.7,1,1,1.5v0.1
				c0.3,0.5,0.5,1.1,1.3,1.2c0.1,0,0.1,0,0.2,0c0.4,0,0.8-0.2,1.1-0.5c0.2-0.2,0.2-0.5,0.1-0.8c-1.5-4.3-5.7-7.2-10.5-7.2
				c-3.1,0-6,1.2-8.1,3.5S26,24.1,26,27.2s1.2,6.1,3.3,8.4c2.2,2.3,5.1,3.5,8.1,3.5c4.4,0,9.1-3.3,10.6-7.4c0.3-0.8,0.5-1.6,0.6-2.4
				c0-0.3-0.1-0.5-0.3-0.8C48,28.4,47.7,28.3,47.4,28.3z"/>
			<path fill="#221E1F" d="M70.2,18.9c-2.2-2.3-5.2-3.5-8.4-3.5c-3.2,0-6.2,1.3-8.4,3.5c-2.2,2.3-3.5,5.3-3.5,8.4
				c0,3.2,1.2,6.1,3.5,8.4c2.2,2.2,5.2,3.5,8.4,3.5c3.2,0,6.2-1.3,8.4-3.5c2.2-2.3,3.5-5.3,3.5-8.4C73.7,24.1,72.5,21.2,70.2,18.9z
				 M61.8,36.8c-2.5,0-4.8-1-6.6-2.8s-2.8-4.2-2.8-6.7s1-4.9,2.8-6.7c1.8-1.8,4.1-2.8,6.6-2.8c2.5,0,4.9,1,6.7,2.8s2.7,4.2,2.7,6.7
				s-1,4.9-2.7,6.7C66.7,35.8,64.3,36.8,61.8,36.8z"/>
		</g>
	</g>
	<g display="inline">
		<g>
			<path d="M126.8,31.9H111c-1,0-1.5-0.4-1.5-1.3c0-0.4,0.2-0.8,0.7-1.4l14.3-18.8h-11.9c-1,0-1.5-0.7-1.5-1.3s0.5-1.3,1.5-1.3h14.2
				c1,0,1.5,0.4,1.5,1.3c0,0.4-0.2,0.8-0.7,1.4l-14.3,18.8h13.4c1,0,1.5,0.8,1.5,1.3C128.4,31.2,127.9,31.9,126.8,31.9z"/>
		</g>
		<path d="M106,10.4c0.7,0,1.3-0.6,1.3-1.3s-0.6-1.3-1.3-1.3H94.2c-0.7,0-1.3,0.6-1.3,1.3v21.5c0,0.7,0.6,1.3,1.3,1.3H106
			c0.7,0,1.3-0.6,1.3-1.3c0-0.7-0.6-1.3-1.3-1.3H95.5v-8.1h7.2c0.7,0,1.3-0.6,1.3-1.3c0-0.7-0.6-1.3-1.3-1.3h-7.2v-8.1H106V10.4z"/>
		<g>
			<path d="M150.9,10.1l-8.6,0.1c0.4-0.9,0.7-1.5,0.7-2c0-0.1,0-0.2,0-0.3c0-0.6-0.4-1.1-1.2-1.2c-0.1,0-0.1,0-0.2,0
				c-0.7-0.1-1.2,0.2-1.5,0.9c-0.9,2.2-1.9,4-3.2,5.6c-1.2,1.5-2.7,2.9-4.3,4c-0.4,0.3-0.6,0.7-0.6,1.2c0,0.3,0.1,0.6,0.3,0.8
				c0.3,0.4,0.7,0.6,1.1,0.6c0.3,0,0.6-0.1,0.9-0.3c2.4-1.6,4.8-4.1,6.5-6.8l9.3-0.2c0.7,0,0.7,0.2,0.7,0.5c0,0.1,0,0.3-0.1,0.5
				c-0.6,3-1.6,5.5-3.2,7.7c-2.3-2.2-5-3.9-6.3-4.8c-0.3-0.2-0.6-0.3-0.9-0.3c-0.4,0-0.8,0.2-1.1,0.5c-0.2,0.3-0.4,0.6-0.4,0.9
				c0,0.4,0.2,0.8,0.6,1c2,1.2,4.2,2.9,6.1,4.7c-2.7,2.6-5.9,4.5-9.8,5.6c-0.6,0.2-1.1,0.7-1.1,1.3c0,0.2,0,0.4,0.1,0.6
				c0.2,0.6,0.6,0.8,1.3,0.8c0.2,0,0.3,0,0.5,0h0.1c5-1.4,9.2-3.9,12.3-7.7c2.4-2.9,4-6.3,4.8-10.1c0.1-0.4,0.1-0.7,0.1-1.1
				C153.9,11.2,152.8,10.1,150.9,10.1z"/>
			<path d="M177,10.8l-8.3,0.2c0.5-0.8,0.7-1.4,0.9-1.9c0-0.2,0.1-0.3,0.1-0.4c0-0.6-0.4-1.1-1.1-1.3c-0.2-0.1-0.4-0.1-0.6-0.1
				c-0.6,0-1.1,0.3-1.3,1c-2.1,5.2-5.1,8-7.3,9.4c-0.4,0.3-0.7,0.7-0.7,1.3c0,0.3,0.1,0.6,0.3,0.9c0.3,0.4,0.7,0.6,1.2,0.6
				c0.3,0,0.5-0.1,0.9-0.3c2.4-1.6,4.6-3.8,6.3-6.4l8.8-0.1h0.1c0.8,0,0.8,0.3,0.8,0.5c0,0.1,0,0.2,0,0.3v0.1
				c-1.7,7.5-6.6,12.3-14.6,14.4c-0.7,0.2-1.1,0.7-1.1,1.3c0,0.2,0,0.3,0.1,0.5c0.2,0.6,0.7,1,1.4,1c0.1,0,0.3,0,0.4,0
				c9.1-2.2,15.1-8.1,16.9-16.7c0.1-0.4,0.1-0.7,0.1-1.1C180.1,11.9,178.9,10.8,177,10.8z"/>
			<path d="M190,10.8c1.8,0.7,4.1,1.9,6,3.2c0.2,0.2,0.5,0.2,0.8,0.2c0.6,0,1.1-0.3,1.3-0.8c0.1-0.2,0.2-0.5,0.2-0.8
				c0-0.5-0.2-0.9-0.7-1.2c-1.9-1.2-4.3-2.4-6.3-3.2c-0.2-0.1-0.5-0.1-0.7-0.1c-0.5,0-1,0.3-1.3,0.8c-0.2,0.3-0.2,0.5-0.2,0.8
				C189.2,10.2,189.5,10.6,190,10.8z"/>
			<path d="M187.8,17.5c2,0.9,4.5,2.2,6.2,3.4c0.3,0.2,0.6,0.3,0.9,0.3c0.5,0,1-0.3,1.3-0.7c0.2-0.3,0.3-0.6,0.3-0.9
				c0-0.5-0.3-0.9-0.7-1.2c-1.7-1.1-4.4-2.5-6.6-3.4c-0.2-0.1-0.4-0.1-0.7-0.1c-0.4,0-0.9,0.1-1.2,0.8c-0.2,0.2-0.2,0.5-0.2,0.8
				C187,16.9,187.3,17.3,187.8,17.5z"/>
			<path d="M208.5,13.2L208.5,13.2c-0.2,0-0.4-0.1-0.5-0.1c-0.7,0-1.1,0.4-1.3,1.1c-1.1,4.1-3.3,7.4-6.5,9.8
				c-2.7,2.1-7.1,3.5-11.4,3.8c-0.9,0.1-1.4,0.6-1.4,1.4v0.2c0.1,0.8,0.7,1.4,1.5,1.4h0.1l0,0c4.7-0.3,9.6-2,12.7-4.3
				c3.7-2.7,6.4-6.8,7.7-11.5v-0.1c0-0.1,0-0.3,0-0.4C209.6,13.9,209.2,13.4,208.5,13.2z"/>
			<path d="M237.9,18.2h-21.1c-0.8,0-1.4,0.6-1.4,1.5s0.5,1.5,1.4,1.5H238c0.8,0,1.4-0.6,1.4-1.5C239.3,18.8,238.8,18.2,237.9,18.2z
				"/>
		</g>
	</g>
	<g display="inline">
		<path fill="#58595B" d="M93.6,40.8c-0.2,0-0.3-0.2-0.3-0.4s0.1-0.4,0.3-0.4h1.8v-1.5c0-0.2,0.2-0.4,0.4-0.4c0.3,0,0.4,0.1,0.4,0.4
			V40h1.3c0.2,0,0.3,0.2,0.3,0.4s-0.1,0.4-0.3,0.4h-2.2c0,0.1,0,0.2,0,0.3c0,0.4,0,0.8,0,1.2h1.3c0.7,0,1,0.3,1,0.9
			c0,2.2-0.1,3.7-0.3,4.6c-0.2,0.6-0.5,0.9-1.2,0.9c-0.4,0-0.6,0-0.9-0.1c-0.2,0-0.3-0.2-0.3-0.4v-0.1c0-0.2,0.2-0.3,0.4-0.3
			c0,0,0,0,0.1,0c0.2,0,0.3,0.1,0.5,0.1c0.3,0,0.4-0.1,0.5-0.4c0.2-0.8,0.2-2.2,0.2-4.1c0-0.2-0.1-0.3-0.3-0.3h-1
			c-0.1,2.6-0.5,4.1-1.3,5.5c-0.1,0.1-0.2,0.2-0.4,0.2c-0.1,0-0.2,0-0.3-0.1c-0.2-0.1-0.2-0.2-0.2-0.4c0-0.1,0-0.2,0.1-0.3
			c1-1.6,1.3-3.4,1.2-7.4h-0.8V40.8z M99.5,40.3c-0.4,0.6-0.8,1.2-1.2,1.7c-0.1,0.1-0.2,0.1-0.3,0.1c-0.1,0-0.3,0-0.4-0.1
			s-0.1-0.2-0.1-0.3s0-0.2,0.1-0.3c0.7-0.8,1.5-2.1,1.8-3.2c0.1-0.2,0.2-0.2,0.4-0.2c0.1,0,0.1,0,0.2,0c0.2,0,0.4,0.2,0.4,0.4v0.1
			c-0.1,0.3-0.2,0.6-0.4,0.9h4c0.2,0,0.3,0.2,0.3,0.4s-0.1,0.4-0.3,0.4L99.5,40.3L99.5,40.3z M99.2,44.4c0-0.3,0-0.6,0-0.9
			c-0.2,0.1-0.5,0.2-0.7,0.3c0,0-0.1,0-0.2,0c-0.2,0-0.3-0.1-0.4-0.3c0-0.1,0-0.1,0-0.2c0-0.2,0.1-0.3,0.2-0.3
			c1.5-0.5,2.9-1.4,3.9-2.3c0.1-0.1,0.2-0.1,0.3-0.1c0.1,0,0.2,0,0.3,0.1c0.1,0.1,0.2,0.2,0.2,0.3s-0.1,0.2-0.2,0.3
			c-0.4,0.3-0.8,0.6-1.2,0.9c0.1,0.6,0.2,1.2,0.4,1.8c0.5-0.3,1-0.8,1.4-1.3c0.1-0.1,0.2-0.1,0.3-0.1c0.1,0,0.2,0,0.3,0.1
			c0.1,0.1,0.2,0.2,0.2,0.3s0,0.2-0.1,0.3c-0.5,0.5-1.2,1.1-1.8,1.5c0.5,1.2,1.1,2.2,2.1,3.1c0.1,0.1,0.1,0.2,0.1,0.3s0,0.3-0.2,0.4
			c-0.1,0.1-0.2,0.1-0.3,0.1c-0.1,0-0.2,0-0.3-0.1c-1.6-1.5-2.4-3.5-2.7-5.9c-0.2,0.1-0.5,0.3-0.7,0.4v5.7c0,0.2-0.2,0.3-0.4,0.3
			c-0.3,0-0.5-0.1-0.5-0.3L99.2,44.4L99.2,44.4z"/>
		<path fill="#58595B" d="M108.9,45.1c0-0.5,0-1,0.1-1.6c-0.3,0.4-0.7,0.8-1.1,1c-0.1,0.1-0.2,0.1-0.2,0.1c-0.1,0-0.3-0.1-0.4-0.2
			c-0.1-0.1-0.1-0.2-0.1-0.3s0.1-0.2,0.2-0.3c1.1-0.8,2-1.8,2.6-3c0.1-0.1,0.2-0.2,0.3-0.2c0.1,0,0.2,0,0.3,0.1
			c0.1,0.1,0.2,0.2,0.2,0.3s0,0.2-0.1,0.2c-0.2,0.5-0.6,1-1,1.4v6c0,0.2-0.2,0.3-0.5,0.3s-0.5-0.1-0.5-0.3v-3.5H108.9z M110.1,38.1
			c0.1,0,0.2,0,0.3,0.1c0.1,0.1,0.2,0.2,0.2,0.4c0,0.1,0,0.2-0.1,0.2c-0.5,0.8-1.5,1.9-2.4,2.5c-0.1,0.1-0.2,0.1-0.3,0.1
			c-0.1,0-0.2-0.1-0.3-0.2c-0.1-0.1-0.1-0.2-0.1-0.3s0.1-0.2,0.2-0.3c0.9-0.6,1.7-1.4,2.2-2.3C109.8,38.2,109.9,38.1,110.1,38.1z
			 M111.4,42.7c-0.2,0-0.3-0.2-0.3-0.4s0.1-0.4,0.3-0.4h6.3c0.2,0,0.3,0.2,0.3,0.4s-0.1,0.4-0.3,0.4H116v5.1c0,0.8-0.5,1.2-1.4,1.2
			c-0.5,0-1-0.1-1.4-0.1c-0.2,0-0.3-0.2-0.3-0.4v-0.1c0-0.2,0.2-0.4,0.4-0.4h0.1c0.3,0.1,0.8,0.1,1.1,0.1c0.4,0,0.6-0.1,0.6-0.5
			v-4.8L111.4,42.7L111.4,42.7z M111.9,39.6c-0.2,0-0.3-0.2-0.3-0.4s0.1-0.4,0.3-0.4h5.3c0.2,0,0.3,0.2,0.3,0.4s-0.1,0.4-0.3,0.4
			H111.9z"/>
		<path fill="#58595B" d="M134.2,44c0-0.2-0.1-0.3-0.3-0.3h-1c-0.2,0-0.4-0.1-0.4-0.4c0-0.3,0.1-0.4,0.4-0.4h1.3
			c0.6,0,0.9,0.3,0.9,0.9v2.7c0.4,0.8,1.1,1.2,1.9,1.3c0.5,0.1,1.2,0.1,2.1,0.1c1.5,0,3-0.1,4.3-0.2l0,0c0.3,0,0.4,0.2,0.4,0.5
			c0,0,0,0,0,0.1c0,0.2-0.2,0.4-0.4,0.4c-1.2,0.1-2.9,0.1-4.4,0.1c-0.9,0-1.8,0-2.3-0.2c-0.9-0.2-1.7-0.7-2.1-1.4
			c-0.4,0.5-0.9,1.1-1.4,1.4c-0.1,0-0.1,0.1-0.2,0.1s-0.3-0.1-0.4-0.2c-0.1-0.1-0.1-0.2-0.1-0.3s0.1-0.2,0.2-0.3
			c0.4-0.3,1-0.8,1.5-1.4L134.2,44L134.2,44z M133.4,38.4c0.1,0,0.2,0,0.3,0.1c0.5,0.5,1.1,1.2,1.5,1.8c0.1,0.1,0.1,0.2,0.1,0.3
			s-0.1,0.2-0.2,0.4c-0.1,0.1-0.2,0.1-0.3,0.1c-0.1,0-0.3-0.1-0.3-0.2c-0.4-0.6-0.9-1.3-1.4-1.7c-0.1-0.1-0.1-0.2-0.1-0.3
			s0.1-0.2,0.2-0.3C133.2,38.4,133.3,38.4,133.4,38.4z M135.7,40.4c-0.2,0-0.3-0.2-0.3-0.4s0.1-0.4,0.3-0.4h1.3v-1.2
			c0-0.2,0.2-0.4,0.4-0.4c0.3,0,0.4,0.1,0.4,0.4v1.2h1c0.2,0,0.3,0.2,0.3,0.4s-0.1,0.4-0.3,0.4h-1.6c0,0.4,0,0.8,0,1.2h0.9
			c0.7,0,1,0.2,1,0.9c0,1.5-0.1,2.9-0.4,3.7c-0.2,0.6-0.4,0.9-1.1,0.9c-0.3,0-0.5,0-0.7-0.1c-0.1,0-0.2-0.2-0.2-0.3v-0.1
			c0-0.2,0.2-0.3,0.3-0.3c0,0,0,0,0.1,0s0.3,0,0.4,0c0.2,0,0.3-0.1,0.4-0.4c0.2-0.7,0.3-1.9,0.3-3.2c0-0.2-0.1-0.3-0.3-0.3h-0.7
			c-0.1,1.8-0.4,3-1.1,4.1c-0.1,0.1-0.2,0.2-0.3,0.2c-0.1,0-0.2,0-0.3-0.1s-0.2-0.2-0.2-0.4c0-0.1,0-0.2,0.1-0.3
			c0.9-1.4,1-3,1.1-5.7h-0.8V40.4z M140.3,40.3c-0.2,0.4-0.4,0.7-0.6,1c-0.1,0.1-0.2,0.2-0.3,0.2s-0.2,0-0.3-0.1s-0.2-0.2-0.2-0.3
			s0-0.2,0.1-0.3c0.5-0.7,1-1.8,1.2-2.5c0-0.2,0.2-0.3,0.3-0.3h0.1c0.2,0,0.3,0.2,0.3,0.3v0.1c-0.1,0.3-0.2,0.6-0.3,1h2.7
			c0.2,0,0.3,0.2,0.3,0.4s-0.1,0.4-0.3,0.4L140.3,40.3L140.3,40.3z M141,42.9c0-0.2,0.2-0.3,0.4-0.3h0.1c0.3-0.2,0.5-0.3,0.7-0.5
			c0.1,0,0.1-0.1,0.1-0.1s0,0-0.1,0h-1.9c-0.2,0-0.4-0.1-0.4-0.4c0-0.2,0.1-0.4,0.3-0.4h2.5c0.4,0,0.6,0.2,0.6,0.5
			c0,0.2-0.1,0.4-0.2,0.5c-0.4,0.4-0.8,0.8-1.3,1v0.4h1.5c0.2,0,0.3,0.2,0.3,0.4s-0.1,0.4-0.3,0.4h-1.5v1.8c0,0.7-0.3,1-1.1,1
			c-0.3,0-0.6,0-0.9-0.1c-0.1,0-0.2-0.2-0.2-0.4v-0.1c0-0.2,0.2-0.3,0.3-0.3l0,0c0.2,0,0.4,0.1,0.5,0.1c0.3,0,0.4-0.1,0.4-0.4v-1.6
			h-1.3c-0.2,0-0.3-0.2-0.3-0.4s0.1-0.4,0.3-0.4h1.3v-0.7H141z"/>
		<path fill="#58595B" d="M148.6,43.6L148.6,43.6c-0.3,1.4-0.7,2.9-1.2,3.9c-0.1,0.2-0.3,0.3-0.5,0.3c-0.1,0-0.2,0-0.2,0
			c-0.2-0.1-0.3-0.2-0.3-0.4c0-0.1,0-0.2,0.1-0.3c0.5-1,1-2.4,1.2-3.6c0-0.2,0.2-0.4,0.4-0.4h0.1C148.5,43.2,148.6,43.3,148.6,43.6z
			 M152.7,40.3c-1.3,0-2.9-0.3-3.9-0.7c-0.2-0.1-0.3-0.2-0.3-0.4c0-0.1,0-0.1,0-0.2c0.1-0.2,0.2-0.3,0.4-0.3c0.1,0,0.1,0,0.2,0
			c1.1,0.4,3,0.7,4.8,0.9c0.3,0,0.5,0.2,0.5,0.5c0,0,0,0,0,0.1c0,0.3-0.2,0.4-0.4,0.5c-1.4,0.4-2.7,1.1-2.7,1.8
			c0,0.5,0.2,0.7,1.2,1.6c0.9,0.8,1.3,1.5,1.3,2.4c0,1.3-1,2.1-2.5,2.1c-0.9,0-1.8-0.3-2.5-1c-0.1-0.1-0.2-0.3-0.2-0.4
			c0-0.1,0-0.2,0.1-0.3s0.2-0.2,0.4-0.2c0.1,0,0.2,0,0.3,0.1c0.5,0.5,1.2,0.8,1.8,0.8c0.9,0,1.5-0.5,1.5-1.2c0-0.6-0.3-1.1-1.1-1.9
			c-1-0.8-1.3-1.3-1.3-2C150.3,41.5,151.3,40.7,152.7,40.3L152.7,40.3z M157,47.2c0,0.2-0.1,0.4-0.4,0.5c-0.1,0-0.1,0-0.2,0
			c-0.2,0-0.4-0.1-0.5-0.4c-0.3-1.1-0.9-2.6-1.5-3.6c0-0.1-0.1-0.1-0.1-0.2c0-0.2,0.1-0.3,0.3-0.4c0.1,0,0.1,0,0.2,0
			c0.2,0,0.3,0.1,0.4,0.2c0.6,1,1.3,2.6,1.6,3.8C157,47.1,157,47.1,157,47.2z M156.2,42.1c0,0.1-0.1,0.3-0.2,0.3
			c-0.1,0-0.1,0.1-0.2,0.1c-0.1,0-0.3-0.1-0.4-0.2c-0.2-0.3-0.5-0.8-0.7-1.1c0-0.1-0.1-0.1-0.1-0.2c0-0.1,0.1-0.2,0.2-0.3
			c0.1,0,0.2-0.1,0.2-0.1c0.1,0,0.2,0.1,0.3,0.2c0.2,0.3,0.5,0.8,0.7,1.2C156.2,41.9,156.2,42,156.2,42.1z M157.4,41.4
			c0,0.1-0.1,0.3-0.2,0.3c-0.1,0-0.1,0-0.2,0c-0.1,0-0.3-0.1-0.4-0.2c-0.2-0.3-0.4-0.7-0.6-1c0-0.1-0.1-0.1-0.1-0.2
			c0-0.1,0.1-0.3,0.2-0.3c0.1,0,0.1-0.1,0.2-0.1c0.1,0,0.2,0,0.3,0.2c0.2,0.3,0.5,0.7,0.7,1C157.4,41.2,157.4,41.3,157.4,41.4z"/>
		<path fill="#58595B" d="M172.2,43.3c-0.2,0-0.4-0.2-0.4-0.5s0.1-0.5,0.4-0.5h4.5v-4c0-0.2,0.2-0.4,0.5-0.4s0.5,0.1,0.5,0.4v4h4.7
			c0.2,0,0.4,0.2,0.4,0.5c0,0.2-0.1,0.5-0.4,0.5h-4.7v5.4c0,0.2-0.2,0.4-0.5,0.4s-0.5-0.1-0.5-0.4v-5.4H172.2z"/>
		<path fill="#58595B" d="M190,38.6c0,0.1,0,0.1,0,0.2c-0.8,1.7-2.2,3.4-3.7,4.5c-0.1,0.1-0.2,0.1-0.3,0.1s-0.3,0-0.4-0.2
			c-0.1-0.1-0.1-0.2-0.1-0.3c0-0.2,0.1-0.3,0.2-0.4c1.5-1,2.7-2.5,3.4-4.2c0.1-0.2,0.2-0.3,0.4-0.3c0.1,0,0.2,0,0.2,0.1
			C189.9,38.3,190,38.5,190,38.6z M188.1,43.2c-0.2,0-0.4-0.2-0.4-0.4c0-0.3,0.1-0.4,0.4-0.4h5c0.9,0,1.2,0.3,1.2,1.1
			c0,1.7-0.2,3.3-0.5,4.2c-0.2,0.8-0.7,1.1-1.5,1.1c-0.6,0-1,0-1.4-0.2c-0.2-0.1-0.4-0.2-0.4-0.4v-0.1c0.1-0.2,0.2-0.4,0.4-0.4
			c0.1,0,0.1,0,0.2,0c0.3,0.1,0.7,0.2,1,0.2c0.5,0,0.7-0.1,0.8-0.6c0.2-0.7,0.4-2.3,0.4-3.8c0-0.3-0.1-0.3-0.4-0.3h-2.4
			c-0.2,2.7-1.5,4.6-3.7,5.7c-0.1,0.1-0.2,0.1-0.3,0.1c-0.2,0-0.3-0.1-0.4-0.2c-0.1-0.1-0.1-0.2-0.1-0.3c0-0.2,0.1-0.3,0.2-0.4
			c0.7-0.4,1.4-0.9,2-1.5c0.8-1,1.2-2.1,1.2-3.4C189.4,43.2,188.1,43.2,188.1,43.2z M192.5,38.2c0.2,0,0.3,0.1,0.4,0.3
			c0.8,1.6,2,3.2,3.5,4.1c0.2,0.1,0.2,0.3,0.2,0.4c0,0.1,0,0.2-0.1,0.3c-0.1,0.2-0.3,0.2-0.4,0.2c-0.1,0-0.2,0-0.3-0.1
			c-1.6-1.1-3-2.8-3.8-4.6c0-0.1,0-0.1,0-0.2c0-0.2,0.1-0.3,0.3-0.4C192.4,38.2,192.4,38.2,192.5,38.2z"/>
		<path fill="#58595B" d="M201.8,39c0,0,0,0.1,0,0.2c-0.4,1.6-0.7,3.5-0.7,5.2c0,1.2,0.1,2.4,0.3,3.5c0,0.1,0,0.1,0,0.2
			c0,0.3-0.2,0.4-0.4,0.5h-0.1c-0.2,0-0.4-0.1-0.5-0.5c-0.2-1.1-0.3-2.4-0.3-3.7c0-1.9,0.2-3.8,0.7-5.5c0.1-0.2,0.3-0.4,0.5-0.4h0.1
			C201.6,38.6,201.8,38.8,201.8,39z M204.5,44c0,0.1-0.1,0.2-0.2,0.3c-0.5,0.5-0.7,0.9-0.7,1.4c0,0.7,0.6,1.1,2.3,1.1
			c1,0,2.1-0.1,2.9-0.3h0.1c0.2,0,0.4,0.2,0.5,0.4V47c0,0.2-0.1,0.5-0.4,0.5c-0.9,0.2-1.9,0.3-3,0.3c-2.2,0-3.4-0.6-3.4-2.1
			c0-0.7,0.3-1.4,0.9-2c0.1-0.1,0.3-0.2,0.4-0.2c0.1,0,0.2,0,0.3,0.1C204.5,43.8,204.5,43.9,204.5,44z M208.6,39.9
			c0.3,0,0.5,0.2,0.5,0.4l0,0c0,0.3-0.1,0.5-0.5,0.5c-1,0.1-2.4,0.2-3.7,0.2c-0.4,0-0.9,0-1.3,0c-0.4,0-0.5-0.2-0.5-0.5
			s0.2-0.5,0.5-0.5l0,0c0.4,0,0.8,0,1.2,0C206.1,40,207.5,40,208.6,39.9C208.5,39.9,208.5,39.9,208.6,39.9z"/>
		<path fill="#58595B" d="M215.8,39.6c0.1,0.2,0.2,0.3,0.3,0.5c0,0.1,0.1,0.1,0.1,0.2c0,0.1-0.1,0.3-0.3,0.3c0,0-0.1,0-0.2,0
			c-0.2,0-0.3-0.1-0.4-0.2c-0.1-0.2-0.2-0.5-0.4-0.8h-0.7c-0.3,0.4-0.7,0.9-1.1,1.2c-0.1,0.1-0.2,0.2-0.3,0.2s-0.2,0-0.3-0.1
			s-0.1-0.2-0.1-0.3s0.1-0.2,0.2-0.3c0.7-0.6,1.2-1.4,1.5-2c0.1-0.2,0.2-0.2,0.4-0.2c0.1,0,0.1,0,0.2,0c0.2,0,0.3,0.2,0.3,0.3
			s0,0.1-0.1,0.2c0,0.1-0.1,0.2-0.2,0.3h2.7c0.2,0,0.3,0.1,0.3,0.4c0,0.2-0.1,0.4-0.3,0.4h-1.6V39.6z M213.9,48.8
			c0,0.2-0.2,0.4-0.4,0.4c-0.3,0-0.4-0.1-0.4-0.4v-7.2c0-0.5,0.4-0.8,1-0.8h2.5c0.6,0,0.9,0.2,0.9,0.8v1.6c0,0.6-0.3,0.8-0.9,0.8
			h-2.5v4.8H213.9z M216.6,41.6c0-0.2-0.1-0.3-0.3-0.3h-2c-0.2,0-0.3,0.1-0.3,0.3V42h2.6V41.6z M216.2,43.4c0.2,0,0.3-0.1,0.3-0.3
			v-0.4h-2.6v0.7H216.2z M219.4,44.5c0.6,0,0.9,0.2,0.9,0.8v2c0,0.6-0.3,0.8-0.9,0.8h-2.9c-0.6,0-0.9-0.2-0.9-0.8v-2
			c0-0.6,0.3-0.8,0.9-0.8H219.4z M219.4,46v-0.6c0-0.2-0.1-0.3-0.3-0.3h-2.4c-0.2,0-0.3,0.1-0.3,0.3V46H219.4z M216.4,46.6v0.6
			c0,0.2,0.1,0.3,0.3,0.3h2.4c0.2,0,0.3-0.1,0.3-0.3v-0.6H216.4z M218.9,39.6c-0.2,0.3-0.4,0.6-0.6,0.9c-0.1,0.1-0.2,0.2-0.4,0.2
			c-0.1,0-0.2,0-0.3-0.1s-0.2-0.2-0.2-0.3s0-0.2,0.1-0.3c0.5-0.5,0.9-1.3,1.1-1.8c0.1-0.2,0.2-0.2,0.3-0.2s0.1,0,0.2,0
			c0.2,0,0.3,0.2,0.3,0.3s0,0.1,0,0.2c0,0.1-0.1,0.2-0.1,0.3h3.7c0.2,0,0.3,0.1,0.3,0.4c0,0.2-0.1,0.4-0.3,0.4h-2.1
			c0.2,0.2,0.3,0.4,0.4,0.5c0,0.1,0,0.1,0,0.2c0,0.1-0.1,0.2-0.2,0.3c-0.1,0-0.1,0-0.2,0c-0.2,0-0.3-0.1-0.4-0.2
			c-0.1-0.2-0.3-0.5-0.5-0.8C220,39.6,218.9,39.6,218.9,39.6z M219.3,44c-0.6,0-0.9-0.2-0.9-0.8v-1.6c0-0.6,0.3-0.8,0.9-0.8h2.6
			c0.6,0,0.9,0.2,0.9,0.8v6.3c0,0.8-0.4,1.1-1.3,1.1c-0.4,0-0.7,0-1-0.1c-0.2,0-0.3-0.2-0.3-0.4v-0.1c0-0.2,0.2-0.3,0.3-0.3h0.1
			c0.2,0,0.5,0.1,0.8,0.1c0.4,0,0.5-0.1,0.5-0.5V44H219.3z M221.9,41.6c0-0.2-0.1-0.3-0.3-0.3h-2c-0.2,0-0.3,0.1-0.3,0.3V42h2.7
			L221.9,41.6L221.9,41.6z M221.9,42.6h-2.7V43c0,0.2,0.1,0.3,0.3,0.3h2.4V42.6z"/>
		<path fill="#58595B" d="M228.4,45.1c-0.7,0-1-0.3-1-0.9v-2.9c0-0.6,0.3-0.9,1-0.9h5.2c0.5-0.6,0.9-1.4,1.1-2
			c0.1-0.2,0.2-0.2,0.4-0.2c0.1,0,0.2,0,0.2,0.1c0.2,0.1,0.3,0.2,0.3,0.3s0,0.1,0,0.2c-0.3,0.6-0.7,1.2-1,1.6h0.5c0.7,0,1,0.3,1,0.9
			v2.9c0,0.7-0.3,0.9-1,0.9h-3v1.1h4.7c0.2,0,0.4,0.2,0.4,0.4S237,47,236.8,47h-4.7v1.8c0,0.2-0.2,0.3-0.4,0.3
			c-0.3,0-0.4-0.1-0.4-0.3V47h-4.6c-0.2,0-0.4-0.2-0.4-0.4s0.1-0.4,0.4-0.4h4.6v-1.1H228.4z M228.3,38.2c0.1,0,0.2,0,0.3,0.2
			c0.3,0.3,0.7,0.9,0.8,1.2c0,0.1,0,0.1,0,0.2c0,0.1-0.1,0.2-0.2,0.3c-0.1,0-0.2,0.1-0.3,0.1c-0.2,0-0.3-0.1-0.4-0.2
			c-0.1-0.2-0.5-0.8-0.7-1.1c-0.1-0.1-0.1-0.2-0.1-0.2c0-0.1,0.1-0.2,0.2-0.3C228.1,38.2,228.2,38.2,228.3,38.2z M228.7,41.2
			c-0.2,0-0.3,0.1-0.3,0.3v0.9h3v-1.2H228.7z M228.3,43.1V44c0,0.2,0.1,0.3,0.3,0.3h2.6v-1.2H228.3z M231.3,38
			c0.1,0,0.2,0.1,0.3,0.2c0.3,0.4,0.5,0.9,0.7,1.3c0,0.1,0,0.1,0,0.2c0,0.2-0.1,0.3-0.2,0.3c-0.1,0-0.2,0.1-0.3,0.1
			c-0.2,0-0.3-0.1-0.3-0.2c-0.2-0.4-0.5-0.9-0.7-1.2c-0.1-0.1-0.1-0.2-0.1-0.2c0-0.1,0.1-0.2,0.3-0.3C231.1,38,231.2,38,231.3,38z
			 M235.2,42.4v-0.9c0-0.2-0.1-0.3-0.4-0.3H232v1.2H235.2z M234.9,44.3c0.2,0,0.4-0.1,0.4-0.3v-0.9h-3.1v1.2H234.9z"/>
	</g>
</g>
<g display="none">
	<g display="inline">
		<path fill="#EFAA42" stroke="#FAD277" stroke-width="5.0017" stroke-miterlimit="10" d="M61.1,52.5H37.4c-13.7,0-25-11.3-24.9-25
			l0,0c0-13.7,11.3-25,25-24.9h23.7c13.7,0,25,11.3,24.9,25l0,0C86.1,41.3,74.8,52.5,61.1,52.5z"/>
		<g>
			<path fill="#221E1F" d="M47.7,28.5h-9.8c-0.7,0-1.2,0.6-1.2,1.2c0,0.7,0.6,1.2,1.2,1.2h7.9c-1.2,3.4-4.8,5.9-8.4,5.9
				c-2.4,0-4.7-1-6.4-2.8s-2.6-4.2-2.6-6.7s0.9-4.8,2.6-6.7c1.7-1.8,4-2.8,6.4-2.8c2.7,0,5.3,1.2,6.9,3.3c0.4,0.5,0.7,1,1,1.5v0.1
				c0.3,0.6,0.5,1.1,1.3,1.2c0.1,0,0.1,0,0.2,0c0.4,0,0.8-0.2,1.1-0.5c0.2-0.2,0.2-0.5,0.1-0.8c-1.5-4.4-5.7-7.3-10.6-7.3
				c-3.1,0-6,1.2-8.2,3.5s-3.3,5.3-3.4,8.4c0,3.2,1.2,6.2,3.3,8.4c2.2,2.3,5.1,3.6,8.2,3.6c4.4,0,9.2-3.3,10.7-7.4
				c0.3-0.8,0.5-1.6,0.6-2.4c0-0.3-0.1-0.6-0.3-0.8C48.2,28.6,47.9,28.5,47.7,28.5z"/>
			<path fill="#221E1F" d="M70.6,19.1c-2.2-2.3-5.3-3.6-8.5-3.6c-3.2,0-6.3,1.3-8.4,3.5c-2.3,2.3-3.5,5.3-3.5,8.5s1.2,6.2,3.5,8.5
				c2.2,2.3,5.3,3.6,8.4,3.6c3.2,0,6.2-1.2,8.5-3.5s3.5-5.3,3.5-8.5S72.9,21.4,70.6,19.1z M62.1,37.1c-2.5,0-4.9-1-6.7-2.8
				s-2.8-4.2-2.8-6.7s1-4.9,2.8-6.7c1.8-1.8,4.2-2.8,6.7-2.8s4.9,1,6.7,2.8c1.8,1.8,2.7,4.2,2.7,6.7s-1,4.9-2.8,6.7
				C67.1,36.1,64.7,37.1,62.1,37.1z"/>
		</g>
	</g>
	<g display="inline">
		<g>
			<path d="M174,27.1c-2.1-5.3-4.3-9.7-6.8-13.7l-0.1-0.1c-0.4-0.4-0.8-0.5-1.3-0.5c-1.3,0.1-1.5,0.8-1.4,1.3c0,0.2,0.1,0.5,0.4,0.8
				c2,3.3,4,7.8,6.1,13.8c0.4,0.9,1.1,1,1.5,0.9c1.6-0.2,1.9-1,1.8-1.6c0-0.3-0.1-0.6-0.2-1V27.1z"/>
			<path d="M158.8,6.1c-0.9,0-1.4,0.5-1.4,1.4v24.3c0,1-0.4,1.4-1.2,1.4s-2.8-0.5-4.4-1c-0.5-0.1-0.8-0.2-1-0.2l0,0
				c-0.6,0.1-1.2,0.4-1.3,1.6c0,0.5,0.2,1.1,1.1,1.5c2.5,0.8,4.4,1.2,5.9,1.2c3.3,0,4-1.9,4-3.5V7.6C160.4,6.6,159.8,6.1,158.8,6.1z
				"/>
			<path d="M152.3,14.7c0.1-0.2,0.1-0.3,0.1-0.5c0-0.4-0.1-0.7-0.5-1.1c-0.3-0.2-0.6-0.4-1-0.4c-0.3,0-0.9,0-1.2,0.9
				c-0.9,2.9-1.9,5.6-3.1,7.9c-1.1,2.1-2.3,4-3.5,5.7c-0.2,0.2-0.4,0.5-0.4,0.9c-0.1,0.7,0.1,1.5,1.5,1.6c0.4,0,0.8-0.2,1.2-0.4
				l0.1-0.1c1.4-2,2.5-3.9,3.6-6.1c1.2-2.4,2.2-5.2,3.1-8.3L152.3,14.7z"/>
			<path d="M179.5,10.9h4.7V12c0,1.5,0.9,2.4,2.5,2.4h11.2c1.6,0,2.5-0.8,2.5-2.4v-1.1h4.8c0.8,0,1.3-0.5,1.3-1.3s-0.5-1.3-1.3-1.3
				h-4.8v-1c0-0.9-0.5-1.4-1.4-1.4s-1.4,0.5-1.4,1.4v1h-10.4v-1c0-0.9-0.5-1.4-1.5-1.4c-0.9,0-1.4,0.5-1.4,1.4v1h-4.7
				c-0.8,0-1.3,0.5-1.3,1.3C178.1,10.4,178.6,10.9,179.5,10.9z M187.1,11.6v-0.7h10.4v0.7c0,0.5-0.2,0.5-0.2,0.5h-10
				C187.2,12,187.1,12,187.1,11.6z"/>
			<path d="M178.7,18.2l27.4,0.1c0.9,0,1.3-0.5,1.3-1.4c0-0.8-0.5-1.3-1.3-1.3l-27.4-0.1c-0.9,0-1.3,0.5-1.3,1.3
				C177.3,17.9,178.1,18.2,178.7,18.2z"/>
			<path d="M187.2,31c-0.2,0-0.5,0.1-0.7,0.3c-2.4,0.9-5.3,1.7-8.9,2.4h-0.1c-0.7,0.3-0.8,0.8-0.8,1.2c0,1,0.6,1.6,1.6,1.6
				c0.1,0,0.3,0,0.5-0.1c0.1,0,0.3,0,0.4-0.1c3.8-0.8,6.7-1.7,8.8-2.7h0.1c0.4-0.3,0.6-0.7,0.6-1.1C188.7,31.6,188.1,31,187.2,31z"
				/>
			<path d="M206.5,33.8c-3.2-0.7-6.1-1.6-8.7-2.7l-0.1-0.1h4.2c1.6,0,2.5-0.9,2.5-2.5v-6.7c0-1.5-0.8-2.3-2.5-2.3h-19.2
				c-1.6,0-2.5,0.8-2.5,2.3v6.7c0,1.6,0.9,2.5,2.5,2.5h13.5c-0.3,0.2-0.5,0.6-0.5,1.1c0,0.3,0.2,0.7,0.6,1.1l0.1,0.1
				c1.5,0.7,3,1.3,4.5,1.9c3.9,1.3,4.8,1.4,5.1,1.4c1,0,1.6-0.6,1.6-1.6C207.5,34.6,207.3,34.1,206.5,33.8z M201.4,26.4v1.4
				c0,0.4-0.2,0.5-0.4,0.5h-7.2v-1.8L201.4,26.4z M201.4,22.6v1.1h-7.6v-1.4h7.2C201.4,22.3,201.4,22.4,201.4,22.6z M190.9,22.3v1.4
				h-7.8v-1.1c0-0.2,0.1-0.3,0.3-0.3H190.9z M183.1,27.7v-1.4h7.8v1.8h-7.5C183.2,28.2,183.1,28.2,183.1,27.7z"/>
		</g>
		<g>
			<path d="M135.8,36.6h-19.5c-1.2,0-1.8-0.5-1.8-1.6c0-0.5,0.3-1,0.8-1.8L133,10h-14.7c-1.3,0-1.9-0.9-1.9-1.6
				c0-0.7,0.6-1.6,1.9-1.6h17.6c1.3,0,1.9,0.5,1.9,1.6c0,0.5-0.3,1-0.8,1.7l-17.7,23.2h16.6c1.3,0,1.9,0.9,1.9,1.6
				C137.7,35.8,137.1,36.6,135.8,36.6z"/>
		</g>
		<path d="M110.1,10c0.9,0,1.6-0.7,1.6-1.6s-0.7-1.6-1.6-1.6H95.4c-0.9,0-1.6,0.7-1.6,1.6L93.7,35c0,0.9,0.7,1.6,1.6,1.6H110
			c0.9,0,1.6-0.7,1.6-1.6c0-0.9-0.7-1.6-1.6-1.6H96.9v-10h8.9c0.9,0,1.6-0.7,1.6-1.6s-0.7-1.6-1.6-1.6L97,20V10H110.1z"/>
	</g>
	<g display="inline">
		<path fill="#58595B" d="M95.7,44.6c0.5,0,0.7,0.2,0.7,0.7v3.4c0,0.1,0,0.1,0.1,0.1c0,0,0.1,0,0.3-0.1c0.2-0.1,0.4-0.1,0.6-0.3
			c0.1,0,0.1-0.1,0.2-0.1c0.2,0,0.3,0.1,0.4,0.4c0,0.1-0.1,0.2-0.1,0.3c-0.3,0.1-0.6,0.3-1,0.4c-0.2,0.1-0.4,0.1-0.5,0.1
			c-0.4,0-0.6-0.2-0.6-0.5v-3.3c0-0.3-0.1-0.4-0.4-0.4h-0.8c-0.2,0-0.3-0.1-0.3-0.3s0.1-0.3,0.3-0.3L95.7,44.6z M95.4,42.4
			c0.3,0.3,0.5,0.6,0.7,0.9c0,0.1,0.1,0.2,0.1,0.2c0,0.2-0.1,0.3-0.4,0.3c-0.1,0-0.1,0-0.2-0.1c-0.2-0.3-0.5-0.6-0.8-0.9
			c0-0.1-0.1-0.1-0.1-0.2c0-0.2,0.1-0.4,0.4-0.4C95.3,42.3,95.3,42.4,95.4,42.4z M99.9,42.4v2.5h2.1c0.2,0,0.3,0.1,0.3,0.3
			s-0.1,0.4-0.3,0.4h-2.1v3.9h2.3c0.2,0,0.3,0.1,0.3,0.3s-0.1,0.4-0.3,0.4h-4.6c-0.2,0-0.3-0.1-0.3-0.4c0-0.2,0.1-0.3,0.3-0.3h1.6
			v-7.1c0-0.2,0.1-0.3,0.3-0.3C99.7,42.1,99.9,42.2,99.9,42.4z"/>
		<path fill="#58595B" d="M109.3,42.1c0.1,0.1,0.1,0.2,0.1,0.3c0,0,0,0.1,0,0.2c-0.2,0.5-0.3,0.9-0.6,1.2v3.6c0,0.2-0.1,0.3-0.3,0.3
			c-0.2,0-0.3-0.1-0.3-0.3v-2.6c-0.1,0.1-0.3,0.3-0.4,0.4c-0.1,0.1-0.2,0.1-0.2,0.1c-0.3,0-0.4-0.1-0.4-0.3c0-0.1,0-0.1,0.1-0.2
			c0.3-0.3,0.6-0.7,0.9-1.1c0.3-0.4,0.5-0.9,0.7-1.4c0-0.1,0.1-0.2,0.3-0.2C109.1,42,109.2,42,109.3,42.1z M108.5,48.1
			c0.1,0.1,0.1,0.1,0.1,0.2c0,0.1,0,0.1,0,0.2c-0.1,0.4-0.2,0.7-0.4,0.9c-0.1,0.2-0.3,0.5-0.5,0.7c-0.1,0.1-0.2,0.1-0.3,0.1
			c-0.3,0-0.4-0.1-0.4-0.3c0-0.1,0-0.1,0.1-0.2c0.2-0.2,0.3-0.4,0.5-0.7c0.1-0.2,0.3-0.5,0.4-0.9c0-0.1,0.1-0.2,0.3-0.2
			C108.4,48,108.5,48,108.5,48.1z M111.1,42c0.1,0.1,0.1,0.1,0.1,0.2c0,0,0,0.1,0,0.2c0,0.1-0.1,0.3-0.1,0.4h3.9
			c0.4,0,0.6,0.2,0.6,0.6c0,0.1,0,0.2,0,0.3c0,0.2-0.1,0.4-0.2,0.7c-0.1,0.1-0.2,0.1-0.3,0.1c-0.2,0-0.4-0.1-0.4-0.3v-0.1
			c0.1-0.1,0.1-0.3,0.2-0.4v-0.1c0-0.1-0.1-0.2-0.2-0.2h-3.9c-0.1,0.1-0.1,0.2-0.2,0.3c-0.2,0.3-0.4,0.7-0.7,0.9
			c-0.1,0.1-0.2,0.1-0.3,0.1c-0.2,0-0.4-0.1-0.4-0.3c0-0.1,0-0.1,0.1-0.2c0.3-0.3,0.5-0.6,0.7-0.9c0.2-0.3,0.4-0.7,0.5-1.2
			c0-0.1,0.1-0.2,0.2-0.2C111,42,111.1,42,111.1,42z M110,47.9v1.2c0,0.3,0.1,0.4,0.3,0.5c0.2,0.1,0.7,0.1,1.3,0.1
			c0.6,0,1.1,0,1.3,0c0.1,0,0.3,0,0.3-0.1c0.1,0,0.1-0.2,0.1-0.5c0-0.2,0.1-0.3,0.3-0.3c0.2,0,0.3,0.1,0.3,0.4c0,0.2,0,0.4-0.1,0.5
			c-0.1,0.2-0.2,0.4-0.4,0.5c-0.2,0.1-0.8,0.1-1.7,0.1c-1,0-1.6-0.1-2-0.2c-0.3-0.2-0.5-0.5-0.5-1v-1.4c0-0.2,0.1-0.3,0.3-0.3
			C109.9,47.5,110.1,47.7,110,47.9z M111.4,44.5c0.1,0.1,0.1,0.1,0.1,0.2c0,0,0,0.1,0,0.2c-0.1,0.4-0.3,0.8-0.5,1.1
			s-0.4,0.6-0.7,0.8c-0.1,0.1-0.2,0.1-0.3,0.1c-0.3,0-0.4-0.1-0.4-0.3c0-0.1,0-0.2,0.1-0.2c0.3-0.2,0.5-0.5,0.7-0.8s0.4-0.6,0.6-1
			c0-0.1,0.1-0.2,0.2-0.2C111.3,44.4,111.4,44.4,111.4,44.5z M111.7,47.7c0.3,0.3,0.5,0.6,0.7,1c0,0.1,0,0.2,0,0.2
			c0,0.2-0.1,0.3-0.4,0.3c-0.1,0-0.2-0.1-0.3-0.2c-0.2-0.4-0.4-0.7-0.6-1c-0.1-0.1-0.1-0.2-0.1-0.2c0-0.2,0.1-0.3,0.3-0.3
			S111.6,47.6,111.7,47.7z M113.1,44v2.4c0,0.6-0.2,0.9-0.7,0.9c-0.3,0-0.6-0.1-1-0.2c-0.2-0.1-0.3-0.2-0.3-0.3
			c0-0.2,0.1-0.3,0.3-0.3h0.1c0.3,0.1,0.5,0.2,0.7,0.2c0.1,0,0.2-0.2,0.2-0.6V44c0-0.2,0.1-0.4,0.3-0.4
			C113,43.6,113.1,43.7,113.1,44z M114.4,44.6c0.3,0.6,0.6,1.2,0.9,1.9c0,0.1,0,0.2,0,0.3c0,0.2-0.1,0.3-0.4,0.3
			c-0.1,0-0.2-0.1-0.3-0.3c-0.2-0.8-0.5-1.4-0.8-1.9c-0.1-0.1-0.1-0.2-0.1-0.2c0-0.2,0.1-0.3,0.3-0.3
			C114.3,44.5,114.3,44.6,114.4,44.6z M114.6,47.9c0.4,0.5,0.7,1.1,1,1.7c0,0.1,0,0.2,0,0.3c0,0.2-0.1,0.3-0.4,0.3
			c-0.1,0-0.2-0.1-0.3-0.3c-0.3-0.7-0.6-1.3-1-1.7c-0.1-0.1-0.1-0.2-0.1-0.2c0-0.2,0.1-0.3,0.4-0.3
			C114.4,47.7,114.5,47.8,114.6,47.9z"/>
		<path fill="#58595B" d="M123.6,43.4c0,0.2-0.1,0.3-0.3,0.3h-1.5c0,0.4,0,0.8,0,1.2h0.9c0.4,0,0.7,0.2,0.7,0.6
			c0,1.5-0.1,2.6-0.1,3.5c-0.1,0.6-0.2,0.9-0.3,1.1c-0.2,0.2-0.4,0.3-0.7,0.3c-0.1,0-0.3,0-0.5-0.1s-0.3-0.2-0.3-0.3
			c0-0.2,0.1-0.4,0.3-0.4c0.2,0.1,0.4,0.1,0.4,0.1c0.1,0,0.3-0.1,0.3-0.2c0.1-0.2,0.1-0.5,0.2-0.8c0.1-0.5,0.1-1.5,0.1-3
			c0-0.2-0.1-0.3-0.2-0.3h-0.7c0,0.5-0.1,0.9-0.1,1.4c-0.2,1.3-0.5,2.4-0.9,3.4c-0.1,0.1-0.2,0.1-0.3,0.1c-0.3,0-0.4-0.1-0.4-0.4
			c0,0,0-0.1,0.1-0.2c0.4-0.9,0.7-2,0.8-3.2c0.1-0.9,0.2-1.9,0.2-3h-0.5c-0.2,0-0.3-0.1-0.3-0.3s0.1-0.3,0.3-0.3h1
			c-0.1-0.1-0.1-0.3-0.2-0.4c-0.1-0.1-0.1-0.1-0.1-0.2c0-0.2,0.1-0.4,0.4-0.4c0.1,0,0.1,0,0.2,0.1c0.1,0.2,0.2,0.4,0.3,0.7
			c0,0.1,0.1,0.2,0.1,0.2h0.9C123.5,43.1,123.6,43.2,123.6,43.4z M125,42.2c0,0.3-0.1,0.5-0.1,0.7h3.3c0.2,0,0.3,0.1,0.3,0.3
			s-0.1,0.3-0.3,0.3h-3.5c0,0,0,0,0,0.1c-0.2,0.5-0.4,0.9-0.7,1.2c-0.1,0.1-0.3,0.2-0.4,0.2c-0.3,0-0.4-0.1-0.4-0.4
			c0,0,0-0.1,0.1-0.2c0.3-0.3,0.6-0.7,0.7-1s0.2-0.7,0.3-1.2c0-0.2,0.1-0.3,0.3-0.3C124.9,41.9,125,42,125,42.2z M128.1,44.5
			c0,0.2-0.1,0.3-0.4,0.4c-0.5,0.1-1,0.2-1.4,0.3c0.1,0.7,0.2,1.2,0.4,1.7c0.4-0.3,0.8-0.7,1.1-0.9c0.1-0.1,0.2-0.1,0.3-0.1
			c0.2,0,0.3,0.1,0.3,0.3c0,0.1,0,0.2-0.1,0.3c-0.4,0.4-0.8,0.7-1.3,1c0.1,0.3,0.2,0.5,0.4,0.8c0.2,0.5,0.6,1,1.2,1.7
			c0.1,0.1,0.2,0.2,0.2,0.3c0,0.2-0.1,0.3-0.3,0.3c-0.1,0-0.2,0-0.3-0.1c-0.5-0.5-0.8-0.9-1.1-1.5c-0.3-0.4-0.5-1-0.7-1.7
			c-0.2-0.5-0.3-1.2-0.4-2c-0.2,0-0.4,0-0.5,0s-0.2,0.1-0.2,0.3v4.1c0,0.1,0.1,0.1,0.2,0.1c0,0,0.1,0,0.3-0.1
			c0.2-0.1,0.4-0.2,0.7-0.3c0.1,0,0.1-0.1,0.2-0.1c0.2,0,0.3,0.1,0.4,0.4c0,0.1-0.1,0.2-0.1,0.3c-0.3,0.2-0.7,0.3-1.1,0.4
			c-0.2,0.1-0.4,0.1-0.6,0.1c-0.4,0-0.6-0.2-0.6-0.6v-4.6c0-0.2,0.1-0.4,0.2-0.5s0.3-0.1,0.5-0.1c0.9,0,1.8-0.2,2.8-0.5
			C128,44.2,128.1,44.3,128.1,44.5z"/>
		<path fill="#58595B" d="M134.6,46.4c0.3,0,0.5,0.2,0.5,0.5v1.7c0,0.3,0.1,0.6,0.5,0.8c0.4,0.3,0.9,0.4,1.5,0.4h4.3
			c0.2,0,0.3,0.1,0.3,0.3s-0.1,0.3-0.3,0.3h-4.1c-0.5,0-1-0.1-1.4-0.2c-0.4-0.1-0.7-0.3-1-0.6l-0.1-0.1c0,0-0.1,0-0.1,0.1
			c-0.2,0.3-0.5,0.5-0.7,0.7c-0.1,0.1-0.2,0.1-0.3,0.1c-0.2,0-0.4-0.1-0.4-0.3c0-0.1,0.1-0.2,0.2-0.3c0.3-0.2,0.5-0.3,0.6-0.5
			c0.1-0.1,0.2-0.4,0.2-0.8v-1.4c0-0.1,0-0.1-0.1-0.1h-0.6c-0.2,0-0.3-0.1-0.3-0.3s0.1-0.3,0.3-0.3L134.6,46.4z M133.9,44.2
			c0.3,0.2,0.5,0.4,0.8,0.6c0.1,0.1,0.1,0.2,0.1,0.3c0,0.2-0.1,0.3-0.3,0.3c-0.1,0-0.2,0-0.3-0.1c-0.2-0.2-0.5-0.4-0.7-0.6
			c-0.1-0.1-0.2-0.2-0.2-0.3c0-0.2,0.1-0.3,0.4-0.3C133.7,44.2,133.8,44.2,133.9,44.2z M134.3,42.4c0.3,0.2,0.5,0.4,0.7,0.6
			c0.1,0.1,0.1,0.2,0.1,0.3c0,0.2-0.1,0.3-0.3,0.3c-0.1,0-0.2,0-0.3-0.1c-0.2-0.2-0.4-0.4-0.7-0.6c-0.1-0.1-0.2-0.2-0.2-0.3
			c0-0.2,0.1-0.3,0.4-0.3C134.1,42.4,134.2,42.4,134.3,42.4z M137.3,42.5v0.7h0.9c0.2,0,0.3,0.1,0.3,0.3s-0.1,0.3-0.3,0.3h-1.4v0.9
			h0.8c0.4,0,0.6,0.2,0.6,0.6c0,1.2-0.1,2.1-0.1,2.8c-0.1,0.4-0.2,0.8-0.3,0.9c-0.1,0.2-0.4,0.3-0.7,0.2c-0.1,0-0.4-0.1-0.6-0.2
			c-0.1,0-0.2-0.2-0.2-0.3c0-0.2,0.1-0.3,0.3-0.3c0.3,0.1,0.4,0.2,0.5,0.2c0.1,0,0.2-0.1,0.3-0.2c0.1-0.1,0.1-0.3,0.1-0.6
			c0-0.4,0.1-1.2,0.1-2.3c0-0.1-0.1-0.2-0.2-0.2h-0.6c0,0.6-0.1,1.1-0.2,1.6c-0.2,0.6-0.4,1.2-0.6,1.6c-0.1,0.1-0.2,0.2-0.3,0.2
			c-0.3,0-0.4-0.1-0.4-0.3c0-0.1,0-0.1,0.1-0.2c0.4-0.7,0.6-1.3,0.7-2c0.1-0.5,0.2-1.1,0.2-1.6v-0.8h-0.5c-0.2,0-0.3-0.1-0.3-0.3
			s0.1-0.3,0.3-0.3h1v-0.7c0-0.2,0.1-0.3,0.3-0.3C137.2,42.2,137.3,42.3,137.3,42.5z M139.9,42.3c0.1,0.1,0.1,0.1,0.1,0.2
			c0,0.1,0,0.1,0,0.2c-0.1,0.2-0.1,0.4-0.2,0.5h1.6c0.2,0,0.3,0.1,0.3,0.3s-0.1,0.3-0.3,0.3h-1.9c-0.1,0.1-0.2,0.3-0.3,0.4
			c-0.1,0.2-0.3,0.4-0.5,0.5c-0.1,0.1-0.1,0.1-0.2,0.1c-0.1,0-0.2,0-0.2-0.1c-0.1-0.1-0.1-0.1-0.1-0.2c0-0.1,0-0.1,0.1-0.2
			c0.1-0.1,0.3-0.3,0.4-0.4c0.1-0.2,0.3-0.4,0.4-0.6c0.1-0.2,0.2-0.5,0.3-0.8c0-0.1,0.1-0.2,0.3-0.2
			C139.8,42.2,139.8,42.2,139.9,42.3z M141.6,47c0,0.2-0.1,0.3-0.3,0.3h-0.7c0.1,0.3,0.1,0.7,0.1,1c0,0.2-0.1,0.4-0.2,0.7
			c-0.1,0.2-0.2,0.3-0.4,0.4c-0.1,0.1-0.3,0.1-0.5,0.1s-0.4,0-0.7-0.1c-0.2-0.1-0.3-0.2-0.3-0.3c0-0.2,0.1-0.3,0.3-0.3
			c0.3,0.1,0.5,0.2,0.6,0.2s0.1,0,0.2-0.1c0.1,0,0.1-0.1,0.2-0.2c0-0.1,0.1-0.2,0.1-0.3c0-0.4,0-0.7-0.1-1h-1.2
			c-0.2,0-0.3-0.1-0.3-0.3s0.1-0.3,0.3-0.3h1c0-0.1-0.1-0.1-0.1-0.2c-0.1-0.2-0.3-0.3-0.5-0.5c-0.1,0-0.1-0.1-0.1-0.1
			c0-0.2,0.1-0.3,0.3-0.3c0.1,0,0.1,0,0.2,0.1c0.1,0.1,0.1,0.1,0.2,0.2c0,0,0,0,0.1,0c0.2-0.1,0.3-0.2,0.4-0.3
			c0.1-0.1,0.2-0.2,0.3-0.3s0.1-0.1,0.1-0.2c0,0,0,0-0.1,0h-1.3c-0.2,0-0.3-0.1-0.3-0.3s0.1-0.3,0.3-0.3h1.8c0.3,0,0.4,0.1,0.4,0.3
			c0,0.1,0,0.2-0.1,0.3c-0.1,0.2-0.3,0.4-0.5,0.6c-0.2,0.2-0.4,0.4-0.6,0.5c0.1,0.1,0.2,0.3,0.2,0.4h0.9
			C141.5,46.7,141.6,46.8,141.6,47z"/>
		<path fill="#58595B" d="M149.1,42.8c0,0.2-0.1,0.3-0.3,0.3h-0.7v2.1h0.6c0.2,0,0.3,0.1,0.3,0.3s-0.1,0.3-0.3,0.3h-0.6v2.4
			c0.2-0.1,0.5-0.3,0.8-0.6h0.1c0.2,0,0.3,0.1,0.3,0.4c0,0.1-0.1,0.2-0.1,0.3c-0.3,0.2-0.6,0.5-1,0.7c-0.5,0.3-1,0.5-1.5,0.7
			c-0.1,0-0.1,0.1-0.2,0.1c-0.2,0-0.3-0.1-0.3-0.4c0-0.2,0.1-0.3,0.3-0.4c0.4-0.1,0.7-0.3,0.9-0.4v-2.8h-0.7c-0.2,0-0.3-0.1-0.3-0.3
			s0.1-0.3,0.3-0.3h0.7v-2.1h-0.7c-0.2,0-0.3-0.1-0.3-0.3s0.1-0.3,0.3-0.3h2.1C149,42.5,149.1,42.6,149.1,42.8z M151.3,45.5v1.6
			c0,0.5-0.1,0.9-0.2,1.3c-0.1,0.4-0.3,0.8-0.6,1.2c-0.3,0.3-0.7,0.7-1.2,1c-0.1,0.1-0.2,0.1-0.2,0.1c-0.2,0-0.3-0.1-0.3-0.4
			c0-0.1,0.1-0.3,0.2-0.3c0.5-0.3,0.8-0.6,1.1-0.9c0.2-0.3,0.4-0.6,0.5-0.9c0.1-0.3,0.1-0.7,0.1-1v-1.6h-1.1c-0.2,0-0.3-0.1-0.3-0.3
			s0.1-0.3,0.3-0.3h4.7c0.2,0,0.3,0.1,0.3,0.3s-0.1,0.3-0.3,0.3h-1.2v3.9c0,0.1,0,0.3,0.1,0.3c0.1,0.1,0.2,0.1,0.5,0.1
			s0.5,0,0.5-0.1c0.1-0.1,0.1-0.2,0.1-0.3v-0.7c0-0.2,0.1-0.4,0.3-0.4s0.3,0.2,0.3,0.4c0,0.7,0,1.1-0.1,1.2c0,0.1-0.1,0.2-0.3,0.3
			c-0.1,0.1-0.5,0.1-0.9,0.1c-0.5,0-0.8-0.1-1-0.2c-0.1-0.1-0.2-0.4-0.2-0.7v-4L151.3,45.5z M154.2,42.7c0,0.2-0.1,0.3-0.3,0.3h-3.8
			c-0.2,0-0.3-0.1-0.3-0.3s0.1-0.3,0.3-0.3h3.8C154.1,42.4,154.2,42.5,154.2,42.7z"/>
		<path fill="#58595B" d="M162.1,47.4c0,0,0,0.1-0.1,0.2c-0.6,0.9-1.2,1.6-1.9,2.2c-0.1,0.1-0.2,0.1-0.3,0.1c-0.2,0-0.3-0.1-0.3-0.3
			c0,0,0-0.1,0.1-0.2c0.7-0.6,1.3-1.2,1.8-2c0.1-0.2,0.2-0.3,0.4-0.3C162,47,162.1,47.2,162.1,47.4z M164.2,44.1v1.8h2.9
			c0.2,0,0.4,0.1,0.4,0.3s-0.1,0.3-0.4,0.3h-2.9v3c0,0.7-0.4,1.1-1.2,1.1c-0.4,0-0.9-0.1-1.5-0.2c-0.2-0.1-0.3-0.2-0.3-0.3
			c0-0.2,0.1-0.3,0.3-0.4c0,0,0.1,0,0.2,0c0.6,0.1,1,0.1,1.2,0.1c0.3,0,0.5-0.2,0.5-0.6v-2.7h-2.9c-0.4,0-0.6-0.2-0.6-0.6
			c0-0.1,0.2-1,0.5-2.6c0-0.2,0.2-0.4,0.4-0.4c0,0,0,0,0.1,0l0,0c1.1,0,2.1-0.1,2.9-0.1c0.8,0,1.6-0.1,2.7-0.3h0.1
			c0.2,0,0.3,0.1,0.3,0.3s-0.1,0.3-0.3,0.3c-1.1,0.2-2,0.3-2.9,0.3c-0.7,0.1-1.6,0.1-2.7,0.1c-0.3,1.3-0.4,2-0.4,2.1
			s0.1,0.2,0.2,0.2h2.6V44c0-0.2,0.1-0.3,0.3-0.3C164.1,43.7,164.2,43.8,164.2,44.1z M165.7,47.3c0.4,0.4,0.8,0.7,1,1
			c0.3,0.3,0.6,0.7,0.9,1.1c0,0.1,0,0.2,0,0.3c0,0.2-0.1,0.3-0.3,0.3c-0.1,0-0.2,0-0.3-0.1c-0.3-0.4-0.6-0.8-0.8-1.1
			c-0.3-0.3-0.6-0.6-1-1c-0.1-0.1-0.1-0.2-0.1-0.3s0.1-0.2,0.3-0.3C165.5,47.3,165.6,47.3,165.7,47.3z"/>
		<path fill="#58595B" d="M173.6,42.2c0.1,0.1,0.1,0.1,0.1,0.2c0,0,0,0.1,0,0.2c0,0.2-0.1,0.3-0.1,0.5h2.1c0.4,0,0.7,0.2,0.7,0.6
			c0,2.1-0.1,3.7-0.2,4.9c-0.1,0.8-0.2,1.3-0.4,1.6s-0.5,0.4-0.9,0.4c-0.2,0-0.5-0.1-0.9-0.2c-0.2-0.1-0.3-0.2-0.3-0.3
			c0-0.2,0.1-0.4,0.3-0.4c0.4,0.1,0.7,0.2,0.8,0.2c0.2,0,0.4-0.1,0.5-0.3c0.1-0.3,0.2-0.7,0.2-1.2c0.1-0.8,0.1-2.3,0.1-4.5
			c0-0.1-0.1-0.2-0.2-0.2h-2.1c0,0,0,0.1-0.1,0.1c-0.2,0.3-0.3,0.6-0.5,0.9c-0.1,0.1-0.2,0.1-0.2,0.1c-0.2,0-0.4-0.1-0.4-0.3
			c0-0.1,0-0.1,0.1-0.2c0.2-0.3,0.4-0.5,0.5-0.9c0.2-0.3,0.3-0.7,0.4-1.1c0-0.1,0.1-0.2,0.2-0.2C173.5,42.1,173.6,42.2,173.6,42.2z
			 M174.6,44.7c0.4,0,0.6,0.2,0.6,0.6v3c0,0.4-0.2,0.6-0.6,0.6h-1.1c-0.4,0-0.6-0.2-0.6-0.6v-3c0-0.4,0.2-0.5,0.6-0.5L174.6,44.7z
			 M174.6,48v-2.4c0-0.2-0.1-0.3-0.3-0.3h-0.5c-0.2,0-0.3,0.1-0.3,0.3V48c0,0.2,0.1,0.3,0.3,0.3h0.5C174.5,48.3,174.6,48.2,174.6,48
			z M178.3,48.3c0.1,0.1,0.3,0.2,0.4,0.3c0.2,0.1,0.3,0.3,0.5,0.4l0,0c0.2-0.3,0.4-0.6,0.6-0.9c0.1-0.3,0.2-0.6,0.2-0.9
			c0-0.1,0-0.1-0.1-0.1h-1.3h-0.1c-0.1,0.1-0.3,0.3-0.4,0.4c-0.3,0.3-0.7,0.6-1.2,0.8c-0.1,0-0.1,0-0.1,0c-0.2,0-0.3-0.1-0.3-0.3
			c0-0.1,0.1-0.2,0.2-0.3c0.5-0.3,0.9-0.5,1.2-0.8c0.2-0.2,0.4-0.5,0.6-0.9c0.1-0.1,0.2-0.1,0.3-0.1c0.2,0,0.3,0.1,0.3,0.3
			c0,0.1,0,0.2-0.1,0.3c0,0,0,0,0,0.1h1.2c0.4,0,0.7,0.2,0.7,0.6c0,0.3-0.1,0.7-0.2,1c-0.2,0.5-0.4,0.9-0.7,1.2
			c-0.4,0.4-0.8,0.7-1.2,0.9c-0.6,0.3-1.3,0.4-2,0.5c-0.3,0-0.4-0.1-0.4-0.3s0.1-0.3,0.3-0.3c0.6,0,1-0.1,1.4-0.2
			c0.3-0.1,0.6-0.2,0.8-0.4c0,0,0,0-0.1,0c-0.2-0.2-0.3-0.3-0.4-0.4c-0.1-0.1-0.2-0.2-0.3-0.2c-0.1-0.1-0.1-0.2-0.1-0.3
			C178,48.5,178.1,48.4,178.3,48.3C178.2,48.2,178.2,48.2,178.3,48.3z M177.9,44.1c0.1,0.1,0.2,0.2,0.3,0.3s0.3,0.3,0.4,0.4l0,0
			c0,0,0.1,0,0.1-0.1c0.3-0.3,0.6-0.7,0.8-1.1c0.1-0.1,0.1-0.2,0.1-0.3c0,0,0-0.1-0.1-0.1h-1.7c-0.1,0.1-0.1,0.2-0.2,0.3
			c-0.2,0.2-0.4,0.5-0.7,0.7h-0.1c-0.2,0-0.3-0.1-0.3-0.3c0-0.1,0.1-0.2,0.2-0.3c0.3-0.2,0.5-0.4,0.6-0.7c0.1-0.2,0.2-0.4,0.3-0.7
			c0.1-0.1,0.2-0.1,0.3-0.1c0.2,0,0.3,0.1,0.3,0.3c0,0.1,0,0.2-0.1,0.3h1.9c0.4,0,0.5,0.2,0.5,0.5c0,0.1-0.1,0.3-0.2,0.5
			c-0.3,0.5-0.5,0.9-0.8,1.2s-0.6,0.6-1,0.8c-0.5,0.3-0.9,0.6-1.3,0.7c-0.2,0.1-0.3,0.1-0.3,0.1c-0.3,0-0.4-0.1-0.4-0.4
			c0-0.1,0.1-0.3,0.3-0.3c0.4-0.1,0.7-0.3,1-0.4c0.2-0.1,0.3-0.2,0.4-0.3c0,0,0,0-0.1,0c-0.1-0.2-0.3-0.3-0.3-0.4
			c-0.1-0.1-0.2-0.2-0.3-0.2c-0.1-0.1-0.1-0.2-0.1-0.3c0-0.2,0.1-0.3,0.3-0.3C177.8,44,177.8,44.1,177.9,44.1z"/>
		<path fill="#58595B" d="M187.3,42.3c0.1,0.1,0.1,0.1,0.1,0.2c0,0,0,0.1,0,0.2v0.1h2.1c0.2,0,0.3,0.1,0.3,0.3s-0.1,0.3-0.3,0.3
			h-1.1c0.1,0.1,0.2,0.3,0.3,0.4c0,0.1,0,0.1,0,0.2c0,0.2-0.1,0.3-0.4,0.3c-0.1,0-0.2-0.1-0.3-0.2c-0.1-0.3-0.2-0.5-0.3-0.6
			c0,0,0-0.1-0.1-0.1h-0.7c-0.1,0.1-0.2,0.3-0.4,0.4c-0.1,0.1-0.3,0.3-0.5,0.3c-0.1,0-0.1,0.1-0.2,0.1c-0.1,0-0.2,0-0.2-0.1
			c-0.1-0.1-0.1-0.2-0.1-0.3s0-0.1,0.1-0.2c0.2-0.1,0.3-0.2,0.5-0.3c0.1-0.1,0.3-0.3,0.4-0.4c0.1-0.1,0.2-0.3,0.3-0.5
			c0-0.1,0.1-0.2,0.3-0.2C187.2,42.2,187.2,42.2,187.3,42.3z M186.6,45.8v4.6c0,0.2-0.1,0.3-0.3,0.3s-0.3-0.1-0.3-0.3v-4.6
			c0-0.2,0.1-0.3,0.3-0.3C186.5,45.4,186.6,45.5,186.6,45.8z M186.7,44.3c0.3,0.2,0.6,0.4,0.9,0.7c0,0.1,0.1,0.2,0.1,0.2
			c0,0.2-0.1,0.3-0.4,0.3c-0.1,0-0.1,0-0.2-0.1c-0.3-0.2-0.6-0.5-0.9-0.7c0-0.1-0.1-0.1-0.1-0.2c0-0.2,0.1-0.4,0.4-0.4
			C186.5,44.2,186.6,44.2,186.7,44.3z M190.9,45.9c0.4,0,0.7,0.2,0.7,0.6V49c0,0.4-0.2,0.6-0.7,0.6h-2.6c-0.4,0-0.6-0.2-0.6-0.6
			v-2.5c0-0.4,0.2-0.6,0.6-0.6H190.9z M192.7,44.5c0.4,0,0.6,0.2,0.6,0.6v4.7c0,0.5-0.3,0.8-0.9,0.8c-0.3,0-0.7-0.1-1.1-0.2
			c-0.1-0.1-0.2-0.2-0.3-0.3c0-0.2,0.1-0.4,0.3-0.4c0,0,0,0,0.1,0c0.3,0.1,0.5,0.1,0.8,0.1s0.4-0.1,0.4-0.4v-4.2
			c0-0.1-0.1-0.2-0.2-0.2h-4c-0.2,0-0.3-0.1-0.3-0.3s0.1-0.3,0.3-0.3L192.7,44.5z M190.9,46.7c0-0.2-0.1-0.3-0.3-0.3h-2.1
			c-0.2,0-0.3,0.1-0.3,0.3v0.7h2.7L190.9,46.7z M188.2,48.7c0,0.2,0.1,0.3,0.3,0.3h2.1c0.2,0,0.3-0.1,0.3-0.3v-0.8h-2.7L188.2,48.7z
			 M191,42.3c0.1,0.1,0.1,0.1,0.1,0.2c0,0,0,0.1,0,0.2v0.1h2.5c0.2,0,0.3,0.1,0.3,0.3s-0.1,0.3-0.3,0.3h-1.4
			c0.1,0.1,0.2,0.3,0.3,0.5c0,0.1,0,0.1,0,0.2c0,0.2-0.1,0.3-0.4,0.3c-0.1,0-0.2-0.1-0.3-0.2c-0.1-0.3-0.2-0.5-0.4-0.7l-0.1-0.1
			h-0.7c-0.1,0.1-0.2,0.2-0.3,0.3s-0.3,0.2-0.4,0.3c-0.1,0.1-0.1,0.1-0.2,0.1c-0.1,0-0.1,0-0.2-0.1c-0.1-0.1-0.1-0.1-0.1-0.2
			c0-0.1,0-0.1,0.1-0.2c0.1-0.1,0.3-0.2,0.4-0.3c0.1-0.1,0.2-0.2,0.3-0.4c0.1-0.1,0.2-0.3,0.2-0.5c0-0.1,0.2-0.2,0.3-0.2
			C190.8,42.2,190.9,42.2,191,42.3z"/>
		<path fill="#58595B" d="M200.6,43.6c-0.2-0.3-0.4-0.6-0.5-0.9c-0.1-0.1-0.1-0.1-0.1-0.2c0-0.2,0.1-0.3,0.4-0.3
			c0.1,0,0.1,0,0.2,0.1c0.2,0.3,0.4,0.6,0.6,1c0,0.1,0.1,0.2,0.1,0.2l0,0h2.6v-0.1c0.2-0.3,0.5-0.7,0.7-1.2c0-0.1,0.1-0.1,0.3-0.1
			c0.1,0,0.2,0,0.3,0.1s0.1,0.1,0.1,0.2c0,0.1,0,0.1,0,0.2c-0.2,0.4-0.4,0.7-0.6,1h1c0.4,0,0.6,0.2,0.6,0.6v2.7
			c0,0.4-0.2,0.6-0.6,0.6h-2.5v0.8h3.5c0.2,0,0.3,0.1,0.3,0.3s-0.1,0.3-0.3,0.3h-3.5v1.4c0,0.2-0.1,0.3-0.4,0.3
			c-0.2,0-0.3-0.1-0.3-0.3v-1.4h-3.6c-0.2,0-0.3-0.1-0.3-0.3s0.1-0.3,0.3-0.3h3.6v-0.8H200c-0.4,0-0.6-0.2-0.6-0.6v-2.7
			c0-0.4,0.2-0.6,0.6-0.6H200.6z M202.3,45.3v-1h-2.2c-0.1,0-0.2,0.1-0.2,0.2v0.8H202.3z M202.3,45.8h-2.4v0.8
			c0,0.2,0.1,0.3,0.2,0.3h2.2V45.8z M203,45.3h2.5v-0.8c0-0.1-0.1-0.2-0.2-0.2H203V45.3z M205.5,46.6v-0.8H203v1.1h2.3
			C205.4,46.9,205.5,46.8,205.5,46.6z"/>
	</g>
</g>
<g display="none">
	<g display="inline">
		<path fill="#EFAA42" stroke="#FAD277" stroke-width="5.0017" stroke-miterlimit="10" d="M61.1,52.5H37.4c-13.7,0-25-11.3-24.9-25
			l0,0c0-13.7,11.3-25,25-24.9h23.7c13.7,0,25,11.3,24.9,25l0,0C86.1,41.3,74.9,52.5,61.1,52.5z"/>
		<g>
			<path fill="#221E1F" d="M47.7,28.5h-9.8c-0.7,0-1.2,0.6-1.2,1.2c0,0.7,0.6,1.2,1.2,1.2h7.9c-1.2,3.4-4.8,5.9-8.4,5.9
				c-2.4,0-4.7-1-6.4-2.8s-2.6-4.2-2.6-6.7s0.9-4.8,2.6-6.7c1.7-1.8,4-2.8,6.4-2.8c2.7,0,5.3,1.2,6.9,3.3c0.4,0.5,0.7,1,1,1.5v0.1
				c0.3,0.6,0.5,1.1,1.3,1.2c0.1,0,0.1,0,0.2,0c0.4,0,0.8-0.2,1.1-0.5c0.2-0.2,0.2-0.5,0.1-0.8c-1.5-4.4-5.7-7.3-10.6-7.3
				c-3.1,0-6,1.2-8.2,3.5s-3.3,5.3-3.4,8.4c0,3.2,1.2,6.2,3.3,8.4c2.2,2.3,5.1,3.6,8.2,3.6c4.4,0,9.2-3.3,10.7-7.4
				c0.3-0.8,0.5-1.6,0.6-2.4c0-0.3-0.1-0.6-0.3-0.8C48.2,28.6,47.9,28.5,47.7,28.5z"/>
			<path fill="#221E1F" d="M70.6,19.1c-2.2-2.3-5.3-3.6-8.5-3.6c-3.2,0-6.3,1.3-8.4,3.5c-2.3,2.3-3.5,5.3-3.5,8.5s1.2,6.2,3.5,8.5
				c2.2,2.3,5.3,3.6,8.4,3.6c3.2,0,6.2-1.2,8.5-3.5s3.5-5.3,3.5-8.5S72.9,21.4,70.6,19.1z M62.1,37.1c-2.5,0-4.9-1-6.7-2.8
				s-2.8-4.2-2.8-6.7s1-4.9,2.8-6.7c1.8-1.8,4.2-2.8,6.7-2.8s4.9,1,6.7,2.8c1.8,1.8,2.7,4.2,2.7,6.7s-1,4.9-2.8,6.7
				C67.1,36.1,64.7,37.1,62.1,37.1z"/>
		</g>
	</g>
	<g display="inline">
		<g>
			<path d="M174,27.1c-2.1-5.3-4.3-9.7-6.8-13.7l-0.1-0.1c-0.4-0.4-0.8-0.5-1.3-0.5c-1.3,0.1-1.5,0.8-1.4,1.3c0,0.2,0.1,0.5,0.4,0.8
				c2,3.3,4,7.8,6.1,13.8c0.4,0.9,1.1,1,1.5,0.9c1.6-0.2,1.9-1,1.8-1.6c0-0.3-0.1-0.6-0.2-1V27.1z"/>
			<path d="M158.8,6.1c-0.9,0-1.4,0.5-1.4,1.4v24.3c0,1-0.4,1.4-1.2,1.4s-2.8-0.5-4.4-1c-0.5-0.1-0.8-0.2-1-0.2l0,0
				c-0.6,0.1-1.2,0.4-1.3,1.6c0,0.5,0.2,1.1,1.1,1.5c2.5,0.8,4.4,1.2,5.9,1.2c3.3,0,4-1.9,4-3.5V7.6C160.4,6.6,159.8,6.1,158.8,6.1z
				"/>
			<path d="M152.3,14.7c0.1-0.2,0.1-0.3,0.1-0.5c0-0.4-0.1-0.7-0.5-1.1c-0.3-0.2-0.6-0.4-1-0.4c-0.3,0-0.9,0-1.2,0.9
				c-0.9,2.9-1.9,5.6-3.1,7.9c-1.1,2.1-2.3,4-3.5,5.7c-0.2,0.2-0.4,0.5-0.4,0.9c-0.1,0.7,0.1,1.5,1.5,1.6c0.4,0,0.8-0.2,1.2-0.4
				l0.1-0.1c1.4-2,2.5-3.9,3.6-6.1c1.2-2.4,2.2-5.2,3.1-8.3L152.3,14.7z"/>
			<path d="M179.5,10.9h4.7V12c0,1.5,0.9,2.4,2.5,2.4h11.2c1.6,0,2.5-0.8,2.5-2.4v-1.1h4.8c0.8,0,1.3-0.5,1.3-1.3s-0.5-1.3-1.3-1.3
				h-4.8v-1c0-0.9-0.5-1.4-1.4-1.4s-1.4,0.5-1.4,1.4v1h-10.4v-1c0-0.9-0.5-1.4-1.5-1.4c-0.9,0-1.4,0.5-1.4,1.4v1h-4.7
				c-0.8,0-1.3,0.5-1.3,1.3C178.1,10.4,178.6,10.9,179.5,10.9z M187.1,11.6v-0.7h10.4v0.7c0,0.5-0.2,0.5-0.2,0.5h-10
				C187.2,12,187.1,12,187.1,11.6z"/>
			<path d="M178.7,18.2l27.4,0.1c0.9,0,1.3-0.5,1.3-1.4c0-0.8-0.5-1.3-1.3-1.3l-27.4-0.1c-0.9,0-1.3,0.5-1.3,1.3
				C177.3,17.9,178.1,18.2,178.7,18.2z"/>
			<path d="M187.2,31c-0.2,0-0.5,0.1-0.7,0.3c-2.4,0.9-5.3,1.7-8.9,2.4h-0.1c-0.7,0.3-0.8,0.8-0.8,1.2c0,1,0.6,1.6,1.6,1.6
				c0.1,0,0.3,0,0.5-0.1c0.1,0,0.3,0,0.4-0.1c3.8-0.8,6.7-1.7,8.8-2.7h0.1c0.4-0.3,0.6-0.7,0.6-1.1C188.7,31.6,188.1,31,187.2,31z"
				/>
			<path d="M206.5,33.8c-3.2-0.7-6.1-1.6-8.7-2.7l-0.1-0.1h4.2c1.6,0,2.5-0.9,2.5-2.5v-6.7c0-1.5-0.8-2.3-2.5-2.3h-19.2
				c-1.6,0-2.5,0.8-2.5,2.3v6.7c0,1.6,0.9,2.5,2.5,2.5h13.5c-0.3,0.2-0.5,0.6-0.5,1.1c0,0.3,0.2,0.7,0.6,1.1l0.1,0.1
				c1.5,0.7,3,1.3,4.5,1.9c3.9,1.3,4.8,1.4,5.1,1.4c1,0,1.6-0.6,1.6-1.6C207.5,34.6,207.3,34.1,206.5,33.8z M201.4,26.4v1.4
				c0,0.4-0.2,0.5-0.4,0.5h-7.2v-1.8L201.4,26.4z M201.4,22.6v1.1h-7.6v-1.4h7.2C201.4,22.3,201.4,22.4,201.4,22.6z M190.9,22.3v1.4
				h-7.8v-1.1c0-0.2,0.1-0.3,0.3-0.3H190.9z M183.1,27.7v-1.4h7.8v1.8h-7.5C183.2,28.2,183.1,28.2,183.1,27.7z"/>
		</g>
		<g>
			<path d="M135.8,36.6h-19.5c-1.2,0-1.8-0.5-1.8-1.6c0-0.5,0.3-1,0.8-1.8L133,10h-14.7c-1.3,0-1.9-0.9-1.9-1.6
				c0-0.7,0.6-1.6,1.9-1.6h17.6c1.3,0,1.9,0.5,1.9,1.6c0,0.5-0.3,1-0.8,1.7l-17.7,23.2h16.6c1.3,0,1.9,0.9,1.9,1.6
				C137.7,35.8,137.1,36.6,135.8,36.6z"/>
		</g>
		<path d="M110.1,10c0.9,0,1.6-0.7,1.6-1.6s-0.7-1.6-1.6-1.6H95.4c-0.9,0-1.6,0.7-1.6,1.6L93.7,35c0,0.9,0.7,1.6,1.6,1.6H110
			c0.9,0,1.6-0.7,1.6-1.6c0-0.9-0.7-1.6-1.6-1.6H96.9v-10h8.9c0.9,0,1.6-0.7,1.6-1.6s-0.7-1.6-1.6-1.6L97,20V10H110.1z"/>
	</g>
	<g display="inline">
		<path fill="#58595B" d="M96.8,43.9c0,0.2-0.1,0.3-0.3,0.3h-2c-0.2,0-0.3-0.1-0.3-0.3s0.1-0.3,0.3-0.3h2
			C96.7,43.6,96.8,43.7,96.8,43.9z M96.6,45.1c0,0.2-0.1,0.3-0.3,0.3h-1.6c-0.2,0-0.3-0.1-0.3-0.3s0.1-0.3,0.3-0.3h1.6
			C96.5,44.8,96.6,44.9,96.6,45.1z M96.6,46.5c0,0.2-0.1,0.3-0.3,0.3h-1.6c-0.2,0-0.3-0.1-0.3-0.3s0.1-0.3,0.3-0.3h1.6
			C96.5,46.2,96.6,46.3,96.6,46.5z M96,47.4c0.4,0,0.6,0.2,0.6,0.5v1.8c0,0.4-0.2,0.5-0.6,0.5h-1.1c-0.4,0-0.5-0.2-0.5-0.5v-1.8
			c0-0.4,0.2-0.5,0.5-0.5H96z M96.6,42.6c0,0.2-0.1,0.3-0.3,0.3h-1.5c-0.2,0-0.3-0.1-0.3-0.3s0.1-0.3,0.3-0.3h1.5
			C96.5,42.3,96.6,42.4,96.6,42.6z M96,49.5v-1.3c0-0.1-0.1-0.2-0.2-0.2h-0.5c-0.1,0-0.2,0.1-0.2,0.2v1.3c0,0.1,0.1,0.2,0.2,0.2h0.5
			C95.9,49.7,96,49.7,96,49.5z M99.1,43.4c0.3,0,0.4,0.1,0.4,0.3v0.8c0,0.2-0.1,0.4-0.4,0.4H99v0.5h1.4v-0.5h-0.1
			c-0.2,0-0.4-0.1-0.4-0.4v-0.8c0-0.2,0.1-0.3,0.4-0.3h1.7c0.3,0,0.4,0.1,0.4,0.3v0.8c0,0.2-0.1,0.4-0.4,0.4h-1v0.5h1.2
			c0.2,0,0.3,0.1,0.3,0.3s-0.1,0.3-0.3,0.3H101v0.4h1c0.2,0,0.3,0.1,0.3,0.3S102.2,47,102,47h-1v0.4h1.4c0.2,0,0.3,0.1,0.3,0.3
			s-0.1,0.3-0.3,0.3h-2.1c0.2,0.4,0.4,0.7,0.6,0.9c0.4-0.2,0.7-0.4,1-0.6c0.1-0.1,0.1-0.1,0.2-0.1c0.2,0,0.3,0.1,0.3,0.3
			c0,0.1,0,0.2-0.1,0.3c-0.3,0.2-0.6,0.4-1,0.6c0.3,0.2,0.7,0.4,1.2,0.6c0.1,0,0.1,0,0.2,0.1c0.1,0,0.1,0.1,0.1,0.2
			c0,0.1,0,0.2-0.1,0.3c-0.1,0-0.1,0.1-0.3,0.1c-0.3,0-0.6-0.1-1-0.3s-0.7-0.4-0.9-0.7c-0.3-0.3-0.6-0.8-0.9-1.4h-0.4
			c-0.1,0.2-0.2,0.3-0.3,0.4c-0.1,0.1-0.1,0.1-0.2,0.2v1c0.3-0.1,0.6-0.1,0.8-0.2h0.1c0.2,0,0.2,0.1,0.3,0.3c0,0.1-0.1,0.2-0.2,0.3
			c-0.3,0.1-0.7,0.2-1.1,0.3s-0.8,0.2-1.3,0.2c-0.2,0-0.3-0.1-0.3-0.3s0.1-0.3,0.3-0.3c0.3,0,0.6-0.1,0.8-0.1l0,0v-0.7
			c-0.3,0.1-0.5,0.2-0.8,0.3c-0.1,0-0.2,0-0.2,0c-0.1,0-0.1,0-0.2-0.1c0-0.1-0.1-0.1-0.1-0.2c0-0.1,0.1-0.2,0.2-0.3
			c0.3-0.1,0.6-0.2,0.9-0.3c0.2-0.1,0.3-0.2,0.5-0.3l0,0H97c-0.2,0-0.3-0.1-0.3-0.3s0.1-0.3,0.3-0.3h1.3v-0.4h-0.9
			c-0.2,0-0.3-0.1-0.3-0.3s0.1-0.3,0.3-0.3h0.9v-0.4h-1.2c-0.2,0-0.3-0.1-0.3-0.3s0.1-0.3,0.3-0.3h1.2v-0.5h-0.9
			c-0.2,0-0.4-0.1-0.4-0.4v-0.8c0-0.2,0.1-0.3,0.4-0.3L99.1,43.4z M100,42.4v0.2h2.2c0.2,0,0.3,0.1,0.3,0.3s-0.1,0.3-0.3,0.3h-5.1
			c-0.2,0-0.3-0.1-0.3-0.3s0.1-0.3,0.3-0.3h2.1v-0.2c0-0.2,0.1-0.4,0.4-0.4S100,42.1,100,42.4z M99,44.3V44c0-0.1,0-0.1-0.1-0.1
			h-1.1c-0.1,0-0.1,0-0.1,0.1v0.3c0,0.1,0,0.1,0.1,0.1L99,44.3C98.9,44.4,99,44.4,99,44.3z M100.4,46H99v0.4h1.4V46z M100.4,47.3
			v-0.4H99v0.4H100.4z M101.8,44.3V44c0-0.1,0-0.1-0.1-0.1h-1.2c-0.1,0-0.1,0-0.1,0.1v0.3c0,0.1,0,0.1,0.1,0.1L101.8,44.3
			C101.8,44.4,101.8,44.4,101.8,44.3z"/>
		<path fill="#58595B" d="M109.1,42.1c0.1,0.1,0.1,0.2,0.1,0.3c0,0,0,0.1,0,0.2c-0.1,0.5-0.3,0.9-0.5,1.2v3.6c0,0.2-0.1,0.3-0.3,0.3
			c-0.2,0-0.3-0.1-0.3-0.3v-2.6c-0.1,0.1-0.3,0.3-0.4,0.4c-0.1,0.1-0.2,0.1-0.2,0.1c-0.2,0-0.4-0.1-0.4-0.3c0-0.1,0-0.1,0.1-0.2
			c0.3-0.3,0.6-0.7,0.9-1.1c0.3-0.4,0.5-0.9,0.7-1.4C108.8,42.2,108.9,42.1,109.1,42.1C109,42,109.1,42,109.1,42.1z M108.5,48.1
			c0.1,0.1,0.1,0.1,0.1,0.2c0,0.1,0,0.1,0,0.2c-0.1,0.4-0.2,0.7-0.4,0.9c-0.1,0.2-0.3,0.5-0.5,0.7c-0.1,0.1-0.2,0.1-0.3,0.1
			c-0.3,0-0.4-0.1-0.4-0.3c0-0.1,0-0.1,0.1-0.2c0.2-0.2,0.3-0.4,0.5-0.7c0.1-0.2,0.3-0.5,0.4-0.9c0-0.1,0.1-0.2,0.3-0.2
			C108.4,48,108.5,48,108.5,48.1z M111,42c0.1,0.1,0.1,0.1,0.1,0.2c0,0,0,0.1,0,0.2c0,0.1-0.1,0.3-0.1,0.4h4c0.4,0,0.6,0.2,0.6,0.6
			c0,0.1,0,0.2,0,0.3c0,0.2-0.1,0.4-0.2,0.7c-0.1,0.1-0.2,0.1-0.3,0.1c-0.2,0-0.4-0.1-0.4-0.3v-0.1c0.1-0.1,0.1-0.3,0.2-0.4v-0.1
			c0-0.1-0.1-0.2-0.2-0.2h-3.9h-0.1c-0.1,0.1-0.1,0.2-0.2,0.3c-0.2,0.3-0.4,0.7-0.7,0.9c-0.1,0.1-0.2,0.1-0.3,0.1
			c-0.2,0-0.4-0.1-0.4-0.3c0-0.1,0-0.1,0.1-0.2c0.2-0.3,0.5-0.6,0.7-0.9c0.2-0.3,0.4-0.7,0.5-1.2c0-0.1,0.1-0.2,0.2-0.2
			C110.8,42,110.9,42,111,42z M110.1,47.9v1.2c0,0.3,0.1,0.4,0.3,0.5c0.2,0.1,0.7,0.1,1.3,0.1c0.6,0,1.1,0,1.3,0
			c0.1,0,0.3,0,0.3-0.1c0.1,0,0.1-0.2,0.1-0.5c0-0.2,0.1-0.3,0.3-0.3c0.2,0,0.3,0.1,0.3,0.4c0,0.2,0,0.4-0.1,0.5
			c-0.1,0.2-0.2,0.4-0.4,0.5c-0.2,0.1-0.8,0.1-1.7,0.1c-1,0-1.6-0.1-2-0.2c-0.3-0.2-0.5-0.5-0.5-1v-1.4c0-0.2,0.1-0.3,0.3-0.3
			C109.9,47.5,110.1,47.7,110.1,47.9z M111.4,44.1c0.1,0.1,0.1,0.1,0.1,0.2c0,0,0,0.1,0,0.2c-0.1,0.5-0.3,0.9-0.5,1.3
			c-0.2,0.4-0.4,0.7-0.7,1c-0.1,0.1-0.2,0.1-0.3,0.1c-0.3,0-0.4-0.1-0.4-0.3c0-0.1,0-0.2,0.1-0.2c0.3-0.3,0.5-0.6,0.7-0.9
			c0.2-0.4,0.4-0.8,0.6-1.2c0-0.1,0.1-0.2,0.2-0.2C111.3,44.1,111.4,44.1,111.4,44.1z M111.7,47.7c0.3,0.3,0.5,0.6,0.7,1
			c0,0.1,0,0.2,0,0.2c0,0.2-0.1,0.3-0.4,0.3c-0.1,0-0.2-0.1-0.3-0.2c-0.2-0.4-0.4-0.7-0.6-1c-0.1-0.1-0.1-0.2-0.1-0.2
			c0-0.2,0.1-0.3,0.3-0.3S111.6,47.6,111.7,47.7z M113.1,44.1v2.4c0,0.6-0.2,0.9-0.7,0.9c-0.3,0-0.6-0.1-1-0.2
			c-0.2-0.1-0.3-0.2-0.3-0.3c0-0.2,0.1-0.3,0.3-0.3h0.1c0.3,0.1,0.5,0.2,0.7,0.2c0.1,0,0.2-0.2,0.2-0.6v-2c0-0.2,0.1-0.4,0.3-0.4
			C113,43.7,113.1,43.8,113.1,44.1z M114.4,44.3c0.3,0.7,0.6,1.4,0.9,2.3c0,0.1,0,0.2,0,0.3c0,0.2-0.1,0.3-0.4,0.3
			c-0.1,0-0.2-0.1-0.3-0.3c-0.2-0.9-0.5-1.7-0.8-2.2c-0.1-0.1-0.1-0.2-0.1-0.2c0-0.2,0.1-0.3,0.3-0.3
			C114.3,44.1,114.3,44.2,114.4,44.3z M114.6,47.9c0.4,0.5,0.7,1.1,1,1.7c0,0.1,0,0.2,0,0.3c0,0.2-0.1,0.3-0.4,0.3
			c-0.1,0-0.2-0.1-0.3-0.3c-0.3-0.7-0.6-1.3-1-1.7c-0.1-0.1-0.1-0.2-0.1-0.2c0-0.2,0.1-0.3,0.4-0.3
			C114.4,47.7,114.5,47.8,114.6,47.9z"/>
		<path fill="#58595B" d="M122.4,42.3v0.8h0.9c0.2,0,0.3,0.1,0.3,0.3s-0.1,0.3-0.3,0.3h-1.5c0,0.4,0,0.8,0,1.2h0.9
			c0.4,0,0.7,0.2,0.7,0.6c0,1.5-0.1,2.6-0.1,3.5c-0.1,0.6-0.2,0.9-0.3,1.1c-0.2,0.2-0.4,0.3-0.7,0.3c-0.1,0-0.3,0-0.5-0.1
			s-0.3-0.2-0.3-0.3c0-0.2,0.1-0.4,0.3-0.4c0.2,0.1,0.4,0.1,0.4,0.1c0.1,0,0.3-0.1,0.3-0.2c0.1-0.2,0.1-0.5,0.2-0.8
			c0.1-0.5,0.1-1.5,0.1-3c0-0.2-0.1-0.3-0.2-0.3h-0.7c0,0.5-0.1,0.9-0.1,1.4c-0.2,1.3-0.5,2.4-0.9,3.4c-0.1,0.1-0.2,0.1-0.3,0.1
			c-0.3,0-0.4-0.1-0.4-0.4c0,0,0-0.1,0.1-0.2c0.4-0.9,0.7-2,0.8-3.2c0.1-0.9,0.2-1.9,0.2-3h-0.5c-0.2,0-0.3-0.1-0.3-0.3
			s0.1-0.3,0.3-0.3h1v-0.8c0-0.2,0.1-0.3,0.3-0.3C122.3,42,122.4,42.1,122.4,42.3z M125,42.2c0,0.3-0.1,0.5-0.1,0.7h3.3
			c0.2,0,0.3,0.1,0.3,0.3s-0.1,0.3-0.3,0.3h-3.5c0,0,0,0,0,0.1c-0.2,0.5-0.4,0.9-0.7,1.2c-0.1,0.1-0.3,0.2-0.4,0.2
			c-0.3,0-0.4-0.1-0.4-0.4c0,0,0-0.1,0.1-0.2c0.3-0.3,0.6-0.7,0.7-1s0.2-0.7,0.3-1.2c0-0.2,0.1-0.3,0.3-0.3
			C124.9,41.9,125,42,125,42.2z M128.1,44.5c0,0.2-0.1,0.3-0.4,0.4c-0.5,0.1-1,0.2-1.4,0.3c0.1,0.7,0.2,1.2,0.4,1.7
			c0.4-0.3,0.8-0.7,1.1-0.9c0.1-0.1,0.2-0.1,0.3-0.1c0.2,0,0.3,0.1,0.3,0.3c0,0.1,0,0.2-0.1,0.3c-0.4,0.4-0.8,0.7-1.3,1
			c0.1,0.3,0.2,0.5,0.4,0.8c0.2,0.5,0.6,1,1.2,1.7c0.1,0.1,0.2,0.2,0.2,0.3c0,0.2-0.1,0.3-0.3,0.3c-0.1,0-0.2,0-0.3-0.1
			c-0.5-0.5-0.8-0.9-1.1-1.5c-0.3-0.4-0.5-1-0.7-1.7c-0.2-0.5-0.3-1.2-0.4-2c-0.2,0-0.4,0-0.5,0s-0.2,0.1-0.2,0.3v3.9
			c0.3-0.1,0.6-0.3,1-0.6h0.1c0.2,0,0.3,0.1,0.3,0.4c0,0.1,0,0.2-0.1,0.2c-0.2,0.2-0.5,0.4-0.9,0.6c-0.5,0.3-0.9,0.4-1.3,0.6
			c-0.1,0-0.1,0-0.2,0c-0.2,0-0.3-0.1-0.3-0.3s0.1-0.3,0.3-0.4c0.2-0.1,0.3-0.1,0.5-0.2c0,0,0,0,0-0.1v-4.3c0-0.2,0.1-0.4,0.2-0.5
			s0.3-0.1,0.5-0.1c0.9,0,1.8-0.2,2.8-0.5C128,44.2,128.1,44.3,128.1,44.5z"/>
		<path fill="#58595B" d="M134.6,46.4c0.3,0,0.5,0.2,0.5,0.5v1.7c0,0.3,0.1,0.6,0.5,0.8c0.4,0.3,0.9,0.4,1.5,0.4h4.3
			c0.2,0,0.3,0.1,0.3,0.3s-0.1,0.3-0.3,0.3h-4.1c-0.5,0-1-0.1-1.4-0.2c-0.4-0.1-0.7-0.3-1-0.6l-0.1-0.1c0,0-0.1,0-0.1,0.1
			c-0.2,0.3-0.5,0.5-0.7,0.7c-0.1,0.1-0.2,0.1-0.3,0.1c-0.2,0-0.4-0.1-0.4-0.3c0-0.1,0.1-0.2,0.2-0.3c0.3-0.2,0.5-0.3,0.6-0.5
			c0.1-0.1,0.2-0.4,0.2-0.8v-1.4c0-0.1,0-0.1-0.1-0.1h-0.6c-0.2,0-0.3-0.1-0.3-0.3s0.1-0.3,0.3-0.3L134.6,46.4z M133.9,44.2
			c0.3,0.2,0.5,0.4,0.8,0.6c0.1,0.1,0.1,0.2,0.1,0.3c0,0.2-0.1,0.3-0.3,0.3c-0.1,0-0.2,0-0.3-0.1c-0.2-0.2-0.5-0.4-0.7-0.6
			c-0.1-0.1-0.2-0.2-0.2-0.3c0-0.2,0.1-0.3,0.4-0.3C133.8,44.2,133.8,44.2,133.9,44.2z M134.3,42.4c0.3,0.2,0.5,0.4,0.7,0.6
			c0.1,0.1,0.1,0.2,0.1,0.3c0,0.2-0.1,0.3-0.3,0.3c-0.1,0-0.2,0-0.3-0.1c-0.2-0.2-0.4-0.4-0.7-0.6c-0.1-0.1-0.2-0.2-0.2-0.3
			c0-0.2,0.1-0.3,0.4-0.3C134.1,42.4,134.2,42.4,134.3,42.4z M137.3,42.5v0.7h0.9c0.2,0,0.3,0.1,0.3,0.3s-0.1,0.3-0.3,0.3h-1.4v0.9
			h0.8c0.4,0,0.6,0.2,0.6,0.6c0,1.2-0.1,2.1-0.1,2.8c-0.1,0.4-0.2,0.8-0.3,0.9c-0.1,0.2-0.4,0.3-0.7,0.2c-0.1,0-0.4-0.1-0.6-0.2
			c-0.1,0-0.2-0.2-0.2-0.3c0-0.2,0.1-0.3,0.3-0.3c0.3,0.1,0.4,0.2,0.5,0.2c0.1,0,0.2-0.1,0.3-0.2c0.1-0.1,0.1-0.3,0.1-0.6
			c0-0.4,0.1-1.2,0.1-2.3c0-0.1-0.1-0.2-0.2-0.2h-0.6c0,0.6-0.1,1.1-0.2,1.6c-0.2,0.6-0.4,1.2-0.6,1.6c-0.1,0.1-0.2,0.2-0.3,0.2
			c-0.3,0-0.4-0.1-0.4-0.3c0-0.1,0-0.1,0.1-0.2c0.4-0.7,0.6-1.3,0.7-2c0.1-0.5,0.2-1.1,0.2-1.6v-0.8h-0.5c-0.2,0-0.3-0.1-0.3-0.3
			s0.1-0.3,0.3-0.3h1v-0.7c0-0.2,0.1-0.3,0.3-0.3C137.2,42.2,137.3,42.3,137.3,42.5z M139.9,42.3c0.1,0.1,0.1,0.1,0.1,0.2
			c0,0.1,0,0.1,0,0.2c-0.1,0.2-0.1,0.4-0.2,0.5h1.6c0.2,0,0.3,0.1,0.3,0.3s-0.1,0.3-0.3,0.3h-1.9c-0.1,0.1-0.2,0.3-0.3,0.4
			c-0.1,0.2-0.3,0.4-0.5,0.5c-0.1,0.1-0.1,0.1-0.2,0.1c-0.1,0-0.2,0-0.2-0.1c-0.1-0.1-0.1-0.1-0.1-0.2c0-0.1,0-0.1,0.1-0.2
			c0.1-0.1,0.3-0.3,0.4-0.4c0.1-0.2,0.3-0.4,0.4-0.6c0.1-0.2,0.2-0.5,0.3-0.8c0-0.1,0.1-0.2,0.3-0.2
			C139.8,42.2,139.8,42.2,139.9,42.3z M141.6,47c0,0.2-0.1,0.3-0.3,0.3h-0.7c0.1,0.3,0.1,0.7,0.1,1c0,0.2-0.1,0.4-0.2,0.7
			c-0.1,0.2-0.2,0.3-0.4,0.4c-0.1,0.1-0.3,0.1-0.5,0.1s-0.4,0-0.7-0.1c-0.2-0.1-0.3-0.2-0.3-0.3c0-0.2,0.1-0.3,0.3-0.3
			c0.3,0.1,0.5,0.2,0.6,0.2s0.1,0,0.2-0.1c0.1,0,0.1-0.1,0.2-0.2c0-0.1,0.1-0.2,0.1-0.3c0-0.4,0-0.7-0.1-1h-1.2
			c-0.2,0-0.3-0.1-0.3-0.3s0.1-0.3,0.3-0.3h1c0-0.1-0.1-0.1-0.1-0.2c-0.1-0.2-0.3-0.3-0.5-0.5c-0.1,0-0.1-0.1-0.1-0.1
			c0-0.2,0.1-0.3,0.3-0.3c0.1,0,0.1,0,0.2,0.1c0.1,0.1,0.1,0.1,0.2,0.2c0,0,0,0,0.1,0c0.2-0.1,0.3-0.2,0.4-0.3
			c0.1-0.1,0.2-0.2,0.3-0.3s0.1-0.1,0.1-0.2c0,0,0,0-0.1,0h-1.3c-0.2,0-0.3-0.1-0.3-0.3s0.1-0.3,0.3-0.3h1.8c0.3,0,0.4,0.1,0.4,0.3
			c0,0.1,0,0.2-0.1,0.3c-0.1,0.2-0.3,0.4-0.5,0.6c-0.2,0.2-0.4,0.4-0.6,0.5c0.1,0.1,0.2,0.3,0.2,0.4h0.9
			C141.5,46.7,141.6,46.8,141.6,47z"/>
		<path fill="#58595B" d="M149.1,42.8c0,0.2-0.1,0.3-0.3,0.3h-0.7v2.1h0.6c0.2,0,0.3,0.1,0.3,0.3s-0.1,0.3-0.3,0.3h-0.6v2.4
			c0.2-0.1,0.5-0.3,0.8-0.6h0.1c0.2,0,0.3,0.1,0.3,0.4c0,0.1-0.1,0.2-0.1,0.3c-0.3,0.2-0.6,0.5-1,0.7c-0.5,0.3-1,0.5-1.5,0.7
			c-0.1,0-0.1,0.1-0.2,0.1c-0.2,0-0.3-0.1-0.3-0.4c0-0.2,0.1-0.3,0.3-0.4c0.4-0.1,0.7-0.3,0.9-0.4v-2.8h-0.7c-0.2,0-0.3-0.1-0.3-0.3
			s0.1-0.3,0.3-0.3h0.7v-2.1h-0.7c-0.2,0-0.3-0.1-0.3-0.3s0.1-0.3,0.3-0.3h2.1C149,42.5,149.1,42.6,149.1,42.8z M151.3,45.5v1.6
			c0,0.5-0.1,0.9-0.2,1.3c-0.1,0.4-0.3,0.8-0.6,1.2c-0.3,0.3-0.7,0.7-1.2,1c-0.1,0.1-0.2,0.1-0.2,0.1c-0.2,0-0.3-0.1-0.3-0.4
			c0-0.1,0.1-0.3,0.2-0.3c0.5-0.3,0.8-0.6,1.1-0.9c0.2-0.3,0.4-0.6,0.5-0.9c0.1-0.3,0.1-0.7,0.1-1v-1.6h-1.1c-0.2,0-0.3-0.1-0.3-0.3
			s0.1-0.3,0.3-0.3h4.7c0.2,0,0.3,0.1,0.3,0.3s-0.1,0.3-0.3,0.3h-1.2v3.9c0,0.1,0,0.3,0.1,0.3c0.1,0.1,0.2,0.1,0.5,0.1
			s0.5,0,0.5-0.1c0.1-0.1,0.1-0.2,0.1-0.3v-0.7c0-0.2,0.1-0.4,0.3-0.4s0.3,0.2,0.3,0.4c0,0.7,0,1.1-0.1,1.2c0,0.1-0.1,0.2-0.3,0.3
			c-0.1,0.1-0.5,0.1-0.9,0.1c-0.5,0-0.8-0.1-1-0.2c-0.1-0.1-0.2-0.4-0.2-0.7v-4L151.3,45.5z M154.2,42.7c0,0.2-0.1,0.3-0.3,0.3h-3.8
			c-0.2,0-0.3-0.1-0.3-0.3s0.1-0.3,0.3-0.3h3.8C154.1,42.4,154.2,42.5,154.2,42.7z"/>
		<path fill="#58595B" d="M161.1,42.3c0.1,0.1,0.1,0.1,0.1,0.2v0.1c-0.3,0.6-0.5,1-0.8,1.4c0.2,0.1,0.3,0.3,0.5,0.4
			c0.2-0.4,0.4-0.8,0.6-1.2c0-0.1,0.1-0.1,0.2-0.1c0.1,0,0.2,0,0.3,0.1s0.1,0.1,0.1,0.2v0.1c-0.4,1-0.9,1.8-1.4,2.6l0.8-0.2
			c0-0.1-0.1-0.2-0.1-0.3c-0.1-0.1-0.1-0.1-0.1-0.2c0-0.2,0.1-0.3,0.3-0.3c0,0,0.1,0,0.1,0.1c0.2,0.3,0.4,0.7,0.6,1.2
			c0,0.1,0,0.1,0,0.2c0,0.2-0.1,0.3-0.3,0.3c-0.1,0-0.1,0-0.1,0c-0.1-0.1-0.1-0.3-0.2-0.4h-0.1l-1.8,0.4c-0.2,0-0.3-0.1-0.3-0.3
			s0.1-0.3,0.3-0.3l0,0v-0.1c0.3-0.4,0.5-0.8,0.8-1.2c-0.3-0.3-0.7-0.6-1.1-0.9c-0.1-0.1-0.1-0.1-0.1-0.2c0-0.2,0.1-0.3,0.3-0.3
			c0.1,0,0.1,0,0.2,0.1l0,0c0.2-0.4,0.5-0.8,0.7-1.4c0-0.1,0.1-0.1,0.2-0.1C160.9,42.3,161,42.3,161.1,42.3z M163.8,42.2
			c0.1,0.1,0.1,0.1,0.1,0.2c0,0.1,0,0.1-0.1,0.2c-0.1,0.1-0.1,0.3-0.2,0.4l0,0h0.6c0.3,0,0.5,0.2,0.5,0.5v2.7c0,0.3-0.2,0.5-0.5,0.5
			h-0.4v0.7h3.4c0.2,0,0.3,0.1,0.3,0.3s-0.1,0.3-0.3,0.3H164c0.4,0.3,0.8,0.5,1.3,0.7c0.8,0.4,1.4,0.6,2,0.8
			c0.2,0.1,0.3,0.2,0.3,0.4c0,0.1,0,0.2-0.1,0.2c-0.1,0.1-0.2,0.1-0.3,0.1s-0.2,0-0.4-0.1c-0.5-0.2-1.1-0.5-1.6-0.7
			c-0.5-0.3-1-0.6-1.5-0.9v1.7c0,0.2-0.1,0.3-0.4,0.3c-0.2,0-0.3-0.1-0.3-0.3v-1.7c-0.3,0.3-0.7,0.5-1,0.7c-0.5,0.3-1.2,0.6-2,1
			c-0.1,0-0.2,0-0.2,0c-0.2,0-0.3-0.1-0.3-0.4c0-0.2,0.1-0.3,0.3-0.3c0.9-0.3,1.6-0.6,2.2-0.9c0.4-0.2,0.7-0.4,1-0.6h-3
			c-0.2,0-0.3-0.1-0.3-0.3s0.1-0.3,0.3-0.3h3.2v-0.7h-0.4c-0.3,0-0.5-0.2-0.5-0.5v-2.7c0-0.3,0.2-0.5,0.5-0.5h0.2
			c0-0.1,0.1-0.1,0.1-0.2c0.1-0.2,0.2-0.4,0.3-0.6C163.5,42.1,163.6,42.1,163.8,42.2C163.6,42.2,163.7,42.2,163.8,42.2z M164.1,44.6
			v-0.8c0-0.1-0.1-0.2-0.2-0.2H163c-0.1,0-0.2,0.1-0.2,0.2v0.8H164.1z M164.1,46v-0.8h-1.3V46c0,0.2,0.1,0.3,0.2,0.3h0.9
			C164,46.2,164.1,46.1,164.1,46z M166.4,42.4c0.1,0.1,0.1,0.1,0.1,0.2v0.1c-0.3,0.5-0.5,1-0.9,1.4c0.2,0.2,0.4,0.3,0.5,0.5
			c0.2-0.4,0.4-0.8,0.6-1.2c0-0.1,0.1-0.1,0.2-0.1c0.1,0,0.2,0,0.3,0.1s0.1,0.1,0.1,0.2v0.1c-0.5,0.9-1,1.7-1.5,2.4l0.9-0.2
			l-0.1-0.1c0-0.1-0.1-0.1-0.1-0.1c0-0.2,0.1-0.3,0.3-0.3c0,0,0.1,0,0.1,0.1c0.2,0.3,0.4,0.7,0.6,1.1c0,0.1,0,0.1,0,0.2
			c0,0.2-0.1,0.3-0.3,0.3h-0.1c-0.1-0.1-0.1-0.3-0.2-0.4h-0.1L165,47c-0.2,0-0.3-0.1-0.3-0.3s0.1-0.3,0.3-0.3
			c0.3-0.3,0.5-0.7,0.8-1.1c-0.3-0.3-0.6-0.6-1-0.9c-0.1-0.1-0.1-0.1-0.1-0.2c0-0.2,0.1-0.3,0.3-0.3c0,0,0.1,0,0.1,0.1
			c0.2-0.4,0.4-0.8,0.7-1.4c0-0.1,0.1-0.1,0.2-0.1C166.3,42.3,166.3,42.3,166.4,42.4z"/>
		<path fill="#58595B" d="M172.8,44.6L172.8,44.6c-0.3,0-0.4-0.1-0.4-0.3c0-0.1,0.1-0.2,0.2-0.3c0.3-0.2,0.5-0.5,0.7-0.8
			c0.1-0.2,0.2-0.5,0.4-0.9c0.1-0.1,0.2-0.1,0.3-0.1c0.2,0,0.3,0.1,0.3,0.3c0,0.1,0,0.2-0.1,0.3c0,0.1,0,0.1-0.1,0.1h1.6
			c0.3,0,0.5,0.2,0.5,0.4c0,0.1-0.1,0.3-0.2,0.5c-0.2,0.4-0.5,0.8-0.8,1.1c-0.2,0.3-0.5,0.5-0.9,0.8s-0.9,0.5-1.2,0.7
			c-0.2,0.1-0.3,0.1-0.3,0.1c-0.3,0-0.4-0.1-0.4-0.4c0-0.1,0.1-0.3,0.3-0.3c0.4-0.1,0.7-0.3,0.9-0.4c0.2-0.1,0.3-0.2,0.5-0.3
			c-0.3-0.3-0.5-0.6-0.8-0.9C173.1,44.4,173,44.5,172.8,44.6z M172.9,48.5c-0.1,0-0.1,0-0.1,0c-0.2,0-0.3-0.1-0.3-0.3
			c0-0.1,0.1-0.2,0.2-0.3c0.5-0.3,0.9-0.6,1.1-0.9c0.2-0.2,0.4-0.5,0.6-1c0.1-0.1,0.2-0.1,0.3-0.1c0.2,0,0.3,0.1,0.3,0.3
			c0,0.1,0,0.2-0.1,0.3c0,0,0,0.1-0.1,0.1h1c0.4,0,0.6,0.2,0.6,0.6c0,0.3-0.1,0.6-0.2,1c-0.1,0.5-0.4,0.9-0.6,1.2
			c-0.3,0.4-0.7,0.6-1.1,0.8c-0.5,0.2-1.1,0.4-1.8,0.4c-0.3,0-0.5-0.1-0.5-0.4c0-0.2,0.1-0.3,0.3-0.3c0.5,0,0.9-0.1,1.2-0.2
			c0.2-0.1,0.4-0.1,0.5-0.2c-0.3-0.5-0.6-0.9-0.9-1.4C173.3,48.3,173.1,48.4,172.9,48.5z M174.5,44.7c0.3-0.3,0.5-0.6,0.8-1
			c0.1-0.1,0.1-0.2,0.1-0.2s0,0-0.1,0h-1.4c0,0,0,0-0.1,0c-0.1,0.1-0.1,0.2-0.2,0.3c0,0,0,0,0.1,0.1C174,44.1,174.2,44.4,174.5,44.7
			C174.5,44.8,174.5,44.8,174.5,44.7C174.5,44.8,174.5,44.8,174.5,44.7z M174.1,47.6C174,47.7,174,47.7,174.1,47.6
			c0.2,0.5,0.6,0.9,0.9,1.4l0,0c0.3-0.3,0.5-0.6,0.6-0.9c0.1-0.3,0.2-0.6,0.2-0.8c0-0.1-0.1-0.1-0.1-0.1h-1.1c-0.1,0-0.1,0-0.1,0
			C174.3,47.4,174.2,47.5,174.1,47.6z M177.6,42.2c0.1,0.1,0.1,0.2,0.1,0.3c0,0,0,0.1,0,0.2c0,0.1,0,0.2-0.1,0.3h2.4
			c0.4,0,0.6,0.2,0.6,0.7c0,1.6,0,3-0.1,4.2c-0.1,1.1-0.2,1.9-0.4,2.2c-0.2,0.4-0.5,0.5-1,0.5c-0.4,0-0.8-0.1-1.3-0.2
			c-0.1-0.1-0.2-0.2-0.2-0.3c0-0.3,0.1-0.4,0.3-0.4c0.5,0.1,0.9,0.2,1.1,0.2c0.3,0,0.4-0.2,0.5-0.5s0.2-1,0.2-1.9
			c0-1,0.1-2.3,0.1-3.7c0-0.2-0.1-0.3-0.3-0.3h-2.2h-0.1c0,0.1-0.1,0.2-0.1,0.3c-0.1,0.3-0.3,0.6-0.5,0.9c-0.1,0.1-0.2,0.1-0.2,0.1
			c-0.3,0-0.4-0.1-0.4-0.3c0-0.1,0-0.1,0.1-0.2c0.2-0.2,0.3-0.5,0.5-0.8c0.1-0.3,0.3-0.7,0.3-1.1c0-0.1,0.1-0.2,0.3-0.2
			C177.4,42.2,177.5,42.2,177.6,42.2z M178.6,44.5c0.4,0,0.5,0.2,0.5,0.5v3.3c0,0.3-0.2,0.5-0.6,0.5h-1.1c-0.3,0-0.5-0.2-0.5-0.5V45
			c0-0.3,0.2-0.5,0.5-0.5H178.6z M178.5,48v-2.7c0-0.1-0.1-0.2-0.2-0.2h-0.5c-0.1,0-0.2,0.1-0.2,0.2V48c0,0.2,0.1,0.3,0.2,0.3h0.5
			C178.4,48.2,178.5,48.1,178.5,48z"/>
		<path fill="#58595B" d="M186.8,42.1c0.1,0.1,0.1,0.1,0.1,0.2c0,0,0,0.1,0,0.2l0,0h2.2c0.2,0,0.3,0.1,0.3,0.3s-0.1,0.3-0.3,0.3
			h-1.2c0.1,0.1,0.1,0.3,0.2,0.4c0,0.1,0,0.1,0,0.2c0,0.1-0.1,0.2-0.3,0.2c-0.1,0-0.2-0.1-0.2-0.2c-0.1-0.2-0.2-0.4-0.3-0.6V43h-0.8
			c-0.1,0.2-0.2,0.3-0.4,0.5c-0.1,0.1-0.3,0.3-0.4,0.4c-0.1,0.1-0.1,0.1-0.2,0.1c-0.1,0-0.1,0-0.2-0.1c-0.1-0.1-0.1-0.1-0.1-0.2
			c0-0.1,0-0.2,0.1-0.2c0.1-0.1,0.3-0.2,0.4-0.3c0.1-0.1,0.2-0.3,0.3-0.4c0.1-0.1,0.2-0.3,0.2-0.5c0-0.1,0.1-0.2,0.3-0.2
			C186.7,42.1,186.7,42.1,186.8,42.1z M186.3,50.4c0,0.2-0.1,0.3-0.3,0.3s-0.3-0.1-0.3-0.3v-5.5c0-0.5,0.3-0.8,0.9-0.8h1.9
			c0.5,0,0.7,0.2,0.7,0.6v1.6c0,0.4-0.2,0.6-0.7,0.6h-2.1L186.3,50.4z M186.5,44.6c-0.1,0-0.2,0.1-0.2,0.3v0.4h2.1v-0.4
			c0-0.2-0.1-0.3-0.2-0.3h-0.3H186.5z M186.3,45.7v0.7h1.9c0.1,0,0.2-0.1,0.2-0.3v-0.4H186.3z M191.2,47.1c0.3,0,0.5,0.2,0.5,0.4v2
			c0,0.3-0.2,0.5-0.5,0.5h-3.4c-0.3,0-0.5-0.2-0.5-0.5v-2c0-0.3,0.2-0.4,0.5-0.4H191.2z M191.1,48.3v-0.4c0-0.1-0.1-0.2-0.2-0.2
			h-2.7c-0.1,0-0.2,0.1-0.2,0.2v0.4H191.1z M191.1,49.2v-0.4H188v0.4c0,0.2,0.1,0.3,0.2,0.3h2.7C191,49.5,191.1,49.4,191.1,49.2z
			 M190.7,42.1c0.1,0.1,0.1,0.1,0.1,0.2c0,0,0,0.1,0,0.2l0,0h2.8c0.2,0,0.3,0.1,0.3,0.3s-0.1,0.3-0.3,0.3h-1.5
			c0.1,0.1,0.1,0.3,0.2,0.4c0,0.1,0,0.1,0,0.2c0,0.2-0.1,0.3-0.3,0.3c-0.1,0-0.2-0.1-0.2-0.2c-0.1-0.2-0.1-0.4-0.2-0.5
			c0-0.1-0.1-0.1-0.1-0.1h-1c-0.1,0.2-0.2,0.3-0.4,0.4c-0.1,0.1-0.3,0.2-0.5,0.3c-0.1,0.1-0.1,0.1-0.2,0.1c-0.1,0-0.1,0-0.2-0.1
			c-0.1-0.1-0.1-0.1-0.1-0.2c0-0.1,0-0.2,0.1-0.2c0.1-0.1,0.3-0.2,0.4-0.3c0.1-0.1,0.2-0.3,0.3-0.4c0.1-0.1,0.2-0.3,0.2-0.5
			c0-0.1,0.1-0.2,0.3-0.2S190.7,42.1,190.7,42.1z M192.7,44.1c0.6,0,0.9,0.3,0.9,0.8v4.9c0,0.6-0.3,0.9-0.9,0.9
			c-0.3,0-0.6,0-1.1-0.1c-0.2-0.1-0.3-0.2-0.3-0.3c0-0.2,0.1-0.3,0.3-0.3c0,0,0.1,0,0.2,0c0.4,0,0.7,0.1,0.8,0.1
			c0.2,0,0.3-0.2,0.3-0.5v-2.7h-2.1c-0.5,0-0.7-0.2-0.7-0.6v-1.5c0-0.4,0.2-0.6,0.7-0.6h0.3L192.7,44.1z M192.9,45.3v-0.4
			c0-0.2-0.1-0.3-0.2-0.3H191c-0.1,0-0.2,0.1-0.2,0.3v0.4H192.9z M192.9,45.7h-2.1V46c0,0.2,0.1,0.3,0.2,0.3h1.9L192.9,45.7z"/>
		<path fill="#58595B" d="M205.7,44.8c0.4,0,0.6,0.2,0.6,0.6v2c0,0.4-0.2,0.6-0.6,0.6h-2.8v0.7h3.6c0.2,0,0.3,0.1,0.3,0.3
			s-0.1,0.3-0.3,0.3h-3.6v1.1c0,0.2-0.1,0.3-0.3,0.3s-0.3-0.1-0.3-0.3v-1.1h-3.5c-0.2,0-0.3-0.1-0.3-0.3s0.1-0.3,0.3-0.3h3.5V48
			h-2.7c-0.4,0-0.6-0.2-0.6-0.6v-2c0-0.4,0.2-0.6,0.6-0.6H205.7z M201.6,42.4c0.4,0,0.6,0.2,0.6,0.6v0.7c0,0.4-0.2,0.6-0.6,0.6h-2.3
			c-0.4,0-0.6-0.2-0.6-0.6V43c0-0.4,0.2-0.6,0.6-0.6H201.6z M201.6,43.5v-0.3c0-0.1-0.1-0.2-0.2-0.2h-1.8c-0.1,0-0.2,0.1-0.2,0.2
			v0.3c0,0.1,0.1,0.2,0.2,0.2h1.8C201.5,43.7,201.6,43.7,201.6,43.5z M202.3,46.1v-0.7h-2.5c-0.1,0-0.2,0.1-0.2,0.2v0.5H202.3z
			 M202.3,46.6h-2.7v0.5c0,0.1,0.1,0.2,0.2,0.2h2.5V46.6z M202.9,46.1h2.8v-0.5c0-0.1-0.1-0.2-0.2-0.2h-2.6V46.1z M205.7,47.2v-0.5
			h-2.8v0.7h2.6C205.6,47.4,205.7,47.3,205.7,47.2z M205.9,42.4c0.4,0,0.6,0.2,0.6,0.6v0.8c0,0.4-0.2,0.5-0.6,0.5h-2.3
			c-0.4,0-0.6-0.2-0.6-0.5V43c0-0.4,0.2-0.5,0.6-0.5L205.9,42.4z M205.8,43.5v-0.3c0-0.1-0.1-0.2-0.2-0.2h-1.8
			c-0.1,0-0.2,0.1-0.2,0.2v0.3c0,0.1,0.1,0.2,0.2,0.2h1.8C205.8,43.7,205.8,43.6,205.8,43.5z"/>
	</g>
</g>
</svg>
