<?xml version="1.0" encoding="utf-8"?>
<!-- Generator: Adobe Illustrator 18.0.0, SVG Export Plug-In . SVG Version: 6.00 Build 0)  -->
<!DOCTYPE svg PUBLIC "-//W3C//DTD SVG 1.1//EN" "http://www.w3.org/Graphics/SVG/1.1/DTD/svg11.dtd">
<svg version="1.1" id="Layer_1" xmlns="http://www.w3.org/2000/svg" xmlns:xlink="http://www.w3.org/1999/xlink" x="0px" y="0px"
	 viewBox="809.4 840.4 82 20" enable-background="new 809.4 840.4 82 20" xml:space="preserve">
<g>
	<path fill="#253B80" d="M840.2,844.9h-4.5c-0.3,0-0.6,0.2-0.6,0.5l-1.8,11.5c0,0.2,0.1,0.4,0.4,0.4h2.2c0.3,0,0.6-0.2,0.6-0.5
		l0.5-3.1c0-0.3,0.3-0.5,0.6-0.5h1.4c3,0,4.7-1.4,5.2-4.3c0.2-1.3,0-2.2-0.6-2.9C842.7,845.3,841.6,844.9,840.2,844.9z M840.7,849.1
		c-0.2,1.6-1.5,1.6-2.7,1.6h-0.7l0.5-3c0-0.2,0.2-0.3,0.4-0.3h0.3c0.8,0,1.6,0,2,0.5C840.7,848.1,840.8,848.5,840.7,849.1z"/>
	<path fill="#253B80" d="M853.6,849.1h-2.2c-0.2,0-0.3,0.1-0.4,0.3l-0.1,0.6l-0.2-0.2c-0.3-0.7-1.4-0.9-2.4-0.9
		c-2.4,0-4.4,1.8-4.8,4.4c-0.2,1.3,0.1,2.5,0.8,3.3c0.7,0.8,1.6,1.1,2.7,1.1c1.9,0,3-1.2,3-1.2l-0.1,0.6c0,0.2,0.1,0.4,0.4,0.4h2
		c0.3,0,0.6-0.2,0.6-0.5l1.2-7.4C854,849.3,853.9,849.1,853.6,849.1z M850.6,853.2c-0.2,1.2-1.2,2.1-2.4,2.1c-0.6,0-1.1-0.2-1.5-0.6
		c-0.3-0.4-0.4-0.9-0.3-1.5c0.2-1.2,1.2-2.1,2.4-2.1c0.6,0,1.1,0.2,1.4,0.6C850.6,852,850.7,852.6,850.6,853.2z"/>
	<path fill="#253B80" d="M865.1,849.1h-2.2c-0.2,0-0.4,0.1-0.5,0.3l-3,4.4l-1.3-4.3c-0.1-0.3-0.3-0.4-0.6-0.4h-2.2
		c-0.3,0-0.4,0.3-0.4,0.5l2.4,7.1l-2.3,3.2c-0.2,0.3,0,0.6,0.3,0.6h2.2c0.2,0,0.4-0.1,0.5-0.3l7.3-10.4
		C865.6,849.4,865.4,849.1,865.1,849.1z"/>
	<path fill="#179BD7" d="M872.3,844.9h-4.5c-0.3,0-0.6,0.2-0.6,0.5l-1.9,11.5c0,0.2,0.1,0.4,0.4,0.4h2.3c0.2,0,0.4-0.2,0.4-0.4
		l0.5-3.3c0-0.3,0.3-0.5,0.6-0.5h1.4c3,0,4.7-1.4,5.2-4.3c0.2-1.3,0-2.2-0.6-2.9C875,845.3,873.8,844.9,872.3,844.9z M872.8,849.1
		c-0.2,1.6-1.5,1.6-2.7,1.6h-0.7l0.5-3c0-0.2,0.2-0.3,0.4-0.3h0.3c0.8,0,1.6,0,2,0.5C872.8,848.1,872.9,848.5,872.8,849.1z"/>
	<path fill="#179BD7" d="M885.7,849.1h-2.2c-0.2,0-0.3,0.1-0.4,0.3l-0.1,0.6l-0.2-0.2c-0.5-0.7-1.5-0.9-2.6-0.9
		c-2.4,0-4.4,1.8-4.8,4.4c-0.2,1.3,0.1,2.5,0.8,3.3c0.7,0.8,1.6,1.1,2.7,1.1c1.9,0,3-1.2,3-1.2l-0.1,0.6c0,0.2,0.1,0.4,0.4,0.4h2
		c0.3,0,0.6-0.2,0.6-0.5l1.2-7.4C886.2,849.3,886,849.1,885.7,849.1z M882.7,853.2c-0.2,1.2-1.2,2.1-2.4,2.1c-0.6,0-1.1-0.2-1.5-0.6
		c-0.3-0.4-0.4-0.9-0.3-1.5c0.2-1.2,1.2-2.1,2.4-2.1c0.6,0,1.1,0.2,1.4,0.6C882.7,852,882.8,852.6,882.7,853.2z"/>
	<path fill="#179BD7" d="M888.3,845.2l-1.9,11.7c0,0.2,0.1,0.4,0.4,0.4h1.9c0.3,0,0.6-0.2,0.6-0.5l1.8-11.5c0-0.2-0.1-0.4-0.4-0.4
		h-2.1C888.5,844.9,888.3,845,888.3,845.2z"/>
	<path fill="#253B80" d="M814.5,859.6l0.3-2.2H814h-3.7l2.6-16.1c0,0,0-0.1,0.1-0.1l0.1-0.1h6.2c2.1,0,3.5,0.4,4.2,1.3
		c0.3,0.4,0.6,0.8,0.7,1.3s0.1,1.1,0,1.8v0.1v0.3l0.3,0.2c0.3,0.2,0.5,0.3,0.7,0.5c0.3,0.3,0.5,0.8,0.6,1.3c0.1,0.5,0.1,1.2-0.1,1.9
		c-0.2,0.8-0.4,1.5-0.8,2.1c-0.3,0.5-0.7,1-1.2,1.3s-1,0.6-1.6,0.7c-0.6,0.2-1.3,0.2-2,0.2h-0.5c-0.3,0-0.7,0.1-0.9,0.3
		c-0.3,0.2-0.4,0.5-0.5,0.9v0.2l-0.6,4v0.1v0.1c0,0,0,0-0.1,0C817.4,859.6,814.5,859.6,814.5,859.6z"/>
	<path fill="#179BD7" d="M824.8,845.5L824.8,845.5L824.8,845.5c0,0.1,0,0.2-0.1,0.4c-0.8,4.2-3.6,5.7-7.2,5.7h-1.8
		c-0.4,0-0.8,0.3-0.9,0.8l0,0l0,0l-0.9,5.9l-0.2,1.6c0,0.3,0.2,0.5,0.5,0.5h3.2c0.4,0,0.7-0.3,0.8-0.7v-0.2l0.6-3.9v-0.2
		c0.1-0.4,0.4-0.7,0.8-0.7h0.5c3.1,0,5.6-1.3,6.3-5c0.3-1.5,0.1-2.8-0.6-3.7C825.5,845.9,825.2,845.7,824.8,845.5z"/>
	<path fill="#222D65" d="M824,845.1c-0.1,0-0.3-0.1-0.4-0.1s-0.3-0.1-0.4-0.1c-0.5-0.1-1-0.1-1.6-0.1h-4.9c-0.1,0-0.2,0-0.3,0.1
		c-0.2,0.1-0.4,0.3-0.4,0.6l-1,6.6v0.2c0.1-0.4,0.4-0.8,0.9-0.8h1.8c3.6,0,6.4-1.5,7.2-5.7c0-0.1,0-0.2,0.1-0.4
		c-0.2-0.1-0.4-0.2-0.7-0.3C824.1,845.2,824,845.2,824,845.1z"/>
	<path fill="#253B80" d="M816,845.5c0-0.3,0.2-0.5,0.4-0.6c0.1,0,0.2-0.1,0.3-0.1h4.9c0.6,0,1.1,0,1.6,0.1c0.1,0,0.3,0,0.4,0.1
		c0.1,0,0.3,0.1,0.4,0.1c0.1,0,0.1,0,0.2,0.1c0.2,0.1,0.5,0.2,0.7,0.3c0.2-1.6,0-2.6-0.8-3.6c-0.9-1.1-2.6-1.5-4.7-1.5h-6.2
		c-0.4,0-0.8,0.3-0.9,0.8l-2.6,16.3c-0.1,0.3,0.2,0.6,0.5,0.6h3.8l1-6.1L816,845.5z"/>
</g>
</svg>
